G04 #@! TF.GenerationSoftware,KiCad,Pcbnew,(5.0.1-3-g963ef8bb5)*
G04 #@! TF.CreationDate,2020-01-09T21:08:13+01:00*
G04 #@! TF.ProjectId,WS2801_ledmodule_rev2,5753323830315F6C65646D6F64756C65,rev?*
G04 #@! TF.SameCoordinates,Original*
G04 #@! TF.FileFunction,Copper,L2,Bot,Signal*
G04 #@! TF.FilePolarity,Positive*
%FSLAX46Y46*%
G04 Gerber Fmt 4.6, Leading zero omitted, Abs format (unit mm)*
G04 Created by KiCad (PCBNEW (5.0.1-3-g963ef8bb5)) date Thursday, 09 January 2020 at 21:08:13*
%MOMM*%
%LPD*%
G01*
G04 APERTURE LIST*
G04 #@! TA.AperFunction,ComponentPad*
%ADD10O,5.000000X2.400000*%
G04 #@! TD*
G04 #@! TA.AperFunction,Conductor*
%ADD11C,0.100000*%
G04 #@! TD*
G04 #@! TA.AperFunction,ComponentPad*
%ADD12C,2.400000*%
G04 #@! TD*
G04 #@! TA.AperFunction,ComponentPad*
%ADD13O,3.000000X6.000000*%
G04 #@! TD*
G04 #@! TA.AperFunction,ComponentPad*
%ADD14C,3.000000*%
G04 #@! TD*
G04 #@! TA.AperFunction,ViaPad*
%ADD15C,0.800000*%
G04 #@! TD*
G04 #@! TA.AperFunction,Conductor*
%ADD16C,0.300000*%
G04 #@! TD*
G04 #@! TA.AperFunction,Conductor*
%ADD17C,1.270000*%
G04 #@! TD*
G04 #@! TA.AperFunction,Conductor*
%ADD18C,0.254000*%
G04 #@! TD*
G04 APERTURE END LIST*
D10*
G04 #@! TO.P,GND   Dat   Clk   5V,4*
G04 #@! TO.N,GND*
X170000000Y-55500000D03*
G04 #@! TO.P,GND   Dat   Clk   5V,3*
G04 #@! TO.N,/Data_In*
X170000000Y-52000000D03*
G04 #@! TO.P,GND   Dat   Clk   5V,2*
G04 #@! TO.N,/Clock_In*
X170000000Y-48500000D03*
D11*
G04 #@! TD*
G04 #@! TO.N,/Vcc*
G04 #@! TO.C,GND   Dat   Clk   5V*
G36*
X171958810Y-43802889D02*
X172017054Y-43811529D01*
X172074171Y-43825836D01*
X172129610Y-43845672D01*
X172182838Y-43870847D01*
X172233342Y-43901118D01*
X172280636Y-43936194D01*
X172324264Y-43975736D01*
X172363806Y-44019364D01*
X172398882Y-44066658D01*
X172429153Y-44117162D01*
X172454328Y-44170390D01*
X172474164Y-44225829D01*
X172488471Y-44282946D01*
X172497111Y-44341190D01*
X172500000Y-44400000D01*
X172500000Y-45600000D01*
X172497111Y-45658810D01*
X172488471Y-45717054D01*
X172474164Y-45774171D01*
X172454328Y-45829610D01*
X172429153Y-45882838D01*
X172398882Y-45933342D01*
X172363806Y-45980636D01*
X172324264Y-46024264D01*
X172280636Y-46063806D01*
X172233342Y-46098882D01*
X172182838Y-46129153D01*
X172129610Y-46154328D01*
X172074171Y-46174164D01*
X172017054Y-46188471D01*
X171958810Y-46197111D01*
X171900000Y-46200000D01*
X168100000Y-46200000D01*
X168041190Y-46197111D01*
X167982946Y-46188471D01*
X167925829Y-46174164D01*
X167870390Y-46154328D01*
X167817162Y-46129153D01*
X167766658Y-46098882D01*
X167719364Y-46063806D01*
X167675736Y-46024264D01*
X167636194Y-45980636D01*
X167601118Y-45933342D01*
X167570847Y-45882838D01*
X167545672Y-45829610D01*
X167525836Y-45774171D01*
X167511529Y-45717054D01*
X167502889Y-45658810D01*
X167500000Y-45600000D01*
X167500000Y-44400000D01*
X167502889Y-44341190D01*
X167511529Y-44282946D01*
X167525836Y-44225829D01*
X167545672Y-44170390D01*
X167570847Y-44117162D01*
X167601118Y-44066658D01*
X167636194Y-44019364D01*
X167675736Y-43975736D01*
X167719364Y-43936194D01*
X167766658Y-43901118D01*
X167817162Y-43870847D01*
X167870390Y-43845672D01*
X167925829Y-43825836D01*
X167982946Y-43811529D01*
X168041190Y-43802889D01*
X168100000Y-43800000D01*
X171900000Y-43800000D01*
X171958810Y-43802889D01*
X171958810Y-43802889D01*
G37*
D12*
G04 #@! TO.P,GND   Dat   Clk   5V,1*
G04 #@! TO.N,/Vcc*
X170000000Y-45000000D03*
G04 #@! TD*
D10*
G04 #@! TO.P,5V   Clk   Dat   GND,4*
G04 #@! TO.N,GND*
X259000000Y-55500000D03*
G04 #@! TO.P,5V   Clk   Dat   GND,3*
G04 #@! TO.N,/Data_Out*
X259000000Y-52000000D03*
G04 #@! TO.P,5V   Clk   Dat   GND,2*
G04 #@! TO.N,/Clock_Out*
X259000000Y-48500000D03*
D11*
G04 #@! TD*
G04 #@! TO.N,/Vcc*
G04 #@! TO.C,5V   Clk   Dat   GND*
G36*
X260958810Y-43802889D02*
X261017054Y-43811529D01*
X261074171Y-43825836D01*
X261129610Y-43845672D01*
X261182838Y-43870847D01*
X261233342Y-43901118D01*
X261280636Y-43936194D01*
X261324264Y-43975736D01*
X261363806Y-44019364D01*
X261398882Y-44066658D01*
X261429153Y-44117162D01*
X261454328Y-44170390D01*
X261474164Y-44225829D01*
X261488471Y-44282946D01*
X261497111Y-44341190D01*
X261500000Y-44400000D01*
X261500000Y-45600000D01*
X261497111Y-45658810D01*
X261488471Y-45717054D01*
X261474164Y-45774171D01*
X261454328Y-45829610D01*
X261429153Y-45882838D01*
X261398882Y-45933342D01*
X261363806Y-45980636D01*
X261324264Y-46024264D01*
X261280636Y-46063806D01*
X261233342Y-46098882D01*
X261182838Y-46129153D01*
X261129610Y-46154328D01*
X261074171Y-46174164D01*
X261017054Y-46188471D01*
X260958810Y-46197111D01*
X260900000Y-46200000D01*
X257100000Y-46200000D01*
X257041190Y-46197111D01*
X256982946Y-46188471D01*
X256925829Y-46174164D01*
X256870390Y-46154328D01*
X256817162Y-46129153D01*
X256766658Y-46098882D01*
X256719364Y-46063806D01*
X256675736Y-46024264D01*
X256636194Y-45980636D01*
X256601118Y-45933342D01*
X256570847Y-45882838D01*
X256545672Y-45829610D01*
X256525836Y-45774171D01*
X256511529Y-45717054D01*
X256502889Y-45658810D01*
X256500000Y-45600000D01*
X256500000Y-44400000D01*
X256502889Y-44341190D01*
X256511529Y-44282946D01*
X256525836Y-44225829D01*
X256545672Y-44170390D01*
X256570847Y-44117162D01*
X256601118Y-44066658D01*
X256636194Y-44019364D01*
X256675736Y-43975736D01*
X256719364Y-43936194D01*
X256766658Y-43901118D01*
X256817162Y-43870847D01*
X256870390Y-43845672D01*
X256925829Y-43825836D01*
X256982946Y-43811529D01*
X257041190Y-43802889D01*
X257100000Y-43800000D01*
X260900000Y-43800000D01*
X260958810Y-43802889D01*
X260958810Y-43802889D01*
G37*
D12*
G04 #@! TO.P,5V   Clk   Dat   GND,1*
G04 #@! TO.N,/Vcc*
X259000000Y-45000000D03*
G04 #@! TD*
D13*
G04 #@! TO.P,+12V    LED3,2*
G04 #@! TO.N,Net-(J4-Pad2)*
X212080000Y-41000000D03*
D11*
G04 #@! TD*
G04 #@! TO.N,+12V*
G04 #@! TO.C,+12V    LED3*
G36*
X207823513Y-38003611D02*
X207896318Y-38014411D01*
X207967714Y-38032295D01*
X208037013Y-38057090D01*
X208103548Y-38088559D01*
X208166678Y-38126398D01*
X208225795Y-38170242D01*
X208280330Y-38219670D01*
X208329758Y-38274205D01*
X208373602Y-38333322D01*
X208411441Y-38396452D01*
X208442910Y-38462987D01*
X208467705Y-38532286D01*
X208485589Y-38603682D01*
X208496389Y-38676487D01*
X208500000Y-38750000D01*
X208500000Y-43250000D01*
X208496389Y-43323513D01*
X208485589Y-43396318D01*
X208467705Y-43467714D01*
X208442910Y-43537013D01*
X208411441Y-43603548D01*
X208373602Y-43666678D01*
X208329758Y-43725795D01*
X208280330Y-43780330D01*
X208225795Y-43829758D01*
X208166678Y-43873602D01*
X208103548Y-43911441D01*
X208037013Y-43942910D01*
X207967714Y-43967705D01*
X207896318Y-43985589D01*
X207823513Y-43996389D01*
X207750000Y-44000000D01*
X206250000Y-44000000D01*
X206176487Y-43996389D01*
X206103682Y-43985589D01*
X206032286Y-43967705D01*
X205962987Y-43942910D01*
X205896452Y-43911441D01*
X205833322Y-43873602D01*
X205774205Y-43829758D01*
X205719670Y-43780330D01*
X205670242Y-43725795D01*
X205626398Y-43666678D01*
X205588559Y-43603548D01*
X205557090Y-43537013D01*
X205532295Y-43467714D01*
X205514411Y-43396318D01*
X205503611Y-43323513D01*
X205500000Y-43250000D01*
X205500000Y-38750000D01*
X205503611Y-38676487D01*
X205514411Y-38603682D01*
X205532295Y-38532286D01*
X205557090Y-38462987D01*
X205588559Y-38396452D01*
X205626398Y-38333322D01*
X205670242Y-38274205D01*
X205719670Y-38219670D01*
X205774205Y-38170242D01*
X205833322Y-38126398D01*
X205896452Y-38088559D01*
X205962987Y-38057090D01*
X206032286Y-38032295D01*
X206103682Y-38014411D01*
X206176487Y-38003611D01*
X206250000Y-38000000D01*
X207750000Y-38000000D01*
X207823513Y-38003611D01*
X207823513Y-38003611D01*
G37*
D14*
G04 #@! TO.P,+12V    LED3,1*
G04 #@! TO.N,+12V*
X207000000Y-41000000D03*
G04 #@! TD*
D11*
G04 #@! TO.N,+12V*
G04 #@! TO.C,+12V    LED2*
G36*
X197823513Y-38003611D02*
X197896318Y-38014411D01*
X197967714Y-38032295D01*
X198037013Y-38057090D01*
X198103548Y-38088559D01*
X198166678Y-38126398D01*
X198225795Y-38170242D01*
X198280330Y-38219670D01*
X198329758Y-38274205D01*
X198373602Y-38333322D01*
X198411441Y-38396452D01*
X198442910Y-38462987D01*
X198467705Y-38532286D01*
X198485589Y-38603682D01*
X198496389Y-38676487D01*
X198500000Y-38750000D01*
X198500000Y-43250000D01*
X198496389Y-43323513D01*
X198485589Y-43396318D01*
X198467705Y-43467714D01*
X198442910Y-43537013D01*
X198411441Y-43603548D01*
X198373602Y-43666678D01*
X198329758Y-43725795D01*
X198280330Y-43780330D01*
X198225795Y-43829758D01*
X198166678Y-43873602D01*
X198103548Y-43911441D01*
X198037013Y-43942910D01*
X197967714Y-43967705D01*
X197896318Y-43985589D01*
X197823513Y-43996389D01*
X197750000Y-44000000D01*
X196250000Y-44000000D01*
X196176487Y-43996389D01*
X196103682Y-43985589D01*
X196032286Y-43967705D01*
X195962987Y-43942910D01*
X195896452Y-43911441D01*
X195833322Y-43873602D01*
X195774205Y-43829758D01*
X195719670Y-43780330D01*
X195670242Y-43725795D01*
X195626398Y-43666678D01*
X195588559Y-43603548D01*
X195557090Y-43537013D01*
X195532295Y-43467714D01*
X195514411Y-43396318D01*
X195503611Y-43323513D01*
X195500000Y-43250000D01*
X195500000Y-38750000D01*
X195503611Y-38676487D01*
X195514411Y-38603682D01*
X195532295Y-38532286D01*
X195557090Y-38462987D01*
X195588559Y-38396452D01*
X195626398Y-38333322D01*
X195670242Y-38274205D01*
X195719670Y-38219670D01*
X195774205Y-38170242D01*
X195833322Y-38126398D01*
X195896452Y-38088559D01*
X195962987Y-38057090D01*
X196032286Y-38032295D01*
X196103682Y-38014411D01*
X196176487Y-38003611D01*
X196250000Y-38000000D01*
X197750000Y-38000000D01*
X197823513Y-38003611D01*
X197823513Y-38003611D01*
G37*
D14*
G04 #@! TD*
G04 #@! TO.P,+12V    LED2,1*
G04 #@! TO.N,+12V*
X197000000Y-41000000D03*
D13*
G04 #@! TO.P,+12V    LED2,2*
G04 #@! TO.N,Net-(J3-Pad2)*
X202080000Y-41000000D03*
G04 #@! TD*
D11*
G04 #@! TO.N,+12V*
G04 #@! TO.C,+12V    GND*
G36*
X176823513Y-38003611D02*
X176896318Y-38014411D01*
X176967714Y-38032295D01*
X177037013Y-38057090D01*
X177103548Y-38088559D01*
X177166678Y-38126398D01*
X177225795Y-38170242D01*
X177280330Y-38219670D01*
X177329758Y-38274205D01*
X177373602Y-38333322D01*
X177411441Y-38396452D01*
X177442910Y-38462987D01*
X177467705Y-38532286D01*
X177485589Y-38603682D01*
X177496389Y-38676487D01*
X177500000Y-38750000D01*
X177500000Y-43250000D01*
X177496389Y-43323513D01*
X177485589Y-43396318D01*
X177467705Y-43467714D01*
X177442910Y-43537013D01*
X177411441Y-43603548D01*
X177373602Y-43666678D01*
X177329758Y-43725795D01*
X177280330Y-43780330D01*
X177225795Y-43829758D01*
X177166678Y-43873602D01*
X177103548Y-43911441D01*
X177037013Y-43942910D01*
X176967714Y-43967705D01*
X176896318Y-43985589D01*
X176823513Y-43996389D01*
X176750000Y-44000000D01*
X175250000Y-44000000D01*
X175176487Y-43996389D01*
X175103682Y-43985589D01*
X175032286Y-43967705D01*
X174962987Y-43942910D01*
X174896452Y-43911441D01*
X174833322Y-43873602D01*
X174774205Y-43829758D01*
X174719670Y-43780330D01*
X174670242Y-43725795D01*
X174626398Y-43666678D01*
X174588559Y-43603548D01*
X174557090Y-43537013D01*
X174532295Y-43467714D01*
X174514411Y-43396318D01*
X174503611Y-43323513D01*
X174500000Y-43250000D01*
X174500000Y-38750000D01*
X174503611Y-38676487D01*
X174514411Y-38603682D01*
X174532295Y-38532286D01*
X174557090Y-38462987D01*
X174588559Y-38396452D01*
X174626398Y-38333322D01*
X174670242Y-38274205D01*
X174719670Y-38219670D01*
X174774205Y-38170242D01*
X174833322Y-38126398D01*
X174896452Y-38088559D01*
X174962987Y-38057090D01*
X175032286Y-38032295D01*
X175103682Y-38014411D01*
X175176487Y-38003611D01*
X175250000Y-38000000D01*
X176750000Y-38000000D01*
X176823513Y-38003611D01*
X176823513Y-38003611D01*
G37*
D14*
G04 #@! TD*
G04 #@! TO.P,+12V    GND,1*
G04 #@! TO.N,+12V*
X176000000Y-41000000D03*
D13*
G04 #@! TO.P,+12V    GND,2*
G04 #@! TO.N,GND*
X181080000Y-41000000D03*
G04 #@! TD*
G04 #@! TO.P,+12V    LED1,2*
G04 #@! TO.N,Net-(J2-Pad2)*
X192080000Y-41000000D03*
D11*
G04 #@! TD*
G04 #@! TO.N,+12V*
G04 #@! TO.C,+12V    LED1*
G36*
X187823513Y-38003611D02*
X187896318Y-38014411D01*
X187967714Y-38032295D01*
X188037013Y-38057090D01*
X188103548Y-38088559D01*
X188166678Y-38126398D01*
X188225795Y-38170242D01*
X188280330Y-38219670D01*
X188329758Y-38274205D01*
X188373602Y-38333322D01*
X188411441Y-38396452D01*
X188442910Y-38462987D01*
X188467705Y-38532286D01*
X188485589Y-38603682D01*
X188496389Y-38676487D01*
X188500000Y-38750000D01*
X188500000Y-43250000D01*
X188496389Y-43323513D01*
X188485589Y-43396318D01*
X188467705Y-43467714D01*
X188442910Y-43537013D01*
X188411441Y-43603548D01*
X188373602Y-43666678D01*
X188329758Y-43725795D01*
X188280330Y-43780330D01*
X188225795Y-43829758D01*
X188166678Y-43873602D01*
X188103548Y-43911441D01*
X188037013Y-43942910D01*
X187967714Y-43967705D01*
X187896318Y-43985589D01*
X187823513Y-43996389D01*
X187750000Y-44000000D01*
X186250000Y-44000000D01*
X186176487Y-43996389D01*
X186103682Y-43985589D01*
X186032286Y-43967705D01*
X185962987Y-43942910D01*
X185896452Y-43911441D01*
X185833322Y-43873602D01*
X185774205Y-43829758D01*
X185719670Y-43780330D01*
X185670242Y-43725795D01*
X185626398Y-43666678D01*
X185588559Y-43603548D01*
X185557090Y-43537013D01*
X185532295Y-43467714D01*
X185514411Y-43396318D01*
X185503611Y-43323513D01*
X185500000Y-43250000D01*
X185500000Y-38750000D01*
X185503611Y-38676487D01*
X185514411Y-38603682D01*
X185532295Y-38532286D01*
X185557090Y-38462987D01*
X185588559Y-38396452D01*
X185626398Y-38333322D01*
X185670242Y-38274205D01*
X185719670Y-38219670D01*
X185774205Y-38170242D01*
X185833322Y-38126398D01*
X185896452Y-38088559D01*
X185962987Y-38057090D01*
X186032286Y-38032295D01*
X186103682Y-38014411D01*
X186176487Y-38003611D01*
X186250000Y-38000000D01*
X187750000Y-38000000D01*
X187823513Y-38003611D01*
X187823513Y-38003611D01*
G37*
D14*
G04 #@! TO.P,+12V    LED1,1*
G04 #@! TO.N,+12V*
X187000000Y-41000000D03*
G04 #@! TD*
D11*
G04 #@! TO.N,+12V*
G04 #@! TO.C,+12V    LED4*
G36*
X217823513Y-38003611D02*
X217896318Y-38014411D01*
X217967714Y-38032295D01*
X218037013Y-38057090D01*
X218103548Y-38088559D01*
X218166678Y-38126398D01*
X218225795Y-38170242D01*
X218280330Y-38219670D01*
X218329758Y-38274205D01*
X218373602Y-38333322D01*
X218411441Y-38396452D01*
X218442910Y-38462987D01*
X218467705Y-38532286D01*
X218485589Y-38603682D01*
X218496389Y-38676487D01*
X218500000Y-38750000D01*
X218500000Y-43250000D01*
X218496389Y-43323513D01*
X218485589Y-43396318D01*
X218467705Y-43467714D01*
X218442910Y-43537013D01*
X218411441Y-43603548D01*
X218373602Y-43666678D01*
X218329758Y-43725795D01*
X218280330Y-43780330D01*
X218225795Y-43829758D01*
X218166678Y-43873602D01*
X218103548Y-43911441D01*
X218037013Y-43942910D01*
X217967714Y-43967705D01*
X217896318Y-43985589D01*
X217823513Y-43996389D01*
X217750000Y-44000000D01*
X216250000Y-44000000D01*
X216176487Y-43996389D01*
X216103682Y-43985589D01*
X216032286Y-43967705D01*
X215962987Y-43942910D01*
X215896452Y-43911441D01*
X215833322Y-43873602D01*
X215774205Y-43829758D01*
X215719670Y-43780330D01*
X215670242Y-43725795D01*
X215626398Y-43666678D01*
X215588559Y-43603548D01*
X215557090Y-43537013D01*
X215532295Y-43467714D01*
X215514411Y-43396318D01*
X215503611Y-43323513D01*
X215500000Y-43250000D01*
X215500000Y-38750000D01*
X215503611Y-38676487D01*
X215514411Y-38603682D01*
X215532295Y-38532286D01*
X215557090Y-38462987D01*
X215588559Y-38396452D01*
X215626398Y-38333322D01*
X215670242Y-38274205D01*
X215719670Y-38219670D01*
X215774205Y-38170242D01*
X215833322Y-38126398D01*
X215896452Y-38088559D01*
X215962987Y-38057090D01*
X216032286Y-38032295D01*
X216103682Y-38014411D01*
X216176487Y-38003611D01*
X216250000Y-38000000D01*
X217750000Y-38000000D01*
X217823513Y-38003611D01*
X217823513Y-38003611D01*
G37*
D14*
G04 #@! TD*
G04 #@! TO.P,+12V    LED4,1*
G04 #@! TO.N,+12V*
X217000000Y-41000000D03*
D13*
G04 #@! TO.P,+12V    LED4,2*
G04 #@! TO.N,Net-(J5-Pad2)*
X222080000Y-41000000D03*
G04 #@! TD*
G04 #@! TO.P,+12V    LED5,2*
G04 #@! TO.N,Net-(J6-Pad2)*
X232080000Y-41000000D03*
D11*
G04 #@! TD*
G04 #@! TO.N,+12V*
G04 #@! TO.C,+12V    LED5*
G36*
X227823513Y-38003611D02*
X227896318Y-38014411D01*
X227967714Y-38032295D01*
X228037013Y-38057090D01*
X228103548Y-38088559D01*
X228166678Y-38126398D01*
X228225795Y-38170242D01*
X228280330Y-38219670D01*
X228329758Y-38274205D01*
X228373602Y-38333322D01*
X228411441Y-38396452D01*
X228442910Y-38462987D01*
X228467705Y-38532286D01*
X228485589Y-38603682D01*
X228496389Y-38676487D01*
X228500000Y-38750000D01*
X228500000Y-43250000D01*
X228496389Y-43323513D01*
X228485589Y-43396318D01*
X228467705Y-43467714D01*
X228442910Y-43537013D01*
X228411441Y-43603548D01*
X228373602Y-43666678D01*
X228329758Y-43725795D01*
X228280330Y-43780330D01*
X228225795Y-43829758D01*
X228166678Y-43873602D01*
X228103548Y-43911441D01*
X228037013Y-43942910D01*
X227967714Y-43967705D01*
X227896318Y-43985589D01*
X227823513Y-43996389D01*
X227750000Y-44000000D01*
X226250000Y-44000000D01*
X226176487Y-43996389D01*
X226103682Y-43985589D01*
X226032286Y-43967705D01*
X225962987Y-43942910D01*
X225896452Y-43911441D01*
X225833322Y-43873602D01*
X225774205Y-43829758D01*
X225719670Y-43780330D01*
X225670242Y-43725795D01*
X225626398Y-43666678D01*
X225588559Y-43603548D01*
X225557090Y-43537013D01*
X225532295Y-43467714D01*
X225514411Y-43396318D01*
X225503611Y-43323513D01*
X225500000Y-43250000D01*
X225500000Y-38750000D01*
X225503611Y-38676487D01*
X225514411Y-38603682D01*
X225532295Y-38532286D01*
X225557090Y-38462987D01*
X225588559Y-38396452D01*
X225626398Y-38333322D01*
X225670242Y-38274205D01*
X225719670Y-38219670D01*
X225774205Y-38170242D01*
X225833322Y-38126398D01*
X225896452Y-38088559D01*
X225962987Y-38057090D01*
X226032286Y-38032295D01*
X226103682Y-38014411D01*
X226176487Y-38003611D01*
X226250000Y-38000000D01*
X227750000Y-38000000D01*
X227823513Y-38003611D01*
X227823513Y-38003611D01*
G37*
D14*
G04 #@! TO.P,+12V    LED5,1*
G04 #@! TO.N,+12V*
X227000000Y-41000000D03*
G04 #@! TD*
D11*
G04 #@! TO.N,+12V*
G04 #@! TO.C,+12V    LED6*
G36*
X237823513Y-38003611D02*
X237896318Y-38014411D01*
X237967714Y-38032295D01*
X238037013Y-38057090D01*
X238103548Y-38088559D01*
X238166678Y-38126398D01*
X238225795Y-38170242D01*
X238280330Y-38219670D01*
X238329758Y-38274205D01*
X238373602Y-38333322D01*
X238411441Y-38396452D01*
X238442910Y-38462987D01*
X238467705Y-38532286D01*
X238485589Y-38603682D01*
X238496389Y-38676487D01*
X238500000Y-38750000D01*
X238500000Y-43250000D01*
X238496389Y-43323513D01*
X238485589Y-43396318D01*
X238467705Y-43467714D01*
X238442910Y-43537013D01*
X238411441Y-43603548D01*
X238373602Y-43666678D01*
X238329758Y-43725795D01*
X238280330Y-43780330D01*
X238225795Y-43829758D01*
X238166678Y-43873602D01*
X238103548Y-43911441D01*
X238037013Y-43942910D01*
X237967714Y-43967705D01*
X237896318Y-43985589D01*
X237823513Y-43996389D01*
X237750000Y-44000000D01*
X236250000Y-44000000D01*
X236176487Y-43996389D01*
X236103682Y-43985589D01*
X236032286Y-43967705D01*
X235962987Y-43942910D01*
X235896452Y-43911441D01*
X235833322Y-43873602D01*
X235774205Y-43829758D01*
X235719670Y-43780330D01*
X235670242Y-43725795D01*
X235626398Y-43666678D01*
X235588559Y-43603548D01*
X235557090Y-43537013D01*
X235532295Y-43467714D01*
X235514411Y-43396318D01*
X235503611Y-43323513D01*
X235500000Y-43250000D01*
X235500000Y-38750000D01*
X235503611Y-38676487D01*
X235514411Y-38603682D01*
X235532295Y-38532286D01*
X235557090Y-38462987D01*
X235588559Y-38396452D01*
X235626398Y-38333322D01*
X235670242Y-38274205D01*
X235719670Y-38219670D01*
X235774205Y-38170242D01*
X235833322Y-38126398D01*
X235896452Y-38088559D01*
X235962987Y-38057090D01*
X236032286Y-38032295D01*
X236103682Y-38014411D01*
X236176487Y-38003611D01*
X236250000Y-38000000D01*
X237750000Y-38000000D01*
X237823513Y-38003611D01*
X237823513Y-38003611D01*
G37*
D14*
G04 #@! TD*
G04 #@! TO.P,+12V    LED6,1*
G04 #@! TO.N,+12V*
X237000000Y-41000000D03*
D13*
G04 #@! TO.P,+12V    LED6,2*
G04 #@! TO.N,Net-(J7-Pad2)*
X242080000Y-41000000D03*
G04 #@! TD*
G04 #@! TO.P,+12V    GND,2*
G04 #@! TO.N,GND*
X253080000Y-41000000D03*
D11*
G04 #@! TD*
G04 #@! TO.N,+12V*
G04 #@! TO.C,+12V    GND*
G36*
X248823513Y-38003611D02*
X248896318Y-38014411D01*
X248967714Y-38032295D01*
X249037013Y-38057090D01*
X249103548Y-38088559D01*
X249166678Y-38126398D01*
X249225795Y-38170242D01*
X249280330Y-38219670D01*
X249329758Y-38274205D01*
X249373602Y-38333322D01*
X249411441Y-38396452D01*
X249442910Y-38462987D01*
X249467705Y-38532286D01*
X249485589Y-38603682D01*
X249496389Y-38676487D01*
X249500000Y-38750000D01*
X249500000Y-43250000D01*
X249496389Y-43323513D01*
X249485589Y-43396318D01*
X249467705Y-43467714D01*
X249442910Y-43537013D01*
X249411441Y-43603548D01*
X249373602Y-43666678D01*
X249329758Y-43725795D01*
X249280330Y-43780330D01*
X249225795Y-43829758D01*
X249166678Y-43873602D01*
X249103548Y-43911441D01*
X249037013Y-43942910D01*
X248967714Y-43967705D01*
X248896318Y-43985589D01*
X248823513Y-43996389D01*
X248750000Y-44000000D01*
X247250000Y-44000000D01*
X247176487Y-43996389D01*
X247103682Y-43985589D01*
X247032286Y-43967705D01*
X246962987Y-43942910D01*
X246896452Y-43911441D01*
X246833322Y-43873602D01*
X246774205Y-43829758D01*
X246719670Y-43780330D01*
X246670242Y-43725795D01*
X246626398Y-43666678D01*
X246588559Y-43603548D01*
X246557090Y-43537013D01*
X246532295Y-43467714D01*
X246514411Y-43396318D01*
X246503611Y-43323513D01*
X246500000Y-43250000D01*
X246500000Y-38750000D01*
X246503611Y-38676487D01*
X246514411Y-38603682D01*
X246532295Y-38532286D01*
X246557090Y-38462987D01*
X246588559Y-38396452D01*
X246626398Y-38333322D01*
X246670242Y-38274205D01*
X246719670Y-38219670D01*
X246774205Y-38170242D01*
X246833322Y-38126398D01*
X246896452Y-38088559D01*
X246962987Y-38057090D01*
X247032286Y-38032295D01*
X247103682Y-38014411D01*
X247176487Y-38003611D01*
X247250000Y-38000000D01*
X248750000Y-38000000D01*
X248823513Y-38003611D01*
X248823513Y-38003611D01*
G37*
D14*
G04 #@! TO.P,+12V    GND,1*
G04 #@! TO.N,+12V*
X248000000Y-41000000D03*
G04 #@! TD*
D15*
G04 #@! TO.N,GND*
X234950000Y-50482500D03*
X215265000Y-50482500D03*
X217805000Y-50482500D03*
X237490000Y-50482500D03*
X194945000Y-50482500D03*
X200977500Y-47625000D03*
X197485000Y-50482500D03*
X221297500Y-47625000D03*
X233045000Y-47625000D03*
X240982500Y-47625000D03*
X232092500Y-55880000D03*
X212090000Y-55880000D03*
X187325000Y-45402500D03*
X187325000Y-48577500D03*
X185420000Y-52705000D03*
X213677500Y-47625000D03*
X182880000Y-45085000D03*
X178435000Y-47625000D03*
X178435000Y-45085000D03*
G04 #@! TO.N,/Clock_In*
X185420000Y-50800000D03*
G04 #@! TO.N,/LED3*
X210820000Y-52387500D03*
X216535000Y-53657500D03*
G04 #@! TO.N,/LED2*
X209550000Y-52387496D03*
X198755000Y-53657500D03*
G04 #@! TO.N,/LED1*
X208280000Y-52387500D03*
X196215000Y-53657500D03*
G04 #@! TO.N,/LED4*
X219075000Y-53657500D03*
X228282500Y-52387500D03*
G04 #@! TO.N,/LED5*
X236220000Y-53657500D03*
X229552500Y-52387500D03*
G04 #@! TO.N,/LED6*
X238760000Y-53657500D03*
X230822500Y-52387500D03*
G04 #@! TO.N,/Vcc*
X187325000Y-46990000D03*
G04 #@! TO.N,/Clock_Out*
X247650000Y-50799988D03*
G04 #@! TD*
D16*
G04 #@! TO.N,/Clock_In*
X185020001Y-50400001D02*
X185420000Y-50800000D01*
X183515000Y-48895000D02*
X185020001Y-50400001D01*
X173990000Y-48895000D02*
X183515000Y-48895000D01*
X173595000Y-48500000D02*
X173990000Y-48895000D01*
X170000000Y-48500000D02*
X173595000Y-48500000D01*
G04 #@! TO.N,/LED3*
X212090000Y-53657500D02*
X210820000Y-52387500D01*
X216535000Y-53657500D02*
X212090000Y-53657500D01*
G04 #@! TO.N,/LED2*
X208279996Y-53657500D02*
X209550000Y-52387496D01*
X198755000Y-53657500D02*
X208279996Y-53657500D01*
G04 #@! TO.N,/LED1*
X197485000Y-52387500D02*
X196215000Y-53657500D01*
X208280000Y-52387500D02*
X197485000Y-52387500D01*
G04 #@! TO.N,/LED4*
X219075000Y-53657500D02*
X227012500Y-53657500D01*
X227012500Y-53657500D02*
X228282500Y-52387500D01*
G04 #@! TO.N,/LED5*
X230822500Y-53657500D02*
X229552500Y-52387500D01*
X236220000Y-53657500D02*
X230822500Y-53657500D01*
G04 #@! TO.N,/LED6*
X237490000Y-52387500D02*
X238760000Y-53657500D01*
X230822500Y-52387500D02*
X237490000Y-52387500D01*
D17*
G04 #@! TO.N,+12V*
X248000000Y-37815000D02*
X248000000Y-41000000D01*
X247015000Y-36830000D02*
X248000000Y-37815000D01*
X237000000Y-41000000D02*
X237000000Y-36975000D01*
X237000000Y-36975000D02*
X236855000Y-36830000D01*
X236855000Y-36830000D02*
X247015000Y-36830000D01*
X227000000Y-37795000D02*
X227965000Y-36830000D01*
X227000000Y-41000000D02*
X227000000Y-37795000D01*
X227965000Y-36830000D02*
X236855000Y-36830000D01*
X217805000Y-37095000D02*
X217805000Y-36830000D01*
X217000000Y-37900000D02*
X217805000Y-37095000D01*
X217000000Y-41000000D02*
X217000000Y-37900000D01*
X217805000Y-36830000D02*
X227965000Y-36830000D01*
X207000000Y-37900000D02*
X207645000Y-37255000D01*
X207000000Y-41000000D02*
X207000000Y-37900000D01*
X207645000Y-36830000D02*
X217805000Y-36830000D01*
X207645000Y-37255000D02*
X207645000Y-36830000D01*
X198070000Y-36830000D02*
X198120000Y-36830000D01*
X197000000Y-37900000D02*
X198070000Y-36830000D01*
X197000000Y-41000000D02*
X197000000Y-37900000D01*
X198120000Y-36830000D02*
X207645000Y-36830000D01*
X187325000Y-36830000D02*
X198120000Y-36830000D01*
X187000000Y-37775000D02*
X187000000Y-41000000D01*
X187960000Y-36830000D02*
X187000000Y-37775000D01*
X177070000Y-36830000D02*
X187960000Y-36830000D01*
X176000000Y-37900000D02*
X177070000Y-36830000D01*
X176000000Y-41000000D02*
X176000000Y-37900000D01*
D16*
G04 #@! TO.N,/Vcc*
X186690000Y-46355000D02*
X187325000Y-46990000D01*
X173990000Y-46355000D02*
X186690000Y-46355000D01*
X172635000Y-45000000D02*
X173990000Y-46355000D01*
X170000000Y-45000000D02*
X172635000Y-45000000D01*
G04 #@! TO.N,/Clock_Out*
X259000000Y-48500000D02*
X249949988Y-48500000D01*
X249949988Y-48500000D02*
X248049999Y-50399989D01*
X248049999Y-50399989D02*
X247650000Y-50799988D01*
G04 #@! TD*
D18*
G04 #@! TO.N,GND*
G36*
X176269914Y-35837186D02*
X176154382Y-35914382D01*
X176083530Y-36020419D01*
X175190419Y-36913531D01*
X175084383Y-36984382D01*
X175013532Y-37090418D01*
X175013530Y-37090420D01*
X174803688Y-37404471D01*
X174796053Y-37442856D01*
X174715223Y-37458934D01*
X174261861Y-37761861D01*
X173958934Y-38215223D01*
X173852560Y-38750000D01*
X173852560Y-43250000D01*
X173958934Y-43784777D01*
X174261861Y-44238139D01*
X174715223Y-44541066D01*
X175250000Y-44647440D01*
X176750000Y-44647440D01*
X177284777Y-44541066D01*
X177738139Y-44238139D01*
X178041066Y-43784777D01*
X178147440Y-43250000D01*
X178147440Y-41381000D01*
X178945000Y-41381000D01*
X178945000Y-42881000D01*
X179253320Y-43669027D01*
X179839735Y-44279080D01*
X180375064Y-44515264D01*
X180699000Y-44439176D01*
X180699000Y-41381000D01*
X181461000Y-41381000D01*
X181461000Y-44439176D01*
X181784936Y-44515264D01*
X182320265Y-44279080D01*
X182906680Y-43669027D01*
X183215000Y-42881000D01*
X183215000Y-41381000D01*
X181461000Y-41381000D01*
X180699000Y-41381000D01*
X178945000Y-41381000D01*
X178147440Y-41381000D01*
X178147440Y-38750000D01*
X178041066Y-38215223D01*
X177964076Y-38100000D01*
X179475343Y-38100000D01*
X179253320Y-38330973D01*
X178945000Y-39119000D01*
X178945000Y-40619000D01*
X180699000Y-40619000D01*
X180699000Y-40599000D01*
X181461000Y-40599000D01*
X181461000Y-40619000D01*
X183215000Y-40619000D01*
X183215000Y-39119000D01*
X182906680Y-38330973D01*
X182684657Y-38100000D01*
X185035924Y-38100000D01*
X184958934Y-38215223D01*
X184852560Y-38750000D01*
X184852560Y-43250000D01*
X184958934Y-43784777D01*
X185261861Y-44238139D01*
X185715223Y-44541066D01*
X186250000Y-44647440D01*
X187750000Y-44647440D01*
X188284777Y-44541066D01*
X188738139Y-44238139D01*
X189041066Y-43784777D01*
X189147440Y-43250000D01*
X189147440Y-38750000D01*
X189041066Y-38215223D01*
X188964076Y-38100000D01*
X190447708Y-38100000D01*
X190068874Y-38666965D01*
X189945000Y-39289722D01*
X189945000Y-42710279D01*
X190068875Y-43333036D01*
X190540752Y-44039249D01*
X191246965Y-44511126D01*
X192080000Y-44676827D01*
X192913036Y-44511126D01*
X193619249Y-44039249D01*
X194091126Y-43333036D01*
X194215000Y-42710279D01*
X194215000Y-39289721D01*
X194091126Y-38666964D01*
X193712292Y-38100000D01*
X195035924Y-38100000D01*
X194958934Y-38215223D01*
X194852560Y-38750000D01*
X194852560Y-43250000D01*
X194958934Y-43784777D01*
X195261861Y-44238139D01*
X195715223Y-44541066D01*
X196250000Y-44647440D01*
X197750000Y-44647440D01*
X198284777Y-44541066D01*
X198738139Y-44238139D01*
X199041066Y-43784777D01*
X199147440Y-43250000D01*
X199147440Y-38750000D01*
X199041066Y-38215223D01*
X198964076Y-38100000D01*
X200447708Y-38100000D01*
X200068874Y-38666965D01*
X199945000Y-39289722D01*
X199945000Y-42710279D01*
X200068875Y-43333036D01*
X200540752Y-44039249D01*
X201246965Y-44511126D01*
X202080000Y-44676827D01*
X202913036Y-44511126D01*
X203619249Y-44039249D01*
X204091126Y-43333036D01*
X204215000Y-42710279D01*
X204215000Y-39289721D01*
X204091126Y-38666964D01*
X203712292Y-38100000D01*
X205035924Y-38100000D01*
X204958934Y-38215223D01*
X204852560Y-38750000D01*
X204852560Y-43250000D01*
X204958934Y-43784777D01*
X205261861Y-44238139D01*
X205715223Y-44541066D01*
X206250000Y-44647440D01*
X207750000Y-44647440D01*
X208284777Y-44541066D01*
X208738139Y-44238139D01*
X209041066Y-43784777D01*
X209147440Y-43250000D01*
X209147440Y-38750000D01*
X209041066Y-38215223D01*
X208964076Y-38100000D01*
X210447708Y-38100000D01*
X210068874Y-38666965D01*
X209945000Y-39289722D01*
X209945000Y-42710279D01*
X210068875Y-43333036D01*
X210540752Y-44039249D01*
X211246965Y-44511126D01*
X212080000Y-44676827D01*
X212913036Y-44511126D01*
X213619249Y-44039249D01*
X214091126Y-43333036D01*
X214215000Y-42710279D01*
X214215000Y-39289721D01*
X214091126Y-38666964D01*
X213712292Y-38100000D01*
X215035924Y-38100000D01*
X214958934Y-38215223D01*
X214852560Y-38750000D01*
X214852560Y-43250000D01*
X214958934Y-43784777D01*
X215261861Y-44238139D01*
X215715223Y-44541066D01*
X216250000Y-44647440D01*
X217750000Y-44647440D01*
X218284777Y-44541066D01*
X218738139Y-44238139D01*
X219041066Y-43784777D01*
X219147440Y-43250000D01*
X219147440Y-38750000D01*
X219041066Y-38215223D01*
X218964076Y-38100000D01*
X220447708Y-38100000D01*
X220068874Y-38666965D01*
X219945000Y-39289722D01*
X219945000Y-42710279D01*
X220068875Y-43333036D01*
X220540752Y-44039249D01*
X221246965Y-44511126D01*
X222080000Y-44676827D01*
X222913036Y-44511126D01*
X223619249Y-44039249D01*
X224091126Y-43333036D01*
X224215000Y-42710279D01*
X224215000Y-39289721D01*
X224091126Y-38666964D01*
X223712292Y-38100000D01*
X225035924Y-38100000D01*
X224958934Y-38215223D01*
X224852560Y-38750000D01*
X224852560Y-43250000D01*
X224958934Y-43784777D01*
X225261861Y-44238139D01*
X225715223Y-44541066D01*
X226250000Y-44647440D01*
X227750000Y-44647440D01*
X228284777Y-44541066D01*
X228738139Y-44238139D01*
X229041066Y-43784777D01*
X229147440Y-43250000D01*
X229147440Y-38750000D01*
X229041066Y-38215223D01*
X228964076Y-38100000D01*
X230447708Y-38100000D01*
X230068874Y-38666965D01*
X229945000Y-39289722D01*
X229945000Y-42710279D01*
X230068875Y-43333036D01*
X230540752Y-44039249D01*
X231246965Y-44511126D01*
X232080000Y-44676827D01*
X232913036Y-44511126D01*
X233619249Y-44039249D01*
X234091126Y-43333036D01*
X234215000Y-42710279D01*
X234215000Y-39289721D01*
X234091126Y-38666964D01*
X233712292Y-38100000D01*
X235035924Y-38100000D01*
X234958934Y-38215223D01*
X234852560Y-38750000D01*
X234852560Y-43250000D01*
X234958934Y-43784777D01*
X235261861Y-44238139D01*
X235715223Y-44541066D01*
X236250000Y-44647440D01*
X237750000Y-44647440D01*
X238284777Y-44541066D01*
X238738139Y-44238139D01*
X239041066Y-43784777D01*
X239147440Y-43250000D01*
X239147440Y-38750000D01*
X239041066Y-38215223D01*
X238964076Y-38100000D01*
X240447708Y-38100000D01*
X240068874Y-38666965D01*
X239945000Y-39289722D01*
X239945000Y-42710279D01*
X240068875Y-43333036D01*
X240540752Y-44039249D01*
X241246965Y-44511126D01*
X242080000Y-44676827D01*
X242913036Y-44511126D01*
X243619249Y-44039249D01*
X244091126Y-43333036D01*
X244215000Y-42710279D01*
X244215000Y-39289721D01*
X244091126Y-38666964D01*
X243712292Y-38100000D01*
X246035924Y-38100000D01*
X245958934Y-38215223D01*
X245852560Y-38750000D01*
X245852560Y-43250000D01*
X245958934Y-43784777D01*
X246261861Y-44238139D01*
X246715223Y-44541066D01*
X247250000Y-44647440D01*
X248750000Y-44647440D01*
X249284777Y-44541066D01*
X249738139Y-44238139D01*
X250041066Y-43784777D01*
X250147440Y-43250000D01*
X250147440Y-41381000D01*
X250945000Y-41381000D01*
X250945000Y-42881000D01*
X251253320Y-43669027D01*
X251839735Y-44279080D01*
X252375064Y-44515264D01*
X252699000Y-44439176D01*
X252699000Y-41381000D01*
X253461000Y-41381000D01*
X253461000Y-44439176D01*
X253784936Y-44515264D01*
X254320265Y-44279080D01*
X254906680Y-43669027D01*
X255215000Y-42881000D01*
X255215000Y-41381000D01*
X253461000Y-41381000D01*
X252699000Y-41381000D01*
X250945000Y-41381000D01*
X250147440Y-41381000D01*
X250147440Y-39119000D01*
X250945000Y-39119000D01*
X250945000Y-40619000D01*
X252699000Y-40619000D01*
X252699000Y-37560824D01*
X253461000Y-37560824D01*
X253461000Y-40619000D01*
X255215000Y-40619000D01*
X255215000Y-39119000D01*
X254994501Y-38555431D01*
X257765000Y-38555431D01*
X257765000Y-39444569D01*
X258105259Y-40266026D01*
X258733974Y-40894741D01*
X259555431Y-41235000D01*
X260444569Y-41235000D01*
X261266026Y-40894741D01*
X261894741Y-40266026D01*
X262235000Y-39444569D01*
X262235000Y-38555431D01*
X261894741Y-37733974D01*
X261266026Y-37105259D01*
X260444569Y-36765000D01*
X259555431Y-36765000D01*
X258733974Y-37105259D01*
X258105259Y-37733974D01*
X257765000Y-38555431D01*
X254994501Y-38555431D01*
X254906680Y-38330973D01*
X254320265Y-37720920D01*
X253784936Y-37484736D01*
X253461000Y-37560824D01*
X252699000Y-37560824D01*
X252375064Y-37484736D01*
X251839735Y-37720920D01*
X251253320Y-38330973D01*
X250945000Y-39119000D01*
X250147440Y-39119000D01*
X250147440Y-38750000D01*
X250041066Y-38215223D01*
X249738139Y-37761861D01*
X249284777Y-37458934D01*
X249221552Y-37446358D01*
X249196313Y-37319471D01*
X248915618Y-36899382D01*
X248809582Y-36828531D01*
X248001471Y-36020421D01*
X247930618Y-35914382D01*
X247736985Y-35785000D01*
X258965042Y-35785000D01*
X259745857Y-35854686D01*
X260468144Y-36052281D01*
X261144017Y-36374656D01*
X261752127Y-36811626D01*
X262273247Y-37349380D01*
X262690897Y-37970909D01*
X262991887Y-38656583D01*
X263168146Y-39390752D01*
X263215000Y-40028787D01*
X263215001Y-53965031D01*
X263145314Y-54745857D01*
X262947718Y-55468148D01*
X262625345Y-56144017D01*
X262188371Y-56752130D01*
X261650620Y-57273247D01*
X261029091Y-57690897D01*
X260343414Y-57991888D01*
X259609248Y-58168146D01*
X258971214Y-58215000D01*
X170034958Y-58215000D01*
X169254143Y-58145314D01*
X168531852Y-57947718D01*
X167855983Y-57625345D01*
X167247870Y-57188371D01*
X166726753Y-56650620D01*
X166395129Y-56157111D01*
X166986690Y-56157111D01*
X167133051Y-56528134D01*
X167645778Y-57049517D01*
X168319000Y-57335000D01*
X169619000Y-57335000D01*
X169619000Y-55881000D01*
X170381000Y-55881000D01*
X170381000Y-57335000D01*
X171681000Y-57335000D01*
X172354222Y-57049517D01*
X172866949Y-56528134D01*
X173013310Y-56157111D01*
X172932377Y-55881000D01*
X170381000Y-55881000D01*
X169619000Y-55881000D01*
X167067623Y-55881000D01*
X166986690Y-56157111D01*
X166395129Y-56157111D01*
X166309103Y-56029091D01*
X166008112Y-55343414D01*
X165831854Y-54609248D01*
X165785000Y-53971214D01*
X165785000Y-48500000D01*
X166829051Y-48500000D01*
X166971469Y-49215981D01*
X167377039Y-49822961D01*
X167984019Y-50228531D01*
X168091951Y-50250000D01*
X167984019Y-50271469D01*
X167377039Y-50677039D01*
X166971469Y-51284019D01*
X166829051Y-52000000D01*
X166971469Y-52715981D01*
X167377039Y-53322961D01*
X167984019Y-53728531D01*
X168110060Y-53753602D01*
X167645778Y-53950483D01*
X167133051Y-54471866D01*
X166986690Y-54842889D01*
X167067623Y-55119000D01*
X169619000Y-55119000D01*
X169619000Y-55099000D01*
X170381000Y-55099000D01*
X170381000Y-55119000D01*
X172932377Y-55119000D01*
X173013310Y-54842889D01*
X172899914Y-54555431D01*
X176765000Y-54555431D01*
X176765000Y-55444569D01*
X177105259Y-56266026D01*
X177733974Y-56894741D01*
X178555431Y-57235000D01*
X179444569Y-57235000D01*
X180266026Y-56894741D01*
X180894741Y-56266026D01*
X181235000Y-55444569D01*
X181235000Y-54555431D01*
X180894741Y-53733974D01*
X180612393Y-53451626D01*
X195180000Y-53451626D01*
X195180000Y-53863374D01*
X195337569Y-54243780D01*
X195628720Y-54534931D01*
X196009126Y-54692500D01*
X196420874Y-54692500D01*
X196801280Y-54534931D01*
X197092431Y-54243780D01*
X197250000Y-53863374D01*
X197250000Y-53732657D01*
X197810158Y-53172500D01*
X197835618Y-53172500D01*
X197720000Y-53451626D01*
X197720000Y-53863374D01*
X197877569Y-54243780D01*
X198168720Y-54534931D01*
X198549126Y-54692500D01*
X198960874Y-54692500D01*
X199341280Y-54534931D01*
X199433711Y-54442500D01*
X208202684Y-54442500D01*
X208279996Y-54457878D01*
X208357308Y-54442500D01*
X208357312Y-54442500D01*
X208586288Y-54396954D01*
X208845949Y-54223453D01*
X208889745Y-54157908D01*
X209625158Y-53422496D01*
X209755874Y-53422496D01*
X210136280Y-53264927D01*
X210184998Y-53216209D01*
X210233720Y-53264931D01*
X210614126Y-53422500D01*
X210744843Y-53422500D01*
X211480253Y-54157911D01*
X211524047Y-54223453D01*
X211589589Y-54267247D01*
X211589591Y-54267249D01*
X211664625Y-54317385D01*
X211783708Y-54396954D01*
X212012684Y-54442500D01*
X212012688Y-54442500D01*
X212089999Y-54457878D01*
X212167310Y-54442500D01*
X215856289Y-54442500D01*
X215948720Y-54534931D01*
X216329126Y-54692500D01*
X216740874Y-54692500D01*
X217121280Y-54534931D01*
X217412431Y-54243780D01*
X217570000Y-53863374D01*
X217570000Y-53451626D01*
X218040000Y-53451626D01*
X218040000Y-53863374D01*
X218197569Y-54243780D01*
X218488720Y-54534931D01*
X218869126Y-54692500D01*
X219280874Y-54692500D01*
X219661280Y-54534931D01*
X219753711Y-54442500D01*
X226935188Y-54442500D01*
X227012500Y-54457878D01*
X227089812Y-54442500D01*
X227089816Y-54442500D01*
X227318792Y-54396954D01*
X227578453Y-54223453D01*
X227622249Y-54157908D01*
X228357658Y-53422500D01*
X228488374Y-53422500D01*
X228868780Y-53264931D01*
X228917500Y-53216211D01*
X228966220Y-53264931D01*
X229346626Y-53422500D01*
X229477343Y-53422500D01*
X230212753Y-54157911D01*
X230256547Y-54223453D01*
X230322089Y-54267247D01*
X230322091Y-54267249D01*
X230397125Y-54317385D01*
X230516208Y-54396954D01*
X230745184Y-54442500D01*
X230745188Y-54442500D01*
X230822499Y-54457878D01*
X230899810Y-54442500D01*
X235541289Y-54442500D01*
X235633720Y-54534931D01*
X236014126Y-54692500D01*
X236425874Y-54692500D01*
X236806280Y-54534931D01*
X237097431Y-54243780D01*
X237255000Y-53863374D01*
X237255000Y-53451626D01*
X237139382Y-53172500D01*
X237164843Y-53172500D01*
X237725000Y-53732658D01*
X237725000Y-53863374D01*
X237882569Y-54243780D01*
X238173720Y-54534931D01*
X238554126Y-54692500D01*
X238965874Y-54692500D01*
X239296788Y-54555431D01*
X247765000Y-54555431D01*
X247765000Y-55444569D01*
X248105259Y-56266026D01*
X248733974Y-56894741D01*
X249555431Y-57235000D01*
X250444569Y-57235000D01*
X251266026Y-56894741D01*
X251894741Y-56266026D01*
X251939855Y-56157111D01*
X255986690Y-56157111D01*
X256133051Y-56528134D01*
X256645778Y-57049517D01*
X257319000Y-57335000D01*
X258619000Y-57335000D01*
X258619000Y-55881000D01*
X259381000Y-55881000D01*
X259381000Y-57335000D01*
X260681000Y-57335000D01*
X261354222Y-57049517D01*
X261866949Y-56528134D01*
X262013310Y-56157111D01*
X261932377Y-55881000D01*
X259381000Y-55881000D01*
X258619000Y-55881000D01*
X256067623Y-55881000D01*
X255986690Y-56157111D01*
X251939855Y-56157111D01*
X252235000Y-55444569D01*
X252235000Y-54555431D01*
X251894741Y-53733974D01*
X251266026Y-53105259D01*
X250444569Y-52765000D01*
X249555431Y-52765000D01*
X248733974Y-53105259D01*
X248105259Y-53733974D01*
X247765000Y-54555431D01*
X239296788Y-54555431D01*
X239346280Y-54534931D01*
X239637431Y-54243780D01*
X239795000Y-53863374D01*
X239795000Y-53451626D01*
X239637431Y-53071220D01*
X239346280Y-52780069D01*
X238965874Y-52622500D01*
X238835158Y-52622500D01*
X238099749Y-51887092D01*
X238055953Y-51821547D01*
X237796292Y-51648046D01*
X237567316Y-51602500D01*
X237567312Y-51602500D01*
X237490000Y-51587122D01*
X237412688Y-51602500D01*
X231501211Y-51602500D01*
X231408780Y-51510069D01*
X231028374Y-51352500D01*
X230616626Y-51352500D01*
X230236220Y-51510069D01*
X230187500Y-51558789D01*
X230138780Y-51510069D01*
X229758374Y-51352500D01*
X229346626Y-51352500D01*
X228966220Y-51510069D01*
X228917500Y-51558789D01*
X228868780Y-51510069D01*
X228488374Y-51352500D01*
X228076626Y-51352500D01*
X227696220Y-51510069D01*
X227405069Y-51801220D01*
X227247500Y-52181626D01*
X227247500Y-52312342D01*
X226687343Y-52872500D01*
X219753711Y-52872500D01*
X219661280Y-52780069D01*
X219280874Y-52622500D01*
X218869126Y-52622500D01*
X218488720Y-52780069D01*
X218197569Y-53071220D01*
X218040000Y-53451626D01*
X217570000Y-53451626D01*
X217412431Y-53071220D01*
X217121280Y-52780069D01*
X216740874Y-52622500D01*
X216329126Y-52622500D01*
X215948720Y-52780069D01*
X215856289Y-52872500D01*
X212415158Y-52872500D01*
X211855000Y-52312343D01*
X211855000Y-52181626D01*
X211697431Y-51801220D01*
X211406280Y-51510069D01*
X211025874Y-51352500D01*
X210614126Y-51352500D01*
X210233720Y-51510069D01*
X210185002Y-51558787D01*
X210136280Y-51510065D01*
X209755874Y-51352496D01*
X209344126Y-51352496D01*
X208963720Y-51510065D01*
X208914998Y-51558787D01*
X208866280Y-51510069D01*
X208485874Y-51352500D01*
X208074126Y-51352500D01*
X207693720Y-51510069D01*
X207601289Y-51602500D01*
X197562310Y-51602500D01*
X197484999Y-51587122D01*
X197407688Y-51602500D01*
X197407684Y-51602500D01*
X197178708Y-51648046D01*
X197134731Y-51677431D01*
X196984591Y-51777751D01*
X196984589Y-51777753D01*
X196919047Y-51821547D01*
X196875253Y-51887089D01*
X196139843Y-52622500D01*
X196009126Y-52622500D01*
X195628720Y-52780069D01*
X195337569Y-53071220D01*
X195180000Y-53451626D01*
X180612393Y-53451626D01*
X180266026Y-53105259D01*
X179444569Y-52765000D01*
X178555431Y-52765000D01*
X177733974Y-53105259D01*
X177105259Y-53733974D01*
X176765000Y-54555431D01*
X172899914Y-54555431D01*
X172866949Y-54471866D01*
X172354222Y-53950483D01*
X171889940Y-53753602D01*
X172015981Y-53728531D01*
X172622961Y-53322961D01*
X173028531Y-52715981D01*
X173170949Y-52000000D01*
X173028531Y-51284019D01*
X172622961Y-50677039D01*
X172015981Y-50271469D01*
X171908049Y-50250000D01*
X172015981Y-50228531D01*
X172622961Y-49822961D01*
X172982414Y-49285000D01*
X173269843Y-49285000D01*
X173380251Y-49395408D01*
X173424047Y-49460953D01*
X173683708Y-49634454D01*
X173912684Y-49680000D01*
X173912688Y-49680000D01*
X173989999Y-49695378D01*
X174067310Y-49680000D01*
X183189843Y-49680000D01*
X184385000Y-50875158D01*
X184385000Y-51005874D01*
X184542569Y-51386280D01*
X184833720Y-51677431D01*
X185214126Y-51835000D01*
X185625874Y-51835000D01*
X186006280Y-51677431D01*
X186297431Y-51386280D01*
X186455000Y-51005874D01*
X186455000Y-50594126D01*
X186454996Y-50594114D01*
X246615000Y-50594114D01*
X246615000Y-51005862D01*
X246772569Y-51386268D01*
X247063720Y-51677419D01*
X247444126Y-51834988D01*
X247855874Y-51834988D01*
X248236280Y-51677419D01*
X248527431Y-51386268D01*
X248685000Y-51005862D01*
X248685000Y-50875145D01*
X250275146Y-49285000D01*
X256017586Y-49285000D01*
X256377039Y-49822961D01*
X256984019Y-50228531D01*
X257091951Y-50250000D01*
X256984019Y-50271469D01*
X256377039Y-50677039D01*
X255971469Y-51284019D01*
X255829051Y-52000000D01*
X255971469Y-52715981D01*
X256377039Y-53322961D01*
X256984019Y-53728531D01*
X257110060Y-53753602D01*
X256645778Y-53950483D01*
X256133051Y-54471866D01*
X255986690Y-54842889D01*
X256067623Y-55119000D01*
X258619000Y-55119000D01*
X258619000Y-55099000D01*
X259381000Y-55099000D01*
X259381000Y-55119000D01*
X261932377Y-55119000D01*
X262013310Y-54842889D01*
X261866949Y-54471866D01*
X261354222Y-53950483D01*
X260889940Y-53753602D01*
X261015981Y-53728531D01*
X261622961Y-53322961D01*
X262028531Y-52715981D01*
X262170949Y-52000000D01*
X262028531Y-51284019D01*
X261622961Y-50677039D01*
X261015981Y-50271469D01*
X260908049Y-50250000D01*
X261015981Y-50228531D01*
X261622961Y-49822961D01*
X262028531Y-49215981D01*
X262170949Y-48500000D01*
X262028531Y-47784019D01*
X261622961Y-47177039D01*
X261076991Y-46812234D01*
X261377375Y-46752484D01*
X261782073Y-46482073D01*
X262052484Y-46077375D01*
X262147440Y-45600000D01*
X262147440Y-44400000D01*
X262052484Y-43922625D01*
X261782073Y-43517927D01*
X261377375Y-43247516D01*
X260900000Y-43152560D01*
X257100000Y-43152560D01*
X256622625Y-43247516D01*
X256217927Y-43517927D01*
X255947516Y-43922625D01*
X255852560Y-44400000D01*
X255852560Y-45600000D01*
X255947516Y-46077375D01*
X256217927Y-46482073D01*
X256622625Y-46752484D01*
X256923009Y-46812234D01*
X256377039Y-47177039D01*
X256017586Y-47715000D01*
X250027298Y-47715000D01*
X249949987Y-47699622D01*
X249872676Y-47715000D01*
X249872672Y-47715000D01*
X249643696Y-47760546D01*
X249599050Y-47790378D01*
X249449579Y-47890251D01*
X249449577Y-47890253D01*
X249384035Y-47934047D01*
X249340241Y-47999589D01*
X247574843Y-49764988D01*
X247444126Y-49764988D01*
X247063720Y-49922557D01*
X246772569Y-50213708D01*
X246615000Y-50594114D01*
X186454996Y-50594114D01*
X186297431Y-50213720D01*
X186006280Y-49922569D01*
X185625874Y-49765000D01*
X185495158Y-49765000D01*
X184124749Y-48394592D01*
X184080953Y-48329047D01*
X183821292Y-48155546D01*
X183592316Y-48110000D01*
X183592312Y-48110000D01*
X183515000Y-48094622D01*
X183437688Y-48110000D01*
X174315157Y-48110000D01*
X174204749Y-47999592D01*
X174160953Y-47934047D01*
X173901292Y-47760546D01*
X173672316Y-47715000D01*
X173672312Y-47715000D01*
X173595000Y-47699622D01*
X173517688Y-47715000D01*
X172982414Y-47715000D01*
X172622961Y-47177039D01*
X172076991Y-46812234D01*
X172377375Y-46752484D01*
X172782073Y-46482073D01*
X172872132Y-46347290D01*
X173380253Y-46855411D01*
X173424047Y-46920953D01*
X173489589Y-46964747D01*
X173489591Y-46964749D01*
X173616746Y-47049711D01*
X173683708Y-47094454D01*
X173912684Y-47140000D01*
X173912688Y-47140000D01*
X173989999Y-47155378D01*
X174067310Y-47140000D01*
X186290000Y-47140000D01*
X186290000Y-47195874D01*
X186447569Y-47576280D01*
X186738720Y-47867431D01*
X187119126Y-48025000D01*
X187530874Y-48025000D01*
X187911280Y-47867431D01*
X188202431Y-47576280D01*
X188360000Y-47195874D01*
X188360000Y-46784126D01*
X188202431Y-46403720D01*
X187911280Y-46112569D01*
X187530874Y-45955000D01*
X187400157Y-45955000D01*
X187299748Y-45854591D01*
X187255953Y-45789047D01*
X186996292Y-45615546D01*
X186767316Y-45570000D01*
X186767312Y-45570000D01*
X186690000Y-45554622D01*
X186612688Y-45570000D01*
X174315158Y-45570000D01*
X173244749Y-44499592D01*
X173200953Y-44434047D01*
X173147048Y-44398029D01*
X173052484Y-43922625D01*
X172782073Y-43517927D01*
X172377375Y-43247516D01*
X171900000Y-43152560D01*
X168100000Y-43152560D01*
X167622625Y-43247516D01*
X167217927Y-43517927D01*
X166947516Y-43922625D01*
X166852560Y-44400000D01*
X166852560Y-45600000D01*
X166947516Y-46077375D01*
X167217927Y-46482073D01*
X167622625Y-46752484D01*
X167923009Y-46812234D01*
X167377039Y-47177039D01*
X166971469Y-47784019D01*
X166829051Y-48500000D01*
X165785000Y-48500000D01*
X165785000Y-40034958D01*
X165854686Y-39254143D01*
X166045831Y-38555431D01*
X166765000Y-38555431D01*
X166765000Y-39444569D01*
X167105259Y-40266026D01*
X167733974Y-40894741D01*
X168555431Y-41235000D01*
X169444569Y-41235000D01*
X170266026Y-40894741D01*
X170894741Y-40266026D01*
X171235000Y-39444569D01*
X171235000Y-38555431D01*
X170894741Y-37733974D01*
X170266026Y-37105259D01*
X169444569Y-36765000D01*
X168555431Y-36765000D01*
X167733974Y-37105259D01*
X167105259Y-37733974D01*
X166765000Y-38555431D01*
X166045831Y-38555431D01*
X166052281Y-38531856D01*
X166374656Y-37855983D01*
X166811626Y-37247873D01*
X167349380Y-36726753D01*
X167970909Y-36309103D01*
X168656583Y-36008113D01*
X169390752Y-35831854D01*
X170028786Y-35785000D01*
X176348015Y-35785000D01*
X176269914Y-35837186D01*
X176269914Y-35837186D01*
G37*
X176269914Y-35837186D02*
X176154382Y-35914382D01*
X176083530Y-36020419D01*
X175190419Y-36913531D01*
X175084383Y-36984382D01*
X175013532Y-37090418D01*
X175013530Y-37090420D01*
X174803688Y-37404471D01*
X174796053Y-37442856D01*
X174715223Y-37458934D01*
X174261861Y-37761861D01*
X173958934Y-38215223D01*
X173852560Y-38750000D01*
X173852560Y-43250000D01*
X173958934Y-43784777D01*
X174261861Y-44238139D01*
X174715223Y-44541066D01*
X175250000Y-44647440D01*
X176750000Y-44647440D01*
X177284777Y-44541066D01*
X177738139Y-44238139D01*
X178041066Y-43784777D01*
X178147440Y-43250000D01*
X178147440Y-41381000D01*
X178945000Y-41381000D01*
X178945000Y-42881000D01*
X179253320Y-43669027D01*
X179839735Y-44279080D01*
X180375064Y-44515264D01*
X180699000Y-44439176D01*
X180699000Y-41381000D01*
X181461000Y-41381000D01*
X181461000Y-44439176D01*
X181784936Y-44515264D01*
X182320265Y-44279080D01*
X182906680Y-43669027D01*
X183215000Y-42881000D01*
X183215000Y-41381000D01*
X181461000Y-41381000D01*
X180699000Y-41381000D01*
X178945000Y-41381000D01*
X178147440Y-41381000D01*
X178147440Y-38750000D01*
X178041066Y-38215223D01*
X177964076Y-38100000D01*
X179475343Y-38100000D01*
X179253320Y-38330973D01*
X178945000Y-39119000D01*
X178945000Y-40619000D01*
X180699000Y-40619000D01*
X180699000Y-40599000D01*
X181461000Y-40599000D01*
X181461000Y-40619000D01*
X183215000Y-40619000D01*
X183215000Y-39119000D01*
X182906680Y-38330973D01*
X182684657Y-38100000D01*
X185035924Y-38100000D01*
X184958934Y-38215223D01*
X184852560Y-38750000D01*
X184852560Y-43250000D01*
X184958934Y-43784777D01*
X185261861Y-44238139D01*
X185715223Y-44541066D01*
X186250000Y-44647440D01*
X187750000Y-44647440D01*
X188284777Y-44541066D01*
X188738139Y-44238139D01*
X189041066Y-43784777D01*
X189147440Y-43250000D01*
X189147440Y-38750000D01*
X189041066Y-38215223D01*
X188964076Y-38100000D01*
X190447708Y-38100000D01*
X190068874Y-38666965D01*
X189945000Y-39289722D01*
X189945000Y-42710279D01*
X190068875Y-43333036D01*
X190540752Y-44039249D01*
X191246965Y-44511126D01*
X192080000Y-44676827D01*
X192913036Y-44511126D01*
X193619249Y-44039249D01*
X194091126Y-43333036D01*
X194215000Y-42710279D01*
X194215000Y-39289721D01*
X194091126Y-38666964D01*
X193712292Y-38100000D01*
X195035924Y-38100000D01*
X194958934Y-38215223D01*
X194852560Y-38750000D01*
X194852560Y-43250000D01*
X194958934Y-43784777D01*
X195261861Y-44238139D01*
X195715223Y-44541066D01*
X196250000Y-44647440D01*
X197750000Y-44647440D01*
X198284777Y-44541066D01*
X198738139Y-44238139D01*
X199041066Y-43784777D01*
X199147440Y-43250000D01*
X199147440Y-38750000D01*
X199041066Y-38215223D01*
X198964076Y-38100000D01*
X200447708Y-38100000D01*
X200068874Y-38666965D01*
X199945000Y-39289722D01*
X199945000Y-42710279D01*
X200068875Y-43333036D01*
X200540752Y-44039249D01*
X201246965Y-44511126D01*
X202080000Y-44676827D01*
X202913036Y-44511126D01*
X203619249Y-44039249D01*
X204091126Y-43333036D01*
X204215000Y-42710279D01*
X204215000Y-39289721D01*
X204091126Y-38666964D01*
X203712292Y-38100000D01*
X205035924Y-38100000D01*
X204958934Y-38215223D01*
X204852560Y-38750000D01*
X204852560Y-43250000D01*
X204958934Y-43784777D01*
X205261861Y-44238139D01*
X205715223Y-44541066D01*
X206250000Y-44647440D01*
X207750000Y-44647440D01*
X208284777Y-44541066D01*
X208738139Y-44238139D01*
X209041066Y-43784777D01*
X209147440Y-43250000D01*
X209147440Y-38750000D01*
X209041066Y-38215223D01*
X208964076Y-38100000D01*
X210447708Y-38100000D01*
X210068874Y-38666965D01*
X209945000Y-39289722D01*
X209945000Y-42710279D01*
X210068875Y-43333036D01*
X210540752Y-44039249D01*
X211246965Y-44511126D01*
X212080000Y-44676827D01*
X212913036Y-44511126D01*
X213619249Y-44039249D01*
X214091126Y-43333036D01*
X214215000Y-42710279D01*
X214215000Y-39289721D01*
X214091126Y-38666964D01*
X213712292Y-38100000D01*
X215035924Y-38100000D01*
X214958934Y-38215223D01*
X214852560Y-38750000D01*
X214852560Y-43250000D01*
X214958934Y-43784777D01*
X215261861Y-44238139D01*
X215715223Y-44541066D01*
X216250000Y-44647440D01*
X217750000Y-44647440D01*
X218284777Y-44541066D01*
X218738139Y-44238139D01*
X219041066Y-43784777D01*
X219147440Y-43250000D01*
X219147440Y-38750000D01*
X219041066Y-38215223D01*
X218964076Y-38100000D01*
X220447708Y-38100000D01*
X220068874Y-38666965D01*
X219945000Y-39289722D01*
X219945000Y-42710279D01*
X220068875Y-43333036D01*
X220540752Y-44039249D01*
X221246965Y-44511126D01*
X222080000Y-44676827D01*
X222913036Y-44511126D01*
X223619249Y-44039249D01*
X224091126Y-43333036D01*
X224215000Y-42710279D01*
X224215000Y-39289721D01*
X224091126Y-38666964D01*
X223712292Y-38100000D01*
X225035924Y-38100000D01*
X224958934Y-38215223D01*
X224852560Y-38750000D01*
X224852560Y-43250000D01*
X224958934Y-43784777D01*
X225261861Y-44238139D01*
X225715223Y-44541066D01*
X226250000Y-44647440D01*
X227750000Y-44647440D01*
X228284777Y-44541066D01*
X228738139Y-44238139D01*
X229041066Y-43784777D01*
X229147440Y-43250000D01*
X229147440Y-38750000D01*
X229041066Y-38215223D01*
X228964076Y-38100000D01*
X230447708Y-38100000D01*
X230068874Y-38666965D01*
X229945000Y-39289722D01*
X229945000Y-42710279D01*
X230068875Y-43333036D01*
X230540752Y-44039249D01*
X231246965Y-44511126D01*
X232080000Y-44676827D01*
X232913036Y-44511126D01*
X233619249Y-44039249D01*
X234091126Y-43333036D01*
X234215000Y-42710279D01*
X234215000Y-39289721D01*
X234091126Y-38666964D01*
X233712292Y-38100000D01*
X235035924Y-38100000D01*
X234958934Y-38215223D01*
X234852560Y-38750000D01*
X234852560Y-43250000D01*
X234958934Y-43784777D01*
X235261861Y-44238139D01*
X235715223Y-44541066D01*
X236250000Y-44647440D01*
X237750000Y-44647440D01*
X238284777Y-44541066D01*
X238738139Y-44238139D01*
X239041066Y-43784777D01*
X239147440Y-43250000D01*
X239147440Y-38750000D01*
X239041066Y-38215223D01*
X238964076Y-38100000D01*
X240447708Y-38100000D01*
X240068874Y-38666965D01*
X239945000Y-39289722D01*
X239945000Y-42710279D01*
X240068875Y-43333036D01*
X240540752Y-44039249D01*
X241246965Y-44511126D01*
X242080000Y-44676827D01*
X242913036Y-44511126D01*
X243619249Y-44039249D01*
X244091126Y-43333036D01*
X244215000Y-42710279D01*
X244215000Y-39289721D01*
X244091126Y-38666964D01*
X243712292Y-38100000D01*
X246035924Y-38100000D01*
X245958934Y-38215223D01*
X245852560Y-38750000D01*
X245852560Y-43250000D01*
X245958934Y-43784777D01*
X246261861Y-44238139D01*
X246715223Y-44541066D01*
X247250000Y-44647440D01*
X248750000Y-44647440D01*
X249284777Y-44541066D01*
X249738139Y-44238139D01*
X250041066Y-43784777D01*
X250147440Y-43250000D01*
X250147440Y-41381000D01*
X250945000Y-41381000D01*
X250945000Y-42881000D01*
X251253320Y-43669027D01*
X251839735Y-44279080D01*
X252375064Y-44515264D01*
X252699000Y-44439176D01*
X252699000Y-41381000D01*
X253461000Y-41381000D01*
X253461000Y-44439176D01*
X253784936Y-44515264D01*
X254320265Y-44279080D01*
X254906680Y-43669027D01*
X255215000Y-42881000D01*
X255215000Y-41381000D01*
X253461000Y-41381000D01*
X252699000Y-41381000D01*
X250945000Y-41381000D01*
X250147440Y-41381000D01*
X250147440Y-39119000D01*
X250945000Y-39119000D01*
X250945000Y-40619000D01*
X252699000Y-40619000D01*
X252699000Y-37560824D01*
X253461000Y-37560824D01*
X253461000Y-40619000D01*
X255215000Y-40619000D01*
X255215000Y-39119000D01*
X254994501Y-38555431D01*
X257765000Y-38555431D01*
X257765000Y-39444569D01*
X258105259Y-40266026D01*
X258733974Y-40894741D01*
X259555431Y-41235000D01*
X260444569Y-41235000D01*
X261266026Y-40894741D01*
X261894741Y-40266026D01*
X262235000Y-39444569D01*
X262235000Y-38555431D01*
X261894741Y-37733974D01*
X261266026Y-37105259D01*
X260444569Y-36765000D01*
X259555431Y-36765000D01*
X258733974Y-37105259D01*
X258105259Y-37733974D01*
X257765000Y-38555431D01*
X254994501Y-38555431D01*
X254906680Y-38330973D01*
X254320265Y-37720920D01*
X253784936Y-37484736D01*
X253461000Y-37560824D01*
X252699000Y-37560824D01*
X252375064Y-37484736D01*
X251839735Y-37720920D01*
X251253320Y-38330973D01*
X250945000Y-39119000D01*
X250147440Y-39119000D01*
X250147440Y-38750000D01*
X250041066Y-38215223D01*
X249738139Y-37761861D01*
X249284777Y-37458934D01*
X249221552Y-37446358D01*
X249196313Y-37319471D01*
X248915618Y-36899382D01*
X248809582Y-36828531D01*
X248001471Y-36020421D01*
X247930618Y-35914382D01*
X247736985Y-35785000D01*
X258965042Y-35785000D01*
X259745857Y-35854686D01*
X260468144Y-36052281D01*
X261144017Y-36374656D01*
X261752127Y-36811626D01*
X262273247Y-37349380D01*
X262690897Y-37970909D01*
X262991887Y-38656583D01*
X263168146Y-39390752D01*
X263215000Y-40028787D01*
X263215001Y-53965031D01*
X263145314Y-54745857D01*
X262947718Y-55468148D01*
X262625345Y-56144017D01*
X262188371Y-56752130D01*
X261650620Y-57273247D01*
X261029091Y-57690897D01*
X260343414Y-57991888D01*
X259609248Y-58168146D01*
X258971214Y-58215000D01*
X170034958Y-58215000D01*
X169254143Y-58145314D01*
X168531852Y-57947718D01*
X167855983Y-57625345D01*
X167247870Y-57188371D01*
X166726753Y-56650620D01*
X166395129Y-56157111D01*
X166986690Y-56157111D01*
X167133051Y-56528134D01*
X167645778Y-57049517D01*
X168319000Y-57335000D01*
X169619000Y-57335000D01*
X169619000Y-55881000D01*
X170381000Y-55881000D01*
X170381000Y-57335000D01*
X171681000Y-57335000D01*
X172354222Y-57049517D01*
X172866949Y-56528134D01*
X173013310Y-56157111D01*
X172932377Y-55881000D01*
X170381000Y-55881000D01*
X169619000Y-55881000D01*
X167067623Y-55881000D01*
X166986690Y-56157111D01*
X166395129Y-56157111D01*
X166309103Y-56029091D01*
X166008112Y-55343414D01*
X165831854Y-54609248D01*
X165785000Y-53971214D01*
X165785000Y-48500000D01*
X166829051Y-48500000D01*
X166971469Y-49215981D01*
X167377039Y-49822961D01*
X167984019Y-50228531D01*
X168091951Y-50250000D01*
X167984019Y-50271469D01*
X167377039Y-50677039D01*
X166971469Y-51284019D01*
X166829051Y-52000000D01*
X166971469Y-52715981D01*
X167377039Y-53322961D01*
X167984019Y-53728531D01*
X168110060Y-53753602D01*
X167645778Y-53950483D01*
X167133051Y-54471866D01*
X166986690Y-54842889D01*
X167067623Y-55119000D01*
X169619000Y-55119000D01*
X169619000Y-55099000D01*
X170381000Y-55099000D01*
X170381000Y-55119000D01*
X172932377Y-55119000D01*
X173013310Y-54842889D01*
X172899914Y-54555431D01*
X176765000Y-54555431D01*
X176765000Y-55444569D01*
X177105259Y-56266026D01*
X177733974Y-56894741D01*
X178555431Y-57235000D01*
X179444569Y-57235000D01*
X180266026Y-56894741D01*
X180894741Y-56266026D01*
X181235000Y-55444569D01*
X181235000Y-54555431D01*
X180894741Y-53733974D01*
X180612393Y-53451626D01*
X195180000Y-53451626D01*
X195180000Y-53863374D01*
X195337569Y-54243780D01*
X195628720Y-54534931D01*
X196009126Y-54692500D01*
X196420874Y-54692500D01*
X196801280Y-54534931D01*
X197092431Y-54243780D01*
X197250000Y-53863374D01*
X197250000Y-53732657D01*
X197810158Y-53172500D01*
X197835618Y-53172500D01*
X197720000Y-53451626D01*
X197720000Y-53863374D01*
X197877569Y-54243780D01*
X198168720Y-54534931D01*
X198549126Y-54692500D01*
X198960874Y-54692500D01*
X199341280Y-54534931D01*
X199433711Y-54442500D01*
X208202684Y-54442500D01*
X208279996Y-54457878D01*
X208357308Y-54442500D01*
X208357312Y-54442500D01*
X208586288Y-54396954D01*
X208845949Y-54223453D01*
X208889745Y-54157908D01*
X209625158Y-53422496D01*
X209755874Y-53422496D01*
X210136280Y-53264927D01*
X210184998Y-53216209D01*
X210233720Y-53264931D01*
X210614126Y-53422500D01*
X210744843Y-53422500D01*
X211480253Y-54157911D01*
X211524047Y-54223453D01*
X211589589Y-54267247D01*
X211589591Y-54267249D01*
X211664625Y-54317385D01*
X211783708Y-54396954D01*
X212012684Y-54442500D01*
X212012688Y-54442500D01*
X212089999Y-54457878D01*
X212167310Y-54442500D01*
X215856289Y-54442500D01*
X215948720Y-54534931D01*
X216329126Y-54692500D01*
X216740874Y-54692500D01*
X217121280Y-54534931D01*
X217412431Y-54243780D01*
X217570000Y-53863374D01*
X217570000Y-53451626D01*
X218040000Y-53451626D01*
X218040000Y-53863374D01*
X218197569Y-54243780D01*
X218488720Y-54534931D01*
X218869126Y-54692500D01*
X219280874Y-54692500D01*
X219661280Y-54534931D01*
X219753711Y-54442500D01*
X226935188Y-54442500D01*
X227012500Y-54457878D01*
X227089812Y-54442500D01*
X227089816Y-54442500D01*
X227318792Y-54396954D01*
X227578453Y-54223453D01*
X227622249Y-54157908D01*
X228357658Y-53422500D01*
X228488374Y-53422500D01*
X228868780Y-53264931D01*
X228917500Y-53216211D01*
X228966220Y-53264931D01*
X229346626Y-53422500D01*
X229477343Y-53422500D01*
X230212753Y-54157911D01*
X230256547Y-54223453D01*
X230322089Y-54267247D01*
X230322091Y-54267249D01*
X230397125Y-54317385D01*
X230516208Y-54396954D01*
X230745184Y-54442500D01*
X230745188Y-54442500D01*
X230822499Y-54457878D01*
X230899810Y-54442500D01*
X235541289Y-54442500D01*
X235633720Y-54534931D01*
X236014126Y-54692500D01*
X236425874Y-54692500D01*
X236806280Y-54534931D01*
X237097431Y-54243780D01*
X237255000Y-53863374D01*
X237255000Y-53451626D01*
X237139382Y-53172500D01*
X237164843Y-53172500D01*
X237725000Y-53732658D01*
X237725000Y-53863374D01*
X237882569Y-54243780D01*
X238173720Y-54534931D01*
X238554126Y-54692500D01*
X238965874Y-54692500D01*
X239296788Y-54555431D01*
X247765000Y-54555431D01*
X247765000Y-55444569D01*
X248105259Y-56266026D01*
X248733974Y-56894741D01*
X249555431Y-57235000D01*
X250444569Y-57235000D01*
X251266026Y-56894741D01*
X251894741Y-56266026D01*
X251939855Y-56157111D01*
X255986690Y-56157111D01*
X256133051Y-56528134D01*
X256645778Y-57049517D01*
X257319000Y-57335000D01*
X258619000Y-57335000D01*
X258619000Y-55881000D01*
X259381000Y-55881000D01*
X259381000Y-57335000D01*
X260681000Y-57335000D01*
X261354222Y-57049517D01*
X261866949Y-56528134D01*
X262013310Y-56157111D01*
X261932377Y-55881000D01*
X259381000Y-55881000D01*
X258619000Y-55881000D01*
X256067623Y-55881000D01*
X255986690Y-56157111D01*
X251939855Y-56157111D01*
X252235000Y-55444569D01*
X252235000Y-54555431D01*
X251894741Y-53733974D01*
X251266026Y-53105259D01*
X250444569Y-52765000D01*
X249555431Y-52765000D01*
X248733974Y-53105259D01*
X248105259Y-53733974D01*
X247765000Y-54555431D01*
X239296788Y-54555431D01*
X239346280Y-54534931D01*
X239637431Y-54243780D01*
X239795000Y-53863374D01*
X239795000Y-53451626D01*
X239637431Y-53071220D01*
X239346280Y-52780069D01*
X238965874Y-52622500D01*
X238835158Y-52622500D01*
X238099749Y-51887092D01*
X238055953Y-51821547D01*
X237796292Y-51648046D01*
X237567316Y-51602500D01*
X237567312Y-51602500D01*
X237490000Y-51587122D01*
X237412688Y-51602500D01*
X231501211Y-51602500D01*
X231408780Y-51510069D01*
X231028374Y-51352500D01*
X230616626Y-51352500D01*
X230236220Y-51510069D01*
X230187500Y-51558789D01*
X230138780Y-51510069D01*
X229758374Y-51352500D01*
X229346626Y-51352500D01*
X228966220Y-51510069D01*
X228917500Y-51558789D01*
X228868780Y-51510069D01*
X228488374Y-51352500D01*
X228076626Y-51352500D01*
X227696220Y-51510069D01*
X227405069Y-51801220D01*
X227247500Y-52181626D01*
X227247500Y-52312342D01*
X226687343Y-52872500D01*
X219753711Y-52872500D01*
X219661280Y-52780069D01*
X219280874Y-52622500D01*
X218869126Y-52622500D01*
X218488720Y-52780069D01*
X218197569Y-53071220D01*
X218040000Y-53451626D01*
X217570000Y-53451626D01*
X217412431Y-53071220D01*
X217121280Y-52780069D01*
X216740874Y-52622500D01*
X216329126Y-52622500D01*
X215948720Y-52780069D01*
X215856289Y-52872500D01*
X212415158Y-52872500D01*
X211855000Y-52312343D01*
X211855000Y-52181626D01*
X211697431Y-51801220D01*
X211406280Y-51510069D01*
X211025874Y-51352500D01*
X210614126Y-51352500D01*
X210233720Y-51510069D01*
X210185002Y-51558787D01*
X210136280Y-51510065D01*
X209755874Y-51352496D01*
X209344126Y-51352496D01*
X208963720Y-51510065D01*
X208914998Y-51558787D01*
X208866280Y-51510069D01*
X208485874Y-51352500D01*
X208074126Y-51352500D01*
X207693720Y-51510069D01*
X207601289Y-51602500D01*
X197562310Y-51602500D01*
X197484999Y-51587122D01*
X197407688Y-51602500D01*
X197407684Y-51602500D01*
X197178708Y-51648046D01*
X197134731Y-51677431D01*
X196984591Y-51777751D01*
X196984589Y-51777753D01*
X196919047Y-51821547D01*
X196875253Y-51887089D01*
X196139843Y-52622500D01*
X196009126Y-52622500D01*
X195628720Y-52780069D01*
X195337569Y-53071220D01*
X195180000Y-53451626D01*
X180612393Y-53451626D01*
X180266026Y-53105259D01*
X179444569Y-52765000D01*
X178555431Y-52765000D01*
X177733974Y-53105259D01*
X177105259Y-53733974D01*
X176765000Y-54555431D01*
X172899914Y-54555431D01*
X172866949Y-54471866D01*
X172354222Y-53950483D01*
X171889940Y-53753602D01*
X172015981Y-53728531D01*
X172622961Y-53322961D01*
X173028531Y-52715981D01*
X173170949Y-52000000D01*
X173028531Y-51284019D01*
X172622961Y-50677039D01*
X172015981Y-50271469D01*
X171908049Y-50250000D01*
X172015981Y-50228531D01*
X172622961Y-49822961D01*
X172982414Y-49285000D01*
X173269843Y-49285000D01*
X173380251Y-49395408D01*
X173424047Y-49460953D01*
X173683708Y-49634454D01*
X173912684Y-49680000D01*
X173912688Y-49680000D01*
X173989999Y-49695378D01*
X174067310Y-49680000D01*
X183189843Y-49680000D01*
X184385000Y-50875158D01*
X184385000Y-51005874D01*
X184542569Y-51386280D01*
X184833720Y-51677431D01*
X185214126Y-51835000D01*
X185625874Y-51835000D01*
X186006280Y-51677431D01*
X186297431Y-51386280D01*
X186455000Y-51005874D01*
X186455000Y-50594126D01*
X186454996Y-50594114D01*
X246615000Y-50594114D01*
X246615000Y-51005862D01*
X246772569Y-51386268D01*
X247063720Y-51677419D01*
X247444126Y-51834988D01*
X247855874Y-51834988D01*
X248236280Y-51677419D01*
X248527431Y-51386268D01*
X248685000Y-51005862D01*
X248685000Y-50875145D01*
X250275146Y-49285000D01*
X256017586Y-49285000D01*
X256377039Y-49822961D01*
X256984019Y-50228531D01*
X257091951Y-50250000D01*
X256984019Y-50271469D01*
X256377039Y-50677039D01*
X255971469Y-51284019D01*
X255829051Y-52000000D01*
X255971469Y-52715981D01*
X256377039Y-53322961D01*
X256984019Y-53728531D01*
X257110060Y-53753602D01*
X256645778Y-53950483D01*
X256133051Y-54471866D01*
X255986690Y-54842889D01*
X256067623Y-55119000D01*
X258619000Y-55119000D01*
X258619000Y-55099000D01*
X259381000Y-55099000D01*
X259381000Y-55119000D01*
X261932377Y-55119000D01*
X262013310Y-54842889D01*
X261866949Y-54471866D01*
X261354222Y-53950483D01*
X260889940Y-53753602D01*
X261015981Y-53728531D01*
X261622961Y-53322961D01*
X262028531Y-52715981D01*
X262170949Y-52000000D01*
X262028531Y-51284019D01*
X261622961Y-50677039D01*
X261015981Y-50271469D01*
X260908049Y-50250000D01*
X261015981Y-50228531D01*
X261622961Y-49822961D01*
X262028531Y-49215981D01*
X262170949Y-48500000D01*
X262028531Y-47784019D01*
X261622961Y-47177039D01*
X261076991Y-46812234D01*
X261377375Y-46752484D01*
X261782073Y-46482073D01*
X262052484Y-46077375D01*
X262147440Y-45600000D01*
X262147440Y-44400000D01*
X262052484Y-43922625D01*
X261782073Y-43517927D01*
X261377375Y-43247516D01*
X260900000Y-43152560D01*
X257100000Y-43152560D01*
X256622625Y-43247516D01*
X256217927Y-43517927D01*
X255947516Y-43922625D01*
X255852560Y-44400000D01*
X255852560Y-45600000D01*
X255947516Y-46077375D01*
X256217927Y-46482073D01*
X256622625Y-46752484D01*
X256923009Y-46812234D01*
X256377039Y-47177039D01*
X256017586Y-47715000D01*
X250027298Y-47715000D01*
X249949987Y-47699622D01*
X249872676Y-47715000D01*
X249872672Y-47715000D01*
X249643696Y-47760546D01*
X249599050Y-47790378D01*
X249449579Y-47890251D01*
X249449577Y-47890253D01*
X249384035Y-47934047D01*
X249340241Y-47999589D01*
X247574843Y-49764988D01*
X247444126Y-49764988D01*
X247063720Y-49922557D01*
X246772569Y-50213708D01*
X246615000Y-50594114D01*
X186454996Y-50594114D01*
X186297431Y-50213720D01*
X186006280Y-49922569D01*
X185625874Y-49765000D01*
X185495158Y-49765000D01*
X184124749Y-48394592D01*
X184080953Y-48329047D01*
X183821292Y-48155546D01*
X183592316Y-48110000D01*
X183592312Y-48110000D01*
X183515000Y-48094622D01*
X183437688Y-48110000D01*
X174315157Y-48110000D01*
X174204749Y-47999592D01*
X174160953Y-47934047D01*
X173901292Y-47760546D01*
X173672316Y-47715000D01*
X173672312Y-47715000D01*
X173595000Y-47699622D01*
X173517688Y-47715000D01*
X172982414Y-47715000D01*
X172622961Y-47177039D01*
X172076991Y-46812234D01*
X172377375Y-46752484D01*
X172782073Y-46482073D01*
X172872132Y-46347290D01*
X173380253Y-46855411D01*
X173424047Y-46920953D01*
X173489589Y-46964747D01*
X173489591Y-46964749D01*
X173616746Y-47049711D01*
X173683708Y-47094454D01*
X173912684Y-47140000D01*
X173912688Y-47140000D01*
X173989999Y-47155378D01*
X174067310Y-47140000D01*
X186290000Y-47140000D01*
X186290000Y-47195874D01*
X186447569Y-47576280D01*
X186738720Y-47867431D01*
X187119126Y-48025000D01*
X187530874Y-48025000D01*
X187911280Y-47867431D01*
X188202431Y-47576280D01*
X188360000Y-47195874D01*
X188360000Y-46784126D01*
X188202431Y-46403720D01*
X187911280Y-46112569D01*
X187530874Y-45955000D01*
X187400157Y-45955000D01*
X187299748Y-45854591D01*
X187255953Y-45789047D01*
X186996292Y-45615546D01*
X186767316Y-45570000D01*
X186767312Y-45570000D01*
X186690000Y-45554622D01*
X186612688Y-45570000D01*
X174315158Y-45570000D01*
X173244749Y-44499592D01*
X173200953Y-44434047D01*
X173147048Y-44398029D01*
X173052484Y-43922625D01*
X172782073Y-43517927D01*
X172377375Y-43247516D01*
X171900000Y-43152560D01*
X168100000Y-43152560D01*
X167622625Y-43247516D01*
X167217927Y-43517927D01*
X166947516Y-43922625D01*
X166852560Y-44400000D01*
X166852560Y-45600000D01*
X166947516Y-46077375D01*
X167217927Y-46482073D01*
X167622625Y-46752484D01*
X167923009Y-46812234D01*
X167377039Y-47177039D01*
X166971469Y-47784019D01*
X166829051Y-48500000D01*
X165785000Y-48500000D01*
X165785000Y-40034958D01*
X165854686Y-39254143D01*
X166045831Y-38555431D01*
X166765000Y-38555431D01*
X166765000Y-39444569D01*
X167105259Y-40266026D01*
X167733974Y-40894741D01*
X168555431Y-41235000D01*
X169444569Y-41235000D01*
X170266026Y-40894741D01*
X170894741Y-40266026D01*
X171235000Y-39444569D01*
X171235000Y-38555431D01*
X170894741Y-37733974D01*
X170266026Y-37105259D01*
X169444569Y-36765000D01*
X168555431Y-36765000D01*
X167733974Y-37105259D01*
X167105259Y-37733974D01*
X166765000Y-38555431D01*
X166045831Y-38555431D01*
X166052281Y-38531856D01*
X166374656Y-37855983D01*
X166811626Y-37247873D01*
X167349380Y-36726753D01*
X167970909Y-36309103D01*
X168656583Y-36008113D01*
X169390752Y-35831854D01*
X170028786Y-35785000D01*
X176348015Y-35785000D01*
X176269914Y-35837186D01*
G04 #@! TD*
M02*
