G04 #@! TF.GenerationSoftware,KiCad,Pcbnew,(5.0.1-3-g963ef8bb5)*
G04 #@! TF.CreationDate,2020-01-09T21:08:13+01:00*
G04 #@! TF.ProjectId,WS2801_ledmodule_rev2,5753323830315F6C65646D6F64756C65,rev?*
G04 #@! TF.SameCoordinates,Original*
G04 #@! TF.FileFunction,Legend,Top*
G04 #@! TF.FilePolarity,Positive*
%FSLAX46Y46*%
G04 Gerber Fmt 4.6, Leading zero omitted, Abs format (unit mm)*
G04 Created by KiCad (PCBNEW (5.0.1-3-g963ef8bb5)) date Thursday, 09 January 2020 at 21:08:13*
%MOMM*%
%LPD*%
G01*
G04 APERTURE LIST*
%ADD10C,0.150000*%
%ADD11C,0.250000*%
%ADD12C,0.120000*%
G04 APERTURE END LIST*
D10*
X182167857Y-56468928D02*
X182167857Y-56068928D01*
X182167857Y-56183214D02*
X182196428Y-56126071D01*
X182225000Y-56097500D01*
X182282142Y-56068928D01*
X182339285Y-56068928D01*
X182767857Y-56440357D02*
X182710714Y-56468928D01*
X182596428Y-56468928D01*
X182539285Y-56440357D01*
X182510714Y-56383214D01*
X182510714Y-56154642D01*
X182539285Y-56097500D01*
X182596428Y-56068928D01*
X182710714Y-56068928D01*
X182767857Y-56097500D01*
X182796428Y-56154642D01*
X182796428Y-56211785D01*
X182510714Y-56268928D01*
X182996428Y-56068928D02*
X183139285Y-56468928D01*
X183282142Y-56068928D01*
X183482142Y-55926071D02*
X183510714Y-55897500D01*
X183567857Y-55868928D01*
X183710714Y-55868928D01*
X183767857Y-55897500D01*
X183796428Y-55926071D01*
X183825000Y-55983214D01*
X183825000Y-56040357D01*
X183796428Y-56126071D01*
X183453571Y-56468928D01*
X183825000Y-56468928D01*
X184110714Y-56440357D02*
X184110714Y-56468928D01*
X184082142Y-56526071D01*
X184053571Y-56554642D01*
X184796428Y-55926071D02*
X184825000Y-55897500D01*
X184882142Y-55868928D01*
X185025000Y-55868928D01*
X185082142Y-55897500D01*
X185110714Y-55926071D01*
X185139285Y-55983214D01*
X185139285Y-56040357D01*
X185110714Y-56126071D01*
X184767857Y-56468928D01*
X185139285Y-56468928D01*
X185510714Y-55868928D02*
X185567857Y-55868928D01*
X185625000Y-55897500D01*
X185653571Y-55926071D01*
X185682142Y-55983214D01*
X185710714Y-56097500D01*
X185710714Y-56240357D01*
X185682142Y-56354642D01*
X185653571Y-56411785D01*
X185625000Y-56440357D01*
X185567857Y-56468928D01*
X185510714Y-56468928D01*
X185453571Y-56440357D01*
X185425000Y-56411785D01*
X185396428Y-56354642D01*
X185367857Y-56240357D01*
X185367857Y-56097500D01*
X185396428Y-55983214D01*
X185425000Y-55926071D01*
X185453571Y-55897500D01*
X185510714Y-55868928D01*
X185939285Y-55926071D02*
X185967857Y-55897500D01*
X186025000Y-55868928D01*
X186167857Y-55868928D01*
X186225000Y-55897500D01*
X186253571Y-55926071D01*
X186282142Y-55983214D01*
X186282142Y-56040357D01*
X186253571Y-56126071D01*
X185910714Y-56468928D01*
X186282142Y-56468928D01*
X186653571Y-55868928D02*
X186710714Y-55868928D01*
X186767857Y-55897500D01*
X186796428Y-55926071D01*
X186825000Y-55983214D01*
X186853571Y-56097500D01*
X186853571Y-56240357D01*
X186825000Y-56354642D01*
X186796428Y-56411785D01*
X186767857Y-56440357D01*
X186710714Y-56468928D01*
X186653571Y-56468928D01*
X186596428Y-56440357D01*
X186567857Y-56411785D01*
X186539285Y-56354642D01*
X186510714Y-56240357D01*
X186510714Y-56097500D01*
X186539285Y-55983214D01*
X186567857Y-55926071D01*
X186596428Y-55897500D01*
X186653571Y-55868928D01*
X187225000Y-55868928D02*
X187282142Y-55868928D01*
X187339285Y-55897500D01*
X187367857Y-55926071D01*
X187396428Y-55983214D01*
X187425000Y-56097500D01*
X187425000Y-56240357D01*
X187396428Y-56354642D01*
X187367857Y-56411785D01*
X187339285Y-56440357D01*
X187282142Y-56468928D01*
X187225000Y-56468928D01*
X187167857Y-56440357D01*
X187139285Y-56411785D01*
X187110714Y-56354642D01*
X187082142Y-56240357D01*
X187082142Y-56097500D01*
X187110714Y-55983214D01*
X187139285Y-55926071D01*
X187167857Y-55897500D01*
X187225000Y-55868928D01*
X187996428Y-56468928D02*
X187653571Y-56468928D01*
X187825000Y-56468928D02*
X187825000Y-55868928D01*
X187767857Y-55954642D01*
X187710714Y-56011785D01*
X187653571Y-56040357D01*
X188282142Y-56440357D02*
X188282142Y-56468928D01*
X188253571Y-56526071D01*
X188225000Y-56554642D01*
X189453571Y-56068928D02*
X188996428Y-56240357D01*
X189453571Y-56411785D01*
X189739285Y-56468928D02*
X189739285Y-56068928D01*
X189739285Y-56183214D02*
X189767857Y-56126071D01*
X189796428Y-56097500D01*
X189853571Y-56068928D01*
X189910714Y-56068928D01*
X190367857Y-56468928D02*
X190367857Y-56154642D01*
X190339285Y-56097500D01*
X190282142Y-56068928D01*
X190167857Y-56068928D01*
X190110714Y-56097500D01*
X190367857Y-56440357D02*
X190310714Y-56468928D01*
X190167857Y-56468928D01*
X190110714Y-56440357D01*
X190082142Y-56383214D01*
X190082142Y-56326071D01*
X190110714Y-56268928D01*
X190167857Y-56240357D01*
X190310714Y-56240357D01*
X190367857Y-56211785D01*
X190653571Y-56068928D02*
X190653571Y-56468928D01*
X190653571Y-56126071D02*
X190682142Y-56097500D01*
X190739285Y-56068928D01*
X190825000Y-56068928D01*
X190882142Y-56097500D01*
X190910714Y-56154642D01*
X190910714Y-56468928D01*
X191453571Y-56468928D02*
X191453571Y-55868928D01*
X191453571Y-56440357D02*
X191396428Y-56468928D01*
X191282142Y-56468928D01*
X191225000Y-56440357D01*
X191196428Y-56411785D01*
X191167857Y-56354642D01*
X191167857Y-56183214D01*
X191196428Y-56126071D01*
X191225000Y-56097500D01*
X191282142Y-56068928D01*
X191396428Y-56068928D01*
X191453571Y-56097500D01*
X191682142Y-56068928D02*
X191825000Y-56468928D01*
X191967857Y-56068928D02*
X191825000Y-56468928D01*
X191767857Y-56611785D01*
X191739285Y-56640357D01*
X191682142Y-56668928D01*
X192567857Y-56183214D02*
X192539285Y-56154642D01*
X192482142Y-56126071D01*
X192425000Y-56126071D01*
X192367857Y-56154642D01*
X192339285Y-56183214D01*
X192310714Y-56240357D01*
X192310714Y-56297500D01*
X192339285Y-56354642D01*
X192367857Y-56383214D01*
X192425000Y-56411785D01*
X192482142Y-56411785D01*
X192539285Y-56383214D01*
X192567857Y-56354642D01*
X192567857Y-56126071D02*
X192567857Y-56354642D01*
X192596428Y-56383214D01*
X192625000Y-56383214D01*
X192682142Y-56354642D01*
X192710714Y-56297500D01*
X192710714Y-56154642D01*
X192653571Y-56068928D01*
X192567857Y-56011785D01*
X192453571Y-55983214D01*
X192339285Y-56011785D01*
X192253571Y-56068928D01*
X192196428Y-56154642D01*
X192167857Y-56268928D01*
X192196428Y-56383214D01*
X192253571Y-56468928D01*
X192339285Y-56526071D01*
X192453571Y-56554642D01*
X192567857Y-56526071D01*
X192653571Y-56468928D01*
X192939285Y-56440357D02*
X192996428Y-56468928D01*
X193110714Y-56468928D01*
X193167857Y-56440357D01*
X193196428Y-56383214D01*
X193196428Y-56354642D01*
X193167857Y-56297500D01*
X193110714Y-56268928D01*
X193025000Y-56268928D01*
X192967857Y-56240357D01*
X192939285Y-56183214D01*
X192939285Y-56154642D01*
X192967857Y-56097500D01*
X193025000Y-56068928D01*
X193110714Y-56068928D01*
X193167857Y-56097500D01*
X193453571Y-56468928D02*
X193453571Y-56068928D01*
X193453571Y-56126071D02*
X193482142Y-56097500D01*
X193539285Y-56068928D01*
X193625000Y-56068928D01*
X193682142Y-56097500D01*
X193710714Y-56154642D01*
X193710714Y-56468928D01*
X193710714Y-56154642D02*
X193739285Y-56097500D01*
X193796428Y-56068928D01*
X193882142Y-56068928D01*
X193939285Y-56097500D01*
X193967857Y-56154642D01*
X193967857Y-56468928D01*
X194510714Y-56068928D02*
X194510714Y-56468928D01*
X194253571Y-56068928D02*
X194253571Y-56383214D01*
X194282142Y-56440357D01*
X194339285Y-56468928D01*
X194425000Y-56468928D01*
X194482142Y-56440357D01*
X194510714Y-56411785D01*
X195025000Y-56440357D02*
X194967857Y-56468928D01*
X194853571Y-56468928D01*
X194796428Y-56440357D01*
X194767857Y-56383214D01*
X194767857Y-56154642D01*
X194796428Y-56097500D01*
X194853571Y-56068928D01*
X194967857Y-56068928D01*
X195025000Y-56097500D01*
X195053571Y-56154642D01*
X195053571Y-56211785D01*
X194767857Y-56268928D01*
X195310714Y-56411785D02*
X195339285Y-56440357D01*
X195310714Y-56468928D01*
X195282142Y-56440357D01*
X195310714Y-56411785D01*
X195310714Y-56468928D01*
X195682142Y-56468928D02*
X195625000Y-56440357D01*
X195596428Y-56411785D01*
X195567857Y-56354642D01*
X195567857Y-56183214D01*
X195596428Y-56126071D01*
X195625000Y-56097500D01*
X195682142Y-56068928D01*
X195767857Y-56068928D01*
X195825000Y-56097500D01*
X195853571Y-56126071D01*
X195882142Y-56183214D01*
X195882142Y-56354642D01*
X195853571Y-56411785D01*
X195825000Y-56440357D01*
X195767857Y-56468928D01*
X195682142Y-56468928D01*
X196139285Y-56468928D02*
X196139285Y-56068928D01*
X196139285Y-56183214D02*
X196167857Y-56126071D01*
X196196428Y-56097500D01*
X196253571Y-56068928D01*
X196310714Y-56068928D01*
X196767857Y-56068928D02*
X196767857Y-56554642D01*
X196739285Y-56611785D01*
X196710714Y-56640357D01*
X196653571Y-56668928D01*
X196567857Y-56668928D01*
X196510714Y-56640357D01*
X196767857Y-56440357D02*
X196710714Y-56468928D01*
X196596428Y-56468928D01*
X196539285Y-56440357D01*
X196510714Y-56411785D01*
X196482142Y-56354642D01*
X196482142Y-56183214D01*
X196510714Y-56126071D01*
X196539285Y-56097500D01*
X196596428Y-56068928D01*
X196710714Y-56068928D01*
X196767857Y-56097500D01*
X197053571Y-56068928D02*
X197510714Y-56240357D01*
X197053571Y-56411785D01*
D11*
X182232857Y-54379880D02*
X182470952Y-55379880D01*
X182661428Y-54665595D01*
X182851904Y-55379880D01*
X183090000Y-54379880D01*
X183423333Y-55332261D02*
X183566190Y-55379880D01*
X183804285Y-55379880D01*
X183899523Y-55332261D01*
X183947142Y-55284642D01*
X183994761Y-55189404D01*
X183994761Y-55094166D01*
X183947142Y-54998928D01*
X183899523Y-54951309D01*
X183804285Y-54903690D01*
X183613809Y-54856071D01*
X183518571Y-54808452D01*
X183470952Y-54760833D01*
X183423333Y-54665595D01*
X183423333Y-54570357D01*
X183470952Y-54475119D01*
X183518571Y-54427500D01*
X183613809Y-54379880D01*
X183851904Y-54379880D01*
X183994761Y-54427500D01*
X184375714Y-54475119D02*
X184423333Y-54427500D01*
X184518571Y-54379880D01*
X184756666Y-54379880D01*
X184851904Y-54427500D01*
X184899523Y-54475119D01*
X184947142Y-54570357D01*
X184947142Y-54665595D01*
X184899523Y-54808452D01*
X184328095Y-55379880D01*
X184947142Y-55379880D01*
X185518571Y-54808452D02*
X185423333Y-54760833D01*
X185375714Y-54713214D01*
X185328095Y-54617976D01*
X185328095Y-54570357D01*
X185375714Y-54475119D01*
X185423333Y-54427500D01*
X185518571Y-54379880D01*
X185709047Y-54379880D01*
X185804285Y-54427500D01*
X185851904Y-54475119D01*
X185899523Y-54570357D01*
X185899523Y-54617976D01*
X185851904Y-54713214D01*
X185804285Y-54760833D01*
X185709047Y-54808452D01*
X185518571Y-54808452D01*
X185423333Y-54856071D01*
X185375714Y-54903690D01*
X185328095Y-54998928D01*
X185328095Y-55189404D01*
X185375714Y-55284642D01*
X185423333Y-55332261D01*
X185518571Y-55379880D01*
X185709047Y-55379880D01*
X185804285Y-55332261D01*
X185851904Y-55284642D01*
X185899523Y-55189404D01*
X185899523Y-54998928D01*
X185851904Y-54903690D01*
X185804285Y-54856071D01*
X185709047Y-54808452D01*
X186851904Y-55379880D02*
X186280476Y-55379880D01*
X186566190Y-55379880D02*
X186566190Y-54379880D01*
X186470952Y-54522738D01*
X186375714Y-54617976D01*
X186280476Y-54665595D01*
X187804285Y-55379880D02*
X187232857Y-55379880D01*
X187518571Y-55379880D02*
X187518571Y-54379880D01*
X187423333Y-54522738D01*
X187328095Y-54617976D01*
X187232857Y-54665595D01*
X189470952Y-55379880D02*
X188994761Y-55379880D01*
X188994761Y-54379880D01*
X189804285Y-54856071D02*
X190137619Y-54856071D01*
X190280476Y-55379880D02*
X189804285Y-55379880D01*
X189804285Y-54379880D01*
X190280476Y-54379880D01*
X190709047Y-55379880D02*
X190709047Y-54379880D01*
X190947142Y-54379880D01*
X191090000Y-54427500D01*
X191185238Y-54522738D01*
X191232857Y-54617976D01*
X191280476Y-54808452D01*
X191280476Y-54951309D01*
X191232857Y-55141785D01*
X191185238Y-55237023D01*
X191090000Y-55332261D01*
X190947142Y-55379880D01*
X190709047Y-55379880D01*
X192470952Y-55379880D02*
X192470952Y-54379880D01*
X192804285Y-55094166D01*
X193137619Y-54379880D01*
X193137619Y-55379880D01*
X193756666Y-55379880D02*
X193661428Y-55332261D01*
X193613809Y-55284642D01*
X193566190Y-55189404D01*
X193566190Y-54903690D01*
X193613809Y-54808452D01*
X193661428Y-54760833D01*
X193756666Y-54713214D01*
X193899523Y-54713214D01*
X193994761Y-54760833D01*
X194042380Y-54808452D01*
X194090000Y-54903690D01*
X194090000Y-55189404D01*
X194042380Y-55284642D01*
X193994761Y-55332261D01*
X193899523Y-55379880D01*
X193756666Y-55379880D01*
X194947142Y-55379880D02*
X194947142Y-54379880D01*
X194947142Y-55332261D02*
X194851904Y-55379880D01*
X194661428Y-55379880D01*
X194566190Y-55332261D01*
X194518571Y-55284642D01*
X194470952Y-55189404D01*
X194470952Y-54903690D01*
X194518571Y-54808452D01*
X194566190Y-54760833D01*
X194661428Y-54713214D01*
X194851904Y-54713214D01*
X194947142Y-54760833D01*
X195851904Y-54713214D02*
X195851904Y-55379880D01*
X195423333Y-54713214D02*
X195423333Y-55237023D01*
X195470952Y-55332261D01*
X195566190Y-55379880D01*
X195709047Y-55379880D01*
X195804285Y-55332261D01*
X195851904Y-55284642D01*
X196470952Y-55379880D02*
X196375714Y-55332261D01*
X196328095Y-55237023D01*
X196328095Y-54379880D01*
X197232857Y-55332261D02*
X197137619Y-55379880D01*
X196947142Y-55379880D01*
X196851904Y-55332261D01*
X196804285Y-55237023D01*
X196804285Y-54856071D01*
X196851904Y-54760833D01*
X196947142Y-54713214D01*
X197137619Y-54713214D01*
X197232857Y-54760833D01*
X197280476Y-54856071D01*
X197280476Y-54951309D01*
X196804285Y-55046547D01*
D12*
G04 #@! TO.C,GND   Dat   Clk   5V*
X165200000Y-42950000D02*
X165200000Y-43350000D01*
X165840000Y-42950000D02*
X165200000Y-42950000D01*
X173160000Y-57310000D02*
X167002800Y-57319000D01*
X173149600Y-43196600D02*
X167000000Y-43190000D01*
X173160000Y-43190000D02*
X173160000Y-57310000D01*
X167000000Y-43190000D02*
X167000000Y-57310000D01*
G04 #@! TO.C,5V   Clk   Dat   GND*
X254200000Y-42950000D02*
X254200000Y-43350000D01*
X254840000Y-42950000D02*
X254200000Y-42950000D01*
X262160000Y-57310000D02*
X256002800Y-57319000D01*
X262149600Y-43196600D02*
X256000000Y-43190000D01*
X262160000Y-43190000D02*
X262160000Y-57310000D01*
X256000000Y-43190000D02*
X256000000Y-57310000D01*
G04 #@! TO.C,Q1*
X199410000Y-49530000D02*
X199410000Y-47580000D01*
X199410000Y-49530000D02*
X199410000Y-51480000D01*
X194290000Y-49530000D02*
X194290000Y-47580000D01*
X194290000Y-49530000D02*
X194290000Y-52980000D01*
G04 #@! TO.C,IC1*
X211445000Y-53340000D02*
X211445000Y-51390000D01*
X211445000Y-53340000D02*
X211445000Y-55290000D01*
X202575000Y-53340000D02*
X202575000Y-51390000D01*
X202575000Y-53340000D02*
X202575000Y-56790000D01*
G04 #@! TO.C,Q3*
X239415000Y-49530000D02*
X239415000Y-47580000D01*
X239415000Y-49530000D02*
X239415000Y-51480000D01*
X234295000Y-49530000D02*
X234295000Y-47580000D01*
X234295000Y-49530000D02*
X234295000Y-52980000D01*
G04 #@! TO.C,IC2*
X222577500Y-53340000D02*
X222577500Y-56790000D01*
X222577500Y-53340000D02*
X222577500Y-51390000D01*
X231447500Y-53340000D02*
X231447500Y-55290000D01*
X231447500Y-53340000D02*
X231447500Y-51390000D01*
G04 #@! TO.C,C1*
X202490000Y-47251252D02*
X202490000Y-46728748D01*
X203910000Y-47251252D02*
X203910000Y-46728748D01*
G04 #@! TO.C,Z1*
X186280000Y-48640000D02*
X186280000Y-45340000D01*
X186280000Y-45340000D02*
X180880000Y-45340000D01*
X186280000Y-48640000D02*
X180880000Y-48640000D01*
G04 #@! TO.C,+12V    LED3*
X204460000Y-44810000D02*
X214620000Y-44810000D01*
X204460000Y-37190000D02*
X204460000Y-44810000D01*
X214620000Y-37190000D02*
X204460000Y-37190000D01*
X214620000Y-44810000D02*
X214620000Y-37190000D01*
X214620000Y-43540000D02*
X204460000Y-43540000D01*
G04 #@! TO.C,+12V    LED2*
X204620000Y-43540000D02*
X194460000Y-43540000D01*
X204620000Y-44810000D02*
X204620000Y-37190000D01*
X204620000Y-37190000D02*
X194460000Y-37190000D01*
X194460000Y-37190000D02*
X194460000Y-44810000D01*
X194460000Y-44810000D02*
X204620000Y-44810000D01*
G04 #@! TO.C,R4*
X224397500Y-47178752D02*
X224397500Y-46656248D01*
X225817500Y-47178752D02*
X225817500Y-46656248D01*
G04 #@! TO.C,R5*
X227722500Y-47178752D02*
X227722500Y-46656248D01*
X226302500Y-47178752D02*
X226302500Y-46656248D01*
G04 #@! TO.C,R6*
X228207500Y-47178752D02*
X228207500Y-46656248D01*
X229627500Y-47178752D02*
X229627500Y-46656248D01*
G04 #@! TO.C,R3*
X209625000Y-47178752D02*
X209625000Y-46656248D01*
X208205000Y-47178752D02*
X208205000Y-46656248D01*
G04 #@! TO.C,R1*
X205815000Y-47178752D02*
X205815000Y-46656248D01*
X204395000Y-47178752D02*
X204395000Y-46656248D01*
G04 #@! TO.C,R2*
X206300000Y-47178752D02*
X206300000Y-46656248D01*
X207720000Y-47178752D02*
X207720000Y-46656248D01*
G04 #@! TO.C,C2*
X223912500Y-47251252D02*
X223912500Y-46728748D01*
X222492500Y-47251252D02*
X222492500Y-46728748D01*
G04 #@! TO.C,+12V    GND*
X183620000Y-43540000D02*
X173460000Y-43540000D01*
X183620000Y-44810000D02*
X183620000Y-37190000D01*
X183620000Y-37190000D02*
X173460000Y-37190000D01*
X173460000Y-37190000D02*
X173460000Y-44810000D01*
X173460000Y-44810000D02*
X183620000Y-44810000D01*
G04 #@! TO.C,+12V    LED1*
X184460000Y-44810000D02*
X194620000Y-44810000D01*
X184460000Y-37190000D02*
X184460000Y-44810000D01*
X194620000Y-37190000D02*
X184460000Y-37190000D01*
X194620000Y-44810000D02*
X194620000Y-37190000D01*
X194620000Y-43540000D02*
X184460000Y-43540000D01*
G04 #@! TO.C,+12V    LED4*
X224620000Y-43540000D02*
X214460000Y-43540000D01*
X224620000Y-44810000D02*
X224620000Y-37190000D01*
X224620000Y-37190000D02*
X214460000Y-37190000D01*
X214460000Y-37190000D02*
X214460000Y-44810000D01*
X214460000Y-44810000D02*
X224620000Y-44810000D01*
G04 #@! TO.C,+12V    LED5*
X224460000Y-44810000D02*
X234620000Y-44810000D01*
X224460000Y-37190000D02*
X224460000Y-44810000D01*
X234620000Y-37190000D02*
X224460000Y-37190000D01*
X234620000Y-44810000D02*
X234620000Y-37190000D01*
X234620000Y-43540000D02*
X224460000Y-43540000D01*
G04 #@! TO.C,+12V    LED6*
X244620000Y-43540000D02*
X234460000Y-43540000D01*
X244620000Y-44810000D02*
X244620000Y-37190000D01*
X244620000Y-37190000D02*
X234460000Y-37190000D01*
X234460000Y-37190000D02*
X234460000Y-44810000D01*
X234460000Y-44810000D02*
X244620000Y-44810000D01*
G04 #@! TO.C,+12V    GND*
X245460000Y-44810000D02*
X255620000Y-44810000D01*
X245460000Y-37190000D02*
X245460000Y-44810000D01*
X255620000Y-37190000D02*
X245460000Y-37190000D01*
X255620000Y-44810000D02*
X255620000Y-37190000D01*
X255620000Y-43540000D02*
X245460000Y-43540000D01*
G04 #@! TO.C,Q2*
X214610000Y-49530000D02*
X214610000Y-52980000D01*
X214610000Y-49530000D02*
X214610000Y-47580000D01*
X219730000Y-49530000D02*
X219730000Y-51480000D01*
X219730000Y-49530000D02*
X219730000Y-47580000D01*
G04 #@! TO.C,R8*
X189155000Y-47251252D02*
X189155000Y-46728748D01*
X190575000Y-47251252D02*
X190575000Y-46728748D01*
G04 #@! TO.C,GND   Dat   Clk   5V*
D10*
X173640000Y-56367500D02*
X173606666Y-56434166D01*
X173606666Y-56534166D01*
X173640000Y-56634166D01*
X173706666Y-56700833D01*
X173773333Y-56734166D01*
X173906666Y-56767500D01*
X174006666Y-56767500D01*
X174140000Y-56734166D01*
X174206666Y-56700833D01*
X174273333Y-56634166D01*
X174306666Y-56534166D01*
X174306666Y-56467500D01*
X174273333Y-56367500D01*
X174240000Y-56334166D01*
X174006666Y-56334166D01*
X174006666Y-56467500D01*
X174306666Y-56034166D02*
X173606666Y-56034166D01*
X174306666Y-55634166D01*
X173606666Y-55634166D01*
X174306666Y-55300833D02*
X173606666Y-55300833D01*
X173606666Y-55134166D01*
X173640000Y-55034166D01*
X173706666Y-54967500D01*
X173773333Y-54934166D01*
X173906666Y-54900833D01*
X174006666Y-54900833D01*
X174140000Y-54934166D01*
X174206666Y-54967500D01*
X174273333Y-55034166D01*
X174306666Y-55134166D01*
X174306666Y-55300833D01*
X174306666Y-53000833D02*
X173606666Y-53000833D01*
X173606666Y-52834166D01*
X173640000Y-52734166D01*
X173706666Y-52667500D01*
X173773333Y-52634166D01*
X173906666Y-52600833D01*
X174006666Y-52600833D01*
X174140000Y-52634166D01*
X174206666Y-52667500D01*
X174273333Y-52734166D01*
X174306666Y-52834166D01*
X174306666Y-53000833D01*
X174306666Y-52000833D02*
X173940000Y-52000833D01*
X173873333Y-52034166D01*
X173840000Y-52100833D01*
X173840000Y-52234166D01*
X173873333Y-52300833D01*
X174273333Y-52000833D02*
X174306666Y-52067500D01*
X174306666Y-52234166D01*
X174273333Y-52300833D01*
X174206666Y-52334166D01*
X174140000Y-52334166D01*
X174073333Y-52300833D01*
X174040000Y-52234166D01*
X174040000Y-52067500D01*
X174006666Y-52000833D01*
X173840000Y-51767500D02*
X173840000Y-51500833D01*
X173606666Y-51667500D02*
X174206666Y-51667500D01*
X174273333Y-51634166D01*
X174306666Y-51567500D01*
X174306666Y-51500833D01*
X174240000Y-49267500D02*
X174273333Y-49300833D01*
X174306666Y-49400833D01*
X174306666Y-49467500D01*
X174273333Y-49567500D01*
X174206666Y-49634166D01*
X174140000Y-49667500D01*
X174006666Y-49700833D01*
X173906666Y-49700833D01*
X173773333Y-49667500D01*
X173706666Y-49634166D01*
X173640000Y-49567500D01*
X173606666Y-49467500D01*
X173606666Y-49400833D01*
X173640000Y-49300833D01*
X173673333Y-49267500D01*
X174306666Y-48867500D02*
X174273333Y-48934166D01*
X174206666Y-48967500D01*
X173606666Y-48967500D01*
X174306666Y-48600833D02*
X173606666Y-48600833D01*
X174040000Y-48534166D02*
X174306666Y-48334166D01*
X173840000Y-48334166D02*
X174106666Y-48600833D01*
X173606666Y-46100833D02*
X173606666Y-46434166D01*
X173940000Y-46467500D01*
X173906666Y-46434166D01*
X173873333Y-46367500D01*
X173873333Y-46200833D01*
X173906666Y-46134166D01*
X173940000Y-46100833D01*
X174006666Y-46067500D01*
X174173333Y-46067500D01*
X174240000Y-46100833D01*
X174273333Y-46134166D01*
X174306666Y-46200833D01*
X174306666Y-46367500D01*
X174273333Y-46434166D01*
X174240000Y-46467500D01*
X173606666Y-45867500D02*
X174306666Y-45634166D01*
X173606666Y-45400833D01*
G04 #@! TO.C,5V   Clk   Dat   GND*
X255653333Y-45834166D02*
X255653333Y-45500833D01*
X255320000Y-45467500D01*
X255353333Y-45500833D01*
X255386666Y-45567500D01*
X255386666Y-45734166D01*
X255353333Y-45800833D01*
X255320000Y-45834166D01*
X255253333Y-45867500D01*
X255086666Y-45867500D01*
X255020000Y-45834166D01*
X254986666Y-45800833D01*
X254953333Y-45734166D01*
X254953333Y-45567500D01*
X254986666Y-45500833D01*
X255020000Y-45467500D01*
X255653333Y-46067500D02*
X254953333Y-46300833D01*
X255653333Y-46534166D01*
X255020000Y-48767500D02*
X254986666Y-48734166D01*
X254953333Y-48634166D01*
X254953333Y-48567500D01*
X254986666Y-48467500D01*
X255053333Y-48400833D01*
X255120000Y-48367500D01*
X255253333Y-48334166D01*
X255353333Y-48334166D01*
X255486666Y-48367500D01*
X255553333Y-48400833D01*
X255620000Y-48467500D01*
X255653333Y-48567500D01*
X255653333Y-48634166D01*
X255620000Y-48734166D01*
X255586666Y-48767500D01*
X254953333Y-49167500D02*
X254986666Y-49100833D01*
X255053333Y-49067500D01*
X255653333Y-49067500D01*
X254953333Y-49434166D02*
X255653333Y-49434166D01*
X255220000Y-49500833D02*
X254953333Y-49700833D01*
X255420000Y-49700833D02*
X255153333Y-49434166D01*
X254953333Y-51600833D02*
X255653333Y-51600833D01*
X255653333Y-51767500D01*
X255620000Y-51867500D01*
X255553333Y-51934166D01*
X255486666Y-51967500D01*
X255353333Y-52000833D01*
X255253333Y-52000833D01*
X255120000Y-51967500D01*
X255053333Y-51934166D01*
X254986666Y-51867500D01*
X254953333Y-51767500D01*
X254953333Y-51600833D01*
X254953333Y-52600833D02*
X255320000Y-52600833D01*
X255386666Y-52567500D01*
X255420000Y-52500833D01*
X255420000Y-52367500D01*
X255386666Y-52300833D01*
X254986666Y-52600833D02*
X254953333Y-52534166D01*
X254953333Y-52367500D01*
X254986666Y-52300833D01*
X255053333Y-52267500D01*
X255120000Y-52267500D01*
X255186666Y-52300833D01*
X255220000Y-52367500D01*
X255220000Y-52534166D01*
X255253333Y-52600833D01*
X255420000Y-52834166D02*
X255420000Y-53100833D01*
X255653333Y-52934166D02*
X255053333Y-52934166D01*
X254986666Y-52967500D01*
X254953333Y-53034166D01*
X254953333Y-53100833D01*
X255620000Y-55300833D02*
X255653333Y-55234166D01*
X255653333Y-55134166D01*
X255620000Y-55034166D01*
X255553333Y-54967500D01*
X255486666Y-54934166D01*
X255353333Y-54900833D01*
X255253333Y-54900833D01*
X255120000Y-54934166D01*
X255053333Y-54967500D01*
X254986666Y-55034166D01*
X254953333Y-55134166D01*
X254953333Y-55200833D01*
X254986666Y-55300833D01*
X255020000Y-55334166D01*
X255253333Y-55334166D01*
X255253333Y-55200833D01*
X254953333Y-55634166D02*
X255653333Y-55634166D01*
X254953333Y-56034166D01*
X255653333Y-56034166D01*
X254953333Y-56367500D02*
X255653333Y-56367500D01*
X255653333Y-56534166D01*
X255620000Y-56634166D01*
X255553333Y-56700833D01*
X255486666Y-56734166D01*
X255353333Y-56767500D01*
X255253333Y-56767500D01*
X255120000Y-56734166D01*
X255053333Y-56700833D01*
X254986666Y-56634166D01*
X254953333Y-56534166D01*
X254953333Y-56367500D01*
G04 #@! TO.C,Q1*
X193290833Y-52453333D02*
X193224166Y-52420000D01*
X193157500Y-52353333D01*
X193057500Y-52253333D01*
X192990833Y-52220000D01*
X192924166Y-52220000D01*
X192957500Y-52386666D02*
X192890833Y-52353333D01*
X192824166Y-52286666D01*
X192790833Y-52153333D01*
X192790833Y-51920000D01*
X192824166Y-51786666D01*
X192890833Y-51720000D01*
X192957500Y-51686666D01*
X193090833Y-51686666D01*
X193157500Y-51720000D01*
X193224166Y-51786666D01*
X193257500Y-51920000D01*
X193257500Y-52153333D01*
X193224166Y-52286666D01*
X193157500Y-52353333D01*
X193090833Y-52386666D01*
X192957500Y-52386666D01*
X193924166Y-52386666D02*
X193524166Y-52386666D01*
X193724166Y-52386666D02*
X193724166Y-51686666D01*
X193657500Y-51786666D01*
X193590833Y-51853333D01*
X193524166Y-51886666D01*
G04 #@! TO.C,IC1*
X200929166Y-56196666D02*
X200929166Y-55496666D01*
X201662500Y-56130000D02*
X201629166Y-56163333D01*
X201529166Y-56196666D01*
X201462500Y-56196666D01*
X201362500Y-56163333D01*
X201295833Y-56096666D01*
X201262500Y-56030000D01*
X201229166Y-55896666D01*
X201229166Y-55796666D01*
X201262500Y-55663333D01*
X201295833Y-55596666D01*
X201362500Y-55530000D01*
X201462500Y-55496666D01*
X201529166Y-55496666D01*
X201629166Y-55530000D01*
X201662500Y-55563333D01*
X202329166Y-56196666D02*
X201929166Y-56196666D01*
X202129166Y-56196666D02*
X202129166Y-55496666D01*
X202062500Y-55596666D01*
X201995833Y-55663333D01*
X201929166Y-55696666D01*
G04 #@! TO.C,Q3*
X233295833Y-52453333D02*
X233229166Y-52420000D01*
X233162500Y-52353333D01*
X233062500Y-52253333D01*
X232995833Y-52220000D01*
X232929166Y-52220000D01*
X232962500Y-52386666D02*
X232895833Y-52353333D01*
X232829166Y-52286666D01*
X232795833Y-52153333D01*
X232795833Y-51920000D01*
X232829166Y-51786666D01*
X232895833Y-51720000D01*
X232962500Y-51686666D01*
X233095833Y-51686666D01*
X233162500Y-51720000D01*
X233229166Y-51786666D01*
X233262500Y-51920000D01*
X233262500Y-52153333D01*
X233229166Y-52286666D01*
X233162500Y-52353333D01*
X233095833Y-52386666D01*
X232962500Y-52386666D01*
X233495833Y-51686666D02*
X233929166Y-51686666D01*
X233695833Y-51953333D01*
X233795833Y-51953333D01*
X233862500Y-51986666D01*
X233895833Y-52020000D01*
X233929166Y-52086666D01*
X233929166Y-52253333D01*
X233895833Y-52320000D01*
X233862500Y-52353333D01*
X233795833Y-52386666D01*
X233595833Y-52386666D01*
X233529166Y-52353333D01*
X233495833Y-52320000D01*
G04 #@! TO.C,IC2*
X220931666Y-56196666D02*
X220931666Y-55496666D01*
X221665000Y-56130000D02*
X221631666Y-56163333D01*
X221531666Y-56196666D01*
X221465000Y-56196666D01*
X221365000Y-56163333D01*
X221298333Y-56096666D01*
X221265000Y-56030000D01*
X221231666Y-55896666D01*
X221231666Y-55796666D01*
X221265000Y-55663333D01*
X221298333Y-55596666D01*
X221365000Y-55530000D01*
X221465000Y-55496666D01*
X221531666Y-55496666D01*
X221631666Y-55530000D01*
X221665000Y-55563333D01*
X221931666Y-55563333D02*
X221965000Y-55530000D01*
X222031666Y-55496666D01*
X222198333Y-55496666D01*
X222265000Y-55530000D01*
X222298333Y-55563333D01*
X222331666Y-55630000D01*
X222331666Y-55696666D01*
X222298333Y-55796666D01*
X221898333Y-56196666D01*
X222331666Y-56196666D01*
G04 #@! TO.C,C1*
X203083333Y-49462500D02*
X203050000Y-49495833D01*
X202950000Y-49529166D01*
X202883333Y-49529166D01*
X202783333Y-49495833D01*
X202716666Y-49429166D01*
X202683333Y-49362500D01*
X202650000Y-49229166D01*
X202650000Y-49129166D01*
X202683333Y-48995833D01*
X202716666Y-48929166D01*
X202783333Y-48862500D01*
X202883333Y-48829166D01*
X202950000Y-48829166D01*
X203050000Y-48862500D01*
X203083333Y-48895833D01*
X203750000Y-49529166D02*
X203350000Y-49529166D01*
X203550000Y-49529166D02*
X203550000Y-48829166D01*
X203483333Y-48929166D01*
X203416666Y-48995833D01*
X203350000Y-49029166D01*
G04 #@! TO.C,Z1*
X185170833Y-48829166D02*
X185637500Y-48829166D01*
X185170833Y-49529166D01*
X185637500Y-49529166D01*
X186270833Y-49529166D02*
X185870833Y-49529166D01*
X186070833Y-49529166D02*
X186070833Y-48829166D01*
X186004166Y-48929166D01*
X185937500Y-48995833D01*
X185870833Y-49029166D01*
G04 #@! TO.C,+12V    LED3*
X205956666Y-36245000D02*
X206490000Y-36245000D01*
X206223333Y-36511666D02*
X206223333Y-35978333D01*
X207190000Y-36511666D02*
X206790000Y-36511666D01*
X206990000Y-36511666D02*
X206990000Y-35811666D01*
X206923333Y-35911666D01*
X206856666Y-35978333D01*
X206790000Y-36011666D01*
X207456666Y-35878333D02*
X207490000Y-35845000D01*
X207556666Y-35811666D01*
X207723333Y-35811666D01*
X207790000Y-35845000D01*
X207823333Y-35878333D01*
X207856666Y-35945000D01*
X207856666Y-36011666D01*
X207823333Y-36111666D01*
X207423333Y-36511666D01*
X207856666Y-36511666D01*
X208056666Y-35811666D02*
X208290000Y-36511666D01*
X208523333Y-35811666D01*
X211223333Y-36511666D02*
X210890000Y-36511666D01*
X210890000Y-35811666D01*
X211456666Y-36145000D02*
X211690000Y-36145000D01*
X211790000Y-36511666D02*
X211456666Y-36511666D01*
X211456666Y-35811666D01*
X211790000Y-35811666D01*
X212090000Y-36511666D02*
X212090000Y-35811666D01*
X212256666Y-35811666D01*
X212356666Y-35845000D01*
X212423333Y-35911666D01*
X212456666Y-35978333D01*
X212490000Y-36111666D01*
X212490000Y-36211666D01*
X212456666Y-36345000D01*
X212423333Y-36411666D01*
X212356666Y-36478333D01*
X212256666Y-36511666D01*
X212090000Y-36511666D01*
X212723333Y-35811666D02*
X213156666Y-35811666D01*
X212923333Y-36078333D01*
X213023333Y-36078333D01*
X213090000Y-36111666D01*
X213123333Y-36145000D01*
X213156666Y-36211666D01*
X213156666Y-36378333D01*
X213123333Y-36445000D01*
X213090000Y-36478333D01*
X213023333Y-36511666D01*
X212823333Y-36511666D01*
X212756666Y-36478333D01*
X212723333Y-36445000D01*
G04 #@! TO.C,+12V    LED2*
X195956666Y-36245000D02*
X196490000Y-36245000D01*
X196223333Y-36511666D02*
X196223333Y-35978333D01*
X197190000Y-36511666D02*
X196790000Y-36511666D01*
X196990000Y-36511666D02*
X196990000Y-35811666D01*
X196923333Y-35911666D01*
X196856666Y-35978333D01*
X196790000Y-36011666D01*
X197456666Y-35878333D02*
X197490000Y-35845000D01*
X197556666Y-35811666D01*
X197723333Y-35811666D01*
X197790000Y-35845000D01*
X197823333Y-35878333D01*
X197856666Y-35945000D01*
X197856666Y-36011666D01*
X197823333Y-36111666D01*
X197423333Y-36511666D01*
X197856666Y-36511666D01*
X198056666Y-35811666D02*
X198290000Y-36511666D01*
X198523333Y-35811666D01*
X201223333Y-36511666D02*
X200890000Y-36511666D01*
X200890000Y-35811666D01*
X201456666Y-36145000D02*
X201690000Y-36145000D01*
X201790000Y-36511666D02*
X201456666Y-36511666D01*
X201456666Y-35811666D01*
X201790000Y-35811666D01*
X202090000Y-36511666D02*
X202090000Y-35811666D01*
X202256666Y-35811666D01*
X202356666Y-35845000D01*
X202423333Y-35911666D01*
X202456666Y-35978333D01*
X202490000Y-36111666D01*
X202490000Y-36211666D01*
X202456666Y-36345000D01*
X202423333Y-36411666D01*
X202356666Y-36478333D01*
X202256666Y-36511666D01*
X202090000Y-36511666D01*
X202756666Y-35878333D02*
X202790000Y-35845000D01*
X202856666Y-35811666D01*
X203023333Y-35811666D01*
X203090000Y-35845000D01*
X203123333Y-35878333D01*
X203156666Y-35945000D01*
X203156666Y-36011666D01*
X203123333Y-36111666D01*
X202723333Y-36511666D01*
X203156666Y-36511666D01*
G04 #@! TO.C,R4*
X224990833Y-49529166D02*
X224757500Y-49195833D01*
X224590833Y-49529166D02*
X224590833Y-48829166D01*
X224857500Y-48829166D01*
X224924166Y-48862500D01*
X224957500Y-48895833D01*
X224990833Y-48962500D01*
X224990833Y-49062500D01*
X224957500Y-49129166D01*
X224924166Y-49162500D01*
X224857500Y-49195833D01*
X224590833Y-49195833D01*
X225590833Y-49062500D02*
X225590833Y-49529166D01*
X225424166Y-48795833D02*
X225257500Y-49295833D01*
X225690833Y-49295833D01*
G04 #@! TO.C,R5*
X226895833Y-49529166D02*
X226662500Y-49195833D01*
X226495833Y-49529166D02*
X226495833Y-48829166D01*
X226762500Y-48829166D01*
X226829166Y-48862500D01*
X226862500Y-48895833D01*
X226895833Y-48962500D01*
X226895833Y-49062500D01*
X226862500Y-49129166D01*
X226829166Y-49162500D01*
X226762500Y-49195833D01*
X226495833Y-49195833D01*
X227529166Y-48829166D02*
X227195833Y-48829166D01*
X227162500Y-49162500D01*
X227195833Y-49129166D01*
X227262500Y-49095833D01*
X227429166Y-49095833D01*
X227495833Y-49129166D01*
X227529166Y-49162500D01*
X227562500Y-49229166D01*
X227562500Y-49395833D01*
X227529166Y-49462500D01*
X227495833Y-49495833D01*
X227429166Y-49529166D01*
X227262500Y-49529166D01*
X227195833Y-49495833D01*
X227162500Y-49462500D01*
G04 #@! TO.C,R6*
X228800833Y-49529166D02*
X228567500Y-49195833D01*
X228400833Y-49529166D02*
X228400833Y-48829166D01*
X228667500Y-48829166D01*
X228734166Y-48862500D01*
X228767500Y-48895833D01*
X228800833Y-48962500D01*
X228800833Y-49062500D01*
X228767500Y-49129166D01*
X228734166Y-49162500D01*
X228667500Y-49195833D01*
X228400833Y-49195833D01*
X229400833Y-48829166D02*
X229267500Y-48829166D01*
X229200833Y-48862500D01*
X229167500Y-48895833D01*
X229100833Y-48995833D01*
X229067500Y-49129166D01*
X229067500Y-49395833D01*
X229100833Y-49462500D01*
X229134166Y-49495833D01*
X229200833Y-49529166D01*
X229334166Y-49529166D01*
X229400833Y-49495833D01*
X229434166Y-49462500D01*
X229467500Y-49395833D01*
X229467500Y-49229166D01*
X229434166Y-49162500D01*
X229400833Y-49129166D01*
X229334166Y-49095833D01*
X229200833Y-49095833D01*
X229134166Y-49129166D01*
X229100833Y-49162500D01*
X229067500Y-49229166D01*
G04 #@! TO.C,R3*
X209115833Y-49529166D02*
X208882500Y-49195833D01*
X208715833Y-49529166D02*
X208715833Y-48829166D01*
X208982500Y-48829166D01*
X209049166Y-48862500D01*
X209082500Y-48895833D01*
X209115833Y-48962500D01*
X209115833Y-49062500D01*
X209082500Y-49129166D01*
X209049166Y-49162500D01*
X208982500Y-49195833D01*
X208715833Y-49195833D01*
X209349166Y-48829166D02*
X209782500Y-48829166D01*
X209549166Y-49095833D01*
X209649166Y-49095833D01*
X209715833Y-49129166D01*
X209749166Y-49162500D01*
X209782500Y-49229166D01*
X209782500Y-49395833D01*
X209749166Y-49462500D01*
X209715833Y-49495833D01*
X209649166Y-49529166D01*
X209449166Y-49529166D01*
X209382500Y-49495833D01*
X209349166Y-49462500D01*
G04 #@! TO.C,R1*
X204988333Y-49529166D02*
X204755000Y-49195833D01*
X204588333Y-49529166D02*
X204588333Y-48829166D01*
X204855000Y-48829166D01*
X204921666Y-48862500D01*
X204955000Y-48895833D01*
X204988333Y-48962500D01*
X204988333Y-49062500D01*
X204955000Y-49129166D01*
X204921666Y-49162500D01*
X204855000Y-49195833D01*
X204588333Y-49195833D01*
X205655000Y-49529166D02*
X205255000Y-49529166D01*
X205455000Y-49529166D02*
X205455000Y-48829166D01*
X205388333Y-48929166D01*
X205321666Y-48995833D01*
X205255000Y-49029166D01*
G04 #@! TO.C,R2*
X207210833Y-49529166D02*
X206977500Y-49195833D01*
X206810833Y-49529166D02*
X206810833Y-48829166D01*
X207077500Y-48829166D01*
X207144166Y-48862500D01*
X207177500Y-48895833D01*
X207210833Y-48962500D01*
X207210833Y-49062500D01*
X207177500Y-49129166D01*
X207144166Y-49162500D01*
X207077500Y-49195833D01*
X206810833Y-49195833D01*
X207477500Y-48895833D02*
X207510833Y-48862500D01*
X207577500Y-48829166D01*
X207744166Y-48829166D01*
X207810833Y-48862500D01*
X207844166Y-48895833D01*
X207877500Y-48962500D01*
X207877500Y-49029166D01*
X207844166Y-49129166D01*
X207444166Y-49529166D01*
X207877500Y-49529166D01*
G04 #@! TO.C,C2*
X223085833Y-49462500D02*
X223052500Y-49495833D01*
X222952500Y-49529166D01*
X222885833Y-49529166D01*
X222785833Y-49495833D01*
X222719166Y-49429166D01*
X222685833Y-49362500D01*
X222652500Y-49229166D01*
X222652500Y-49129166D01*
X222685833Y-48995833D01*
X222719166Y-48929166D01*
X222785833Y-48862500D01*
X222885833Y-48829166D01*
X222952500Y-48829166D01*
X223052500Y-48862500D01*
X223085833Y-48895833D01*
X223352500Y-48895833D02*
X223385833Y-48862500D01*
X223452500Y-48829166D01*
X223619166Y-48829166D01*
X223685833Y-48862500D01*
X223719166Y-48895833D01*
X223752500Y-48962500D01*
X223752500Y-49029166D01*
X223719166Y-49129166D01*
X223319166Y-49529166D01*
X223752500Y-49529166D01*
G04 #@! TO.C,*
G04 #@! TO.C,+12V    GND*
X175173333Y-36245000D02*
X175706666Y-36245000D01*
X175440000Y-36511666D02*
X175440000Y-35978333D01*
X176406666Y-36511666D02*
X176006666Y-36511666D01*
X176206666Y-36511666D02*
X176206666Y-35811666D01*
X176140000Y-35911666D01*
X176073333Y-35978333D01*
X176006666Y-36011666D01*
X176673333Y-35878333D02*
X176706666Y-35845000D01*
X176773333Y-35811666D01*
X176940000Y-35811666D01*
X177006666Y-35845000D01*
X177040000Y-35878333D01*
X177073333Y-35945000D01*
X177073333Y-36011666D01*
X177040000Y-36111666D01*
X176640000Y-36511666D01*
X177073333Y-36511666D01*
X177273333Y-35811666D02*
X177506666Y-36511666D01*
X177740000Y-35811666D01*
X180473333Y-35845000D02*
X180406666Y-35811666D01*
X180306666Y-35811666D01*
X180206666Y-35845000D01*
X180140000Y-35911666D01*
X180106666Y-35978333D01*
X180073333Y-36111666D01*
X180073333Y-36211666D01*
X180106666Y-36345000D01*
X180140000Y-36411666D01*
X180206666Y-36478333D01*
X180306666Y-36511666D01*
X180373333Y-36511666D01*
X180473333Y-36478333D01*
X180506666Y-36445000D01*
X180506666Y-36211666D01*
X180373333Y-36211666D01*
X180806666Y-36511666D02*
X180806666Y-35811666D01*
X181206666Y-36511666D01*
X181206666Y-35811666D01*
X181540000Y-36511666D02*
X181540000Y-35811666D01*
X181706666Y-35811666D01*
X181806666Y-35845000D01*
X181873333Y-35911666D01*
X181906666Y-35978333D01*
X181940000Y-36111666D01*
X181940000Y-36211666D01*
X181906666Y-36345000D01*
X181873333Y-36411666D01*
X181806666Y-36478333D01*
X181706666Y-36511666D01*
X181540000Y-36511666D01*
G04 #@! TO.C,+12V    LED1*
X185956666Y-36245000D02*
X186490000Y-36245000D01*
X186223333Y-36511666D02*
X186223333Y-35978333D01*
X187190000Y-36511666D02*
X186790000Y-36511666D01*
X186990000Y-36511666D02*
X186990000Y-35811666D01*
X186923333Y-35911666D01*
X186856666Y-35978333D01*
X186790000Y-36011666D01*
X187456666Y-35878333D02*
X187490000Y-35845000D01*
X187556666Y-35811666D01*
X187723333Y-35811666D01*
X187790000Y-35845000D01*
X187823333Y-35878333D01*
X187856666Y-35945000D01*
X187856666Y-36011666D01*
X187823333Y-36111666D01*
X187423333Y-36511666D01*
X187856666Y-36511666D01*
X188056666Y-35811666D02*
X188290000Y-36511666D01*
X188523333Y-35811666D01*
X191223333Y-36511666D02*
X190890000Y-36511666D01*
X190890000Y-35811666D01*
X191456666Y-36145000D02*
X191690000Y-36145000D01*
X191790000Y-36511666D02*
X191456666Y-36511666D01*
X191456666Y-35811666D01*
X191790000Y-35811666D01*
X192090000Y-36511666D02*
X192090000Y-35811666D01*
X192256666Y-35811666D01*
X192356666Y-35845000D01*
X192423333Y-35911666D01*
X192456666Y-35978333D01*
X192490000Y-36111666D01*
X192490000Y-36211666D01*
X192456666Y-36345000D01*
X192423333Y-36411666D01*
X192356666Y-36478333D01*
X192256666Y-36511666D01*
X192090000Y-36511666D01*
X193156666Y-36511666D02*
X192756666Y-36511666D01*
X192956666Y-36511666D02*
X192956666Y-35811666D01*
X192890000Y-35911666D01*
X192823333Y-35978333D01*
X192756666Y-36011666D01*
G04 #@! TO.C,+12V    LED4*
X215956666Y-36245000D02*
X216490000Y-36245000D01*
X216223333Y-36511666D02*
X216223333Y-35978333D01*
X217190000Y-36511666D02*
X216790000Y-36511666D01*
X216990000Y-36511666D02*
X216990000Y-35811666D01*
X216923333Y-35911666D01*
X216856666Y-35978333D01*
X216790000Y-36011666D01*
X217456666Y-35878333D02*
X217490000Y-35845000D01*
X217556666Y-35811666D01*
X217723333Y-35811666D01*
X217790000Y-35845000D01*
X217823333Y-35878333D01*
X217856666Y-35945000D01*
X217856666Y-36011666D01*
X217823333Y-36111666D01*
X217423333Y-36511666D01*
X217856666Y-36511666D01*
X218056666Y-35811666D02*
X218290000Y-36511666D01*
X218523333Y-35811666D01*
X221223333Y-36511666D02*
X220890000Y-36511666D01*
X220890000Y-35811666D01*
X221456666Y-36145000D02*
X221690000Y-36145000D01*
X221790000Y-36511666D02*
X221456666Y-36511666D01*
X221456666Y-35811666D01*
X221790000Y-35811666D01*
X222090000Y-36511666D02*
X222090000Y-35811666D01*
X222256666Y-35811666D01*
X222356666Y-35845000D01*
X222423333Y-35911666D01*
X222456666Y-35978333D01*
X222490000Y-36111666D01*
X222490000Y-36211666D01*
X222456666Y-36345000D01*
X222423333Y-36411666D01*
X222356666Y-36478333D01*
X222256666Y-36511666D01*
X222090000Y-36511666D01*
X223090000Y-36045000D02*
X223090000Y-36511666D01*
X222923333Y-35778333D02*
X222756666Y-36278333D01*
X223190000Y-36278333D01*
G04 #@! TO.C,+12V    LED5*
X225956666Y-36245000D02*
X226490000Y-36245000D01*
X226223333Y-36511666D02*
X226223333Y-35978333D01*
X227190000Y-36511666D02*
X226790000Y-36511666D01*
X226990000Y-36511666D02*
X226990000Y-35811666D01*
X226923333Y-35911666D01*
X226856666Y-35978333D01*
X226790000Y-36011666D01*
X227456666Y-35878333D02*
X227490000Y-35845000D01*
X227556666Y-35811666D01*
X227723333Y-35811666D01*
X227790000Y-35845000D01*
X227823333Y-35878333D01*
X227856666Y-35945000D01*
X227856666Y-36011666D01*
X227823333Y-36111666D01*
X227423333Y-36511666D01*
X227856666Y-36511666D01*
X228056666Y-35811666D02*
X228290000Y-36511666D01*
X228523333Y-35811666D01*
X231223333Y-36511666D02*
X230890000Y-36511666D01*
X230890000Y-35811666D01*
X231456666Y-36145000D02*
X231690000Y-36145000D01*
X231790000Y-36511666D02*
X231456666Y-36511666D01*
X231456666Y-35811666D01*
X231790000Y-35811666D01*
X232090000Y-36511666D02*
X232090000Y-35811666D01*
X232256666Y-35811666D01*
X232356666Y-35845000D01*
X232423333Y-35911666D01*
X232456666Y-35978333D01*
X232490000Y-36111666D01*
X232490000Y-36211666D01*
X232456666Y-36345000D01*
X232423333Y-36411666D01*
X232356666Y-36478333D01*
X232256666Y-36511666D01*
X232090000Y-36511666D01*
X233123333Y-35811666D02*
X232790000Y-35811666D01*
X232756666Y-36145000D01*
X232790000Y-36111666D01*
X232856666Y-36078333D01*
X233023333Y-36078333D01*
X233090000Y-36111666D01*
X233123333Y-36145000D01*
X233156666Y-36211666D01*
X233156666Y-36378333D01*
X233123333Y-36445000D01*
X233090000Y-36478333D01*
X233023333Y-36511666D01*
X232856666Y-36511666D01*
X232790000Y-36478333D01*
X232756666Y-36445000D01*
G04 #@! TO.C,+12V    LED6*
X235811666Y-36245000D02*
X236345000Y-36245000D01*
X236078333Y-36511666D02*
X236078333Y-35978333D01*
X237045000Y-36511666D02*
X236645000Y-36511666D01*
X236845000Y-36511666D02*
X236845000Y-35811666D01*
X236778333Y-35911666D01*
X236711666Y-35978333D01*
X236645000Y-36011666D01*
X237311666Y-35878333D02*
X237345000Y-35845000D01*
X237411666Y-35811666D01*
X237578333Y-35811666D01*
X237645000Y-35845000D01*
X237678333Y-35878333D01*
X237711666Y-35945000D01*
X237711666Y-36011666D01*
X237678333Y-36111666D01*
X237278333Y-36511666D01*
X237711666Y-36511666D01*
X237911666Y-35811666D02*
X238145000Y-36511666D01*
X238378333Y-35811666D01*
X241078333Y-36511666D02*
X240745000Y-36511666D01*
X240745000Y-35811666D01*
X241311666Y-36145000D02*
X241545000Y-36145000D01*
X241645000Y-36511666D02*
X241311666Y-36511666D01*
X241311666Y-35811666D01*
X241645000Y-35811666D01*
X241945000Y-36511666D02*
X241945000Y-35811666D01*
X242111666Y-35811666D01*
X242211666Y-35845000D01*
X242278333Y-35911666D01*
X242311666Y-35978333D01*
X242345000Y-36111666D01*
X242345000Y-36211666D01*
X242311666Y-36345000D01*
X242278333Y-36411666D01*
X242211666Y-36478333D01*
X242111666Y-36511666D01*
X241945000Y-36511666D01*
X242945000Y-35811666D02*
X242811666Y-35811666D01*
X242745000Y-35845000D01*
X242711666Y-35878333D01*
X242645000Y-35978333D01*
X242611666Y-36111666D01*
X242611666Y-36378333D01*
X242645000Y-36445000D01*
X242678333Y-36478333D01*
X242745000Y-36511666D01*
X242878333Y-36511666D01*
X242945000Y-36478333D01*
X242978333Y-36445000D01*
X243011666Y-36378333D01*
X243011666Y-36211666D01*
X242978333Y-36145000D01*
X242945000Y-36111666D01*
X242878333Y-36078333D01*
X242745000Y-36078333D01*
X242678333Y-36111666D01*
X242645000Y-36145000D01*
X242611666Y-36211666D01*
G04 #@! TO.C,+12V    GND*
X247140833Y-36245000D02*
X247674166Y-36245000D01*
X247407500Y-36511666D02*
X247407500Y-35978333D01*
X248374166Y-36511666D02*
X247974166Y-36511666D01*
X248174166Y-36511666D02*
X248174166Y-35811666D01*
X248107500Y-35911666D01*
X248040833Y-35978333D01*
X247974166Y-36011666D01*
X248640833Y-35878333D02*
X248674166Y-35845000D01*
X248740833Y-35811666D01*
X248907500Y-35811666D01*
X248974166Y-35845000D01*
X249007500Y-35878333D01*
X249040833Y-35945000D01*
X249040833Y-36011666D01*
X249007500Y-36111666D01*
X248607500Y-36511666D01*
X249040833Y-36511666D01*
X249240833Y-35811666D02*
X249474166Y-36511666D01*
X249707500Y-35811666D01*
X252440833Y-35845000D02*
X252374166Y-35811666D01*
X252274166Y-35811666D01*
X252174166Y-35845000D01*
X252107500Y-35911666D01*
X252074166Y-35978333D01*
X252040833Y-36111666D01*
X252040833Y-36211666D01*
X252074166Y-36345000D01*
X252107500Y-36411666D01*
X252174166Y-36478333D01*
X252274166Y-36511666D01*
X252340833Y-36511666D01*
X252440833Y-36478333D01*
X252474166Y-36445000D01*
X252474166Y-36211666D01*
X252340833Y-36211666D01*
X252774166Y-36511666D02*
X252774166Y-35811666D01*
X253174166Y-36511666D01*
X253174166Y-35811666D01*
X253507500Y-36511666D02*
X253507500Y-35811666D01*
X253674166Y-35811666D01*
X253774166Y-35845000D01*
X253840833Y-35911666D01*
X253874166Y-35978333D01*
X253907500Y-36111666D01*
X253907500Y-36211666D01*
X253874166Y-36345000D01*
X253840833Y-36411666D01*
X253774166Y-36478333D01*
X253674166Y-36511666D01*
X253507500Y-36511666D01*
G04 #@! TO.C,Q2*
X213610833Y-52453333D02*
X213544166Y-52420000D01*
X213477500Y-52353333D01*
X213377500Y-52253333D01*
X213310833Y-52220000D01*
X213244166Y-52220000D01*
X213277500Y-52386666D02*
X213210833Y-52353333D01*
X213144166Y-52286666D01*
X213110833Y-52153333D01*
X213110833Y-51920000D01*
X213144166Y-51786666D01*
X213210833Y-51720000D01*
X213277500Y-51686666D01*
X213410833Y-51686666D01*
X213477500Y-51720000D01*
X213544166Y-51786666D01*
X213577500Y-51920000D01*
X213577500Y-52153333D01*
X213544166Y-52286666D01*
X213477500Y-52353333D01*
X213410833Y-52386666D01*
X213277500Y-52386666D01*
X213844166Y-51753333D02*
X213877500Y-51720000D01*
X213944166Y-51686666D01*
X214110833Y-51686666D01*
X214177500Y-51720000D01*
X214210833Y-51753333D01*
X214244166Y-51820000D01*
X214244166Y-51886666D01*
X214210833Y-51986666D01*
X213810833Y-52386666D01*
X214244166Y-52386666D01*
G04 #@! TO.C,R8*
X189748333Y-49529166D02*
X189515000Y-49195833D01*
X189348333Y-49529166D02*
X189348333Y-48829166D01*
X189615000Y-48829166D01*
X189681666Y-48862500D01*
X189715000Y-48895833D01*
X189748333Y-48962500D01*
X189748333Y-49062500D01*
X189715000Y-49129166D01*
X189681666Y-49162500D01*
X189615000Y-49195833D01*
X189348333Y-49195833D01*
X190148333Y-49129166D02*
X190081666Y-49095833D01*
X190048333Y-49062500D01*
X190015000Y-48995833D01*
X190015000Y-48962500D01*
X190048333Y-48895833D01*
X190081666Y-48862500D01*
X190148333Y-48829166D01*
X190281666Y-48829166D01*
X190348333Y-48862500D01*
X190381666Y-48895833D01*
X190415000Y-48962500D01*
X190415000Y-48995833D01*
X190381666Y-49062500D01*
X190348333Y-49095833D01*
X190281666Y-49129166D01*
X190148333Y-49129166D01*
X190081666Y-49162500D01*
X190048333Y-49195833D01*
X190015000Y-49262500D01*
X190015000Y-49395833D01*
X190048333Y-49462500D01*
X190081666Y-49495833D01*
X190148333Y-49529166D01*
X190281666Y-49529166D01*
X190348333Y-49495833D01*
X190381666Y-49462500D01*
X190415000Y-49395833D01*
X190415000Y-49262500D01*
X190381666Y-49195833D01*
X190348333Y-49162500D01*
X190281666Y-49129166D01*
G04 #@! TD*
M02*
