G04 #@! TF.GenerationSoftware,KiCad,Pcbnew,(5.0.1-3-g963ef8bb5)*
G04 #@! TF.CreationDate,2020-01-09T21:08:13+01:00*
G04 #@! TF.ProjectId,WS2801_ledmodule_rev2,5753323830315F6C65646D6F64756C65,rev?*
G04 #@! TF.SameCoordinates,Original*
G04 #@! TF.FileFunction,Soldermask,Top*
G04 #@! TF.FilePolarity,Negative*
%FSLAX46Y46*%
G04 Gerber Fmt 4.6, Leading zero omitted, Abs format (unit mm)*
G04 Created by KiCad (PCBNEW (5.0.1-3-g963ef8bb5)) date Thursday, 09 January 2020 at 21:08:13*
%MOMM*%
%LPD*%
G01*
G04 APERTURE LIST*
%ADD10C,0.100000*%
G04 APERTURE END LIST*
D10*
G36*
X231051952Y-54842274D02*
X231068250Y-54847218D01*
X231083277Y-54855251D01*
X231096444Y-54866056D01*
X231107249Y-54879223D01*
X231115282Y-54894250D01*
X231120226Y-54910548D01*
X231122500Y-54933640D01*
X231122500Y-56696360D01*
X231120226Y-56719452D01*
X231115282Y-56735750D01*
X231107249Y-56750777D01*
X231096444Y-56763944D01*
X231083277Y-56774749D01*
X231068250Y-56782782D01*
X231051952Y-56787726D01*
X231028860Y-56790000D01*
X230616140Y-56790000D01*
X230593048Y-56787726D01*
X230576750Y-56782782D01*
X230561723Y-56774749D01*
X230548556Y-56763944D01*
X230537751Y-56750777D01*
X230529718Y-56735750D01*
X230524774Y-56719452D01*
X230522500Y-56696360D01*
X230522500Y-54933640D01*
X230524774Y-54910548D01*
X230529718Y-54894250D01*
X230537751Y-54879223D01*
X230548556Y-54866056D01*
X230561723Y-54855251D01*
X230576750Y-54847218D01*
X230593048Y-54842274D01*
X230616140Y-54840000D01*
X231028860Y-54840000D01*
X231051952Y-54842274D01*
X231051952Y-54842274D01*
G37*
G36*
X229781952Y-54842274D02*
X229798250Y-54847218D01*
X229813277Y-54855251D01*
X229826444Y-54866056D01*
X229837249Y-54879223D01*
X229845282Y-54894250D01*
X229850226Y-54910548D01*
X229852500Y-54933640D01*
X229852500Y-56696360D01*
X229850226Y-56719452D01*
X229845282Y-56735750D01*
X229837249Y-56750777D01*
X229826444Y-56763944D01*
X229813277Y-56774749D01*
X229798250Y-56782782D01*
X229781952Y-56787726D01*
X229758860Y-56790000D01*
X229346140Y-56790000D01*
X229323048Y-56787726D01*
X229306750Y-56782782D01*
X229291723Y-56774749D01*
X229278556Y-56763944D01*
X229267751Y-56750777D01*
X229259718Y-56735750D01*
X229254774Y-56719452D01*
X229252500Y-56696360D01*
X229252500Y-54933640D01*
X229254774Y-54910548D01*
X229259718Y-54894250D01*
X229267751Y-54879223D01*
X229278556Y-54866056D01*
X229291723Y-54855251D01*
X229306750Y-54847218D01*
X229323048Y-54842274D01*
X229346140Y-54840000D01*
X229758860Y-54840000D01*
X229781952Y-54842274D01*
X229781952Y-54842274D01*
G37*
G36*
X228511952Y-54842274D02*
X228528250Y-54847218D01*
X228543277Y-54855251D01*
X228556444Y-54866056D01*
X228567249Y-54879223D01*
X228575282Y-54894250D01*
X228580226Y-54910548D01*
X228582500Y-54933640D01*
X228582500Y-56696360D01*
X228580226Y-56719452D01*
X228575282Y-56735750D01*
X228567249Y-56750777D01*
X228556444Y-56763944D01*
X228543277Y-56774749D01*
X228528250Y-56782782D01*
X228511952Y-56787726D01*
X228488860Y-56790000D01*
X228076140Y-56790000D01*
X228053048Y-56787726D01*
X228036750Y-56782782D01*
X228021723Y-56774749D01*
X228008556Y-56763944D01*
X227997751Y-56750777D01*
X227989718Y-56735750D01*
X227984774Y-56719452D01*
X227982500Y-56696360D01*
X227982500Y-54933640D01*
X227984774Y-54910548D01*
X227989718Y-54894250D01*
X227997751Y-54879223D01*
X228008556Y-54866056D01*
X228021723Y-54855251D01*
X228036750Y-54847218D01*
X228053048Y-54842274D01*
X228076140Y-54840000D01*
X228488860Y-54840000D01*
X228511952Y-54842274D01*
X228511952Y-54842274D01*
G37*
G36*
X227241952Y-54842274D02*
X227258250Y-54847218D01*
X227273277Y-54855251D01*
X227286444Y-54866056D01*
X227297249Y-54879223D01*
X227305282Y-54894250D01*
X227310226Y-54910548D01*
X227312500Y-54933640D01*
X227312500Y-56696360D01*
X227310226Y-56719452D01*
X227305282Y-56735750D01*
X227297249Y-56750777D01*
X227286444Y-56763944D01*
X227273277Y-56774749D01*
X227258250Y-56782782D01*
X227241952Y-56787726D01*
X227218860Y-56790000D01*
X226806140Y-56790000D01*
X226783048Y-56787726D01*
X226766750Y-56782782D01*
X226751723Y-56774749D01*
X226738556Y-56763944D01*
X226727751Y-56750777D01*
X226719718Y-56735750D01*
X226714774Y-56719452D01*
X226712500Y-56696360D01*
X226712500Y-54933640D01*
X226714774Y-54910548D01*
X226719718Y-54894250D01*
X226727751Y-54879223D01*
X226738556Y-54866056D01*
X226751723Y-54855251D01*
X226766750Y-54847218D01*
X226783048Y-54842274D01*
X226806140Y-54840000D01*
X227218860Y-54840000D01*
X227241952Y-54842274D01*
X227241952Y-54842274D01*
G37*
G36*
X225971952Y-54842274D02*
X225988250Y-54847218D01*
X226003277Y-54855251D01*
X226016444Y-54866056D01*
X226027249Y-54879223D01*
X226035282Y-54894250D01*
X226040226Y-54910548D01*
X226042500Y-54933640D01*
X226042500Y-56696360D01*
X226040226Y-56719452D01*
X226035282Y-56735750D01*
X226027249Y-56750777D01*
X226016444Y-56763944D01*
X226003277Y-56774749D01*
X225988250Y-56782782D01*
X225971952Y-56787726D01*
X225948860Y-56790000D01*
X225536140Y-56790000D01*
X225513048Y-56787726D01*
X225496750Y-56782782D01*
X225481723Y-56774749D01*
X225468556Y-56763944D01*
X225457751Y-56750777D01*
X225449718Y-56735750D01*
X225444774Y-56719452D01*
X225442500Y-56696360D01*
X225442500Y-54933640D01*
X225444774Y-54910548D01*
X225449718Y-54894250D01*
X225457751Y-54879223D01*
X225468556Y-54866056D01*
X225481723Y-54855251D01*
X225496750Y-54847218D01*
X225513048Y-54842274D01*
X225536140Y-54840000D01*
X225948860Y-54840000D01*
X225971952Y-54842274D01*
X225971952Y-54842274D01*
G37*
G36*
X224701952Y-54842274D02*
X224718250Y-54847218D01*
X224733277Y-54855251D01*
X224746444Y-54866056D01*
X224757249Y-54879223D01*
X224765282Y-54894250D01*
X224770226Y-54910548D01*
X224772500Y-54933640D01*
X224772500Y-56696360D01*
X224770226Y-56719452D01*
X224765282Y-56735750D01*
X224757249Y-56750777D01*
X224746444Y-56763944D01*
X224733277Y-56774749D01*
X224718250Y-56782782D01*
X224701952Y-56787726D01*
X224678860Y-56790000D01*
X224266140Y-56790000D01*
X224243048Y-56787726D01*
X224226750Y-56782782D01*
X224211723Y-56774749D01*
X224198556Y-56763944D01*
X224187751Y-56750777D01*
X224179718Y-56735750D01*
X224174774Y-56719452D01*
X224172500Y-56696360D01*
X224172500Y-54933640D01*
X224174774Y-54910548D01*
X224179718Y-54894250D01*
X224187751Y-54879223D01*
X224198556Y-54866056D01*
X224211723Y-54855251D01*
X224226750Y-54847218D01*
X224243048Y-54842274D01*
X224266140Y-54840000D01*
X224678860Y-54840000D01*
X224701952Y-54842274D01*
X224701952Y-54842274D01*
G37*
G36*
X223431952Y-54842274D02*
X223448250Y-54847218D01*
X223463277Y-54855251D01*
X223476444Y-54866056D01*
X223487249Y-54879223D01*
X223495282Y-54894250D01*
X223500226Y-54910548D01*
X223502500Y-54933640D01*
X223502500Y-56696360D01*
X223500226Y-56719452D01*
X223495282Y-56735750D01*
X223487249Y-56750777D01*
X223476444Y-56763944D01*
X223463277Y-56774749D01*
X223448250Y-56782782D01*
X223431952Y-56787726D01*
X223408860Y-56790000D01*
X222996140Y-56790000D01*
X222973048Y-56787726D01*
X222956750Y-56782782D01*
X222941723Y-56774749D01*
X222928556Y-56763944D01*
X222917751Y-56750777D01*
X222909718Y-56735750D01*
X222904774Y-56719452D01*
X222902500Y-56696360D01*
X222902500Y-54933640D01*
X222904774Y-54910548D01*
X222909718Y-54894250D01*
X222917751Y-54879223D01*
X222928556Y-54866056D01*
X222941723Y-54855251D01*
X222956750Y-54847218D01*
X222973048Y-54842274D01*
X222996140Y-54840000D01*
X223408860Y-54840000D01*
X223431952Y-54842274D01*
X223431952Y-54842274D01*
G37*
G36*
X211049452Y-54842274D02*
X211065750Y-54847218D01*
X211080777Y-54855251D01*
X211093944Y-54866056D01*
X211104749Y-54879223D01*
X211112782Y-54894250D01*
X211117726Y-54910548D01*
X211120000Y-54933640D01*
X211120000Y-56696360D01*
X211117726Y-56719452D01*
X211112782Y-56735750D01*
X211104749Y-56750777D01*
X211093944Y-56763944D01*
X211080777Y-56774749D01*
X211065750Y-56782782D01*
X211049452Y-56787726D01*
X211026360Y-56790000D01*
X210613640Y-56790000D01*
X210590548Y-56787726D01*
X210574250Y-56782782D01*
X210559223Y-56774749D01*
X210546056Y-56763944D01*
X210535251Y-56750777D01*
X210527218Y-56735750D01*
X210522274Y-56719452D01*
X210520000Y-56696360D01*
X210520000Y-54933640D01*
X210522274Y-54910548D01*
X210527218Y-54894250D01*
X210535251Y-54879223D01*
X210546056Y-54866056D01*
X210559223Y-54855251D01*
X210574250Y-54847218D01*
X210590548Y-54842274D01*
X210613640Y-54840000D01*
X211026360Y-54840000D01*
X211049452Y-54842274D01*
X211049452Y-54842274D01*
G37*
G36*
X209779452Y-54842274D02*
X209795750Y-54847218D01*
X209810777Y-54855251D01*
X209823944Y-54866056D01*
X209834749Y-54879223D01*
X209842782Y-54894250D01*
X209847726Y-54910548D01*
X209850000Y-54933640D01*
X209850000Y-56696360D01*
X209847726Y-56719452D01*
X209842782Y-56735750D01*
X209834749Y-56750777D01*
X209823944Y-56763944D01*
X209810777Y-56774749D01*
X209795750Y-56782782D01*
X209779452Y-56787726D01*
X209756360Y-56790000D01*
X209343640Y-56790000D01*
X209320548Y-56787726D01*
X209304250Y-56782782D01*
X209289223Y-56774749D01*
X209276056Y-56763944D01*
X209265251Y-56750777D01*
X209257218Y-56735750D01*
X209252274Y-56719452D01*
X209250000Y-56696360D01*
X209250000Y-54933640D01*
X209252274Y-54910548D01*
X209257218Y-54894250D01*
X209265251Y-54879223D01*
X209276056Y-54866056D01*
X209289223Y-54855251D01*
X209304250Y-54847218D01*
X209320548Y-54842274D01*
X209343640Y-54840000D01*
X209756360Y-54840000D01*
X209779452Y-54842274D01*
X209779452Y-54842274D01*
G37*
G36*
X208509452Y-54842274D02*
X208525750Y-54847218D01*
X208540777Y-54855251D01*
X208553944Y-54866056D01*
X208564749Y-54879223D01*
X208572782Y-54894250D01*
X208577726Y-54910548D01*
X208580000Y-54933640D01*
X208580000Y-56696360D01*
X208577726Y-56719452D01*
X208572782Y-56735750D01*
X208564749Y-56750777D01*
X208553944Y-56763944D01*
X208540777Y-56774749D01*
X208525750Y-56782782D01*
X208509452Y-56787726D01*
X208486360Y-56790000D01*
X208073640Y-56790000D01*
X208050548Y-56787726D01*
X208034250Y-56782782D01*
X208019223Y-56774749D01*
X208006056Y-56763944D01*
X207995251Y-56750777D01*
X207987218Y-56735750D01*
X207982274Y-56719452D01*
X207980000Y-56696360D01*
X207980000Y-54933640D01*
X207982274Y-54910548D01*
X207987218Y-54894250D01*
X207995251Y-54879223D01*
X208006056Y-54866056D01*
X208019223Y-54855251D01*
X208034250Y-54847218D01*
X208050548Y-54842274D01*
X208073640Y-54840000D01*
X208486360Y-54840000D01*
X208509452Y-54842274D01*
X208509452Y-54842274D01*
G37*
G36*
X207239452Y-54842274D02*
X207255750Y-54847218D01*
X207270777Y-54855251D01*
X207283944Y-54866056D01*
X207294749Y-54879223D01*
X207302782Y-54894250D01*
X207307726Y-54910548D01*
X207310000Y-54933640D01*
X207310000Y-56696360D01*
X207307726Y-56719452D01*
X207302782Y-56735750D01*
X207294749Y-56750777D01*
X207283944Y-56763944D01*
X207270777Y-56774749D01*
X207255750Y-56782782D01*
X207239452Y-56787726D01*
X207216360Y-56790000D01*
X206803640Y-56790000D01*
X206780548Y-56787726D01*
X206764250Y-56782782D01*
X206749223Y-56774749D01*
X206736056Y-56763944D01*
X206725251Y-56750777D01*
X206717218Y-56735750D01*
X206712274Y-56719452D01*
X206710000Y-56696360D01*
X206710000Y-54933640D01*
X206712274Y-54910548D01*
X206717218Y-54894250D01*
X206725251Y-54879223D01*
X206736056Y-54866056D01*
X206749223Y-54855251D01*
X206764250Y-54847218D01*
X206780548Y-54842274D01*
X206803640Y-54840000D01*
X207216360Y-54840000D01*
X207239452Y-54842274D01*
X207239452Y-54842274D01*
G37*
G36*
X205969452Y-54842274D02*
X205985750Y-54847218D01*
X206000777Y-54855251D01*
X206013944Y-54866056D01*
X206024749Y-54879223D01*
X206032782Y-54894250D01*
X206037726Y-54910548D01*
X206040000Y-54933640D01*
X206040000Y-56696360D01*
X206037726Y-56719452D01*
X206032782Y-56735750D01*
X206024749Y-56750777D01*
X206013944Y-56763944D01*
X206000777Y-56774749D01*
X205985750Y-56782782D01*
X205969452Y-56787726D01*
X205946360Y-56790000D01*
X205533640Y-56790000D01*
X205510548Y-56787726D01*
X205494250Y-56782782D01*
X205479223Y-56774749D01*
X205466056Y-56763944D01*
X205455251Y-56750777D01*
X205447218Y-56735750D01*
X205442274Y-56719452D01*
X205440000Y-56696360D01*
X205440000Y-54933640D01*
X205442274Y-54910548D01*
X205447218Y-54894250D01*
X205455251Y-54879223D01*
X205466056Y-54866056D01*
X205479223Y-54855251D01*
X205494250Y-54847218D01*
X205510548Y-54842274D01*
X205533640Y-54840000D01*
X205946360Y-54840000D01*
X205969452Y-54842274D01*
X205969452Y-54842274D01*
G37*
G36*
X204699452Y-54842274D02*
X204715750Y-54847218D01*
X204730777Y-54855251D01*
X204743944Y-54866056D01*
X204754749Y-54879223D01*
X204762782Y-54894250D01*
X204767726Y-54910548D01*
X204770000Y-54933640D01*
X204770000Y-56696360D01*
X204767726Y-56719452D01*
X204762782Y-56735750D01*
X204754749Y-56750777D01*
X204743944Y-56763944D01*
X204730777Y-56774749D01*
X204715750Y-56782782D01*
X204699452Y-56787726D01*
X204676360Y-56790000D01*
X204263640Y-56790000D01*
X204240548Y-56787726D01*
X204224250Y-56782782D01*
X204209223Y-56774749D01*
X204196056Y-56763944D01*
X204185251Y-56750777D01*
X204177218Y-56735750D01*
X204172274Y-56719452D01*
X204170000Y-56696360D01*
X204170000Y-54933640D01*
X204172274Y-54910548D01*
X204177218Y-54894250D01*
X204185251Y-54879223D01*
X204196056Y-54866056D01*
X204209223Y-54855251D01*
X204224250Y-54847218D01*
X204240548Y-54842274D01*
X204263640Y-54840000D01*
X204676360Y-54840000D01*
X204699452Y-54842274D01*
X204699452Y-54842274D01*
G37*
G36*
X203429452Y-54842274D02*
X203445750Y-54847218D01*
X203460777Y-54855251D01*
X203473944Y-54866056D01*
X203484749Y-54879223D01*
X203492782Y-54894250D01*
X203497726Y-54910548D01*
X203500000Y-54933640D01*
X203500000Y-56696360D01*
X203497726Y-56719452D01*
X203492782Y-56735750D01*
X203484749Y-56750777D01*
X203473944Y-56763944D01*
X203460777Y-56774749D01*
X203445750Y-56782782D01*
X203429452Y-56787726D01*
X203406360Y-56790000D01*
X202993640Y-56790000D01*
X202970548Y-56787726D01*
X202954250Y-56782782D01*
X202939223Y-56774749D01*
X202926056Y-56763944D01*
X202915251Y-56750777D01*
X202907218Y-56735750D01*
X202902274Y-56719452D01*
X202900000Y-56696360D01*
X202900000Y-54933640D01*
X202902274Y-54910548D01*
X202907218Y-54894250D01*
X202915251Y-54879223D01*
X202926056Y-54866056D01*
X202939223Y-54855251D01*
X202954250Y-54847218D01*
X202970548Y-54842274D01*
X202993640Y-54840000D01*
X203406360Y-54840000D01*
X203429452Y-54842274D01*
X203429452Y-54842274D01*
G37*
G36*
X171394208Y-54303473D02*
X171535241Y-54317363D01*
X171761442Y-54385981D01*
X171761444Y-54385982D01*
X171761447Y-54385983D01*
X171969910Y-54497408D01*
X172152634Y-54647366D01*
X172302592Y-54830090D01*
X172414017Y-55038553D01*
X172414018Y-55038556D01*
X172414019Y-55038558D01*
X172482637Y-55264759D01*
X172505806Y-55500000D01*
X172482637Y-55735241D01*
X172414019Y-55961442D01*
X172414017Y-55961447D01*
X172302592Y-56169910D01*
X172152634Y-56352634D01*
X171969910Y-56502592D01*
X171761447Y-56614017D01*
X171761444Y-56614018D01*
X171761442Y-56614019D01*
X171535241Y-56682637D01*
X171395908Y-56696360D01*
X171358951Y-56700000D01*
X168641049Y-56700000D01*
X168604092Y-56696360D01*
X168464759Y-56682637D01*
X168238558Y-56614019D01*
X168238556Y-56614018D01*
X168238553Y-56614017D01*
X168030090Y-56502592D01*
X167847366Y-56352634D01*
X167697408Y-56169910D01*
X167585983Y-55961447D01*
X167585981Y-55961442D01*
X167517363Y-55735241D01*
X167494194Y-55500000D01*
X167517363Y-55264759D01*
X167585981Y-55038558D01*
X167585982Y-55038556D01*
X167585983Y-55038553D01*
X167697408Y-54830090D01*
X167847366Y-54647366D01*
X168030090Y-54497408D01*
X168238553Y-54385983D01*
X168238556Y-54385982D01*
X168238558Y-54385981D01*
X168464759Y-54317363D01*
X168605792Y-54303473D01*
X168641049Y-54300000D01*
X171358951Y-54300000D01*
X171394208Y-54303473D01*
X171394208Y-54303473D01*
G37*
G36*
X260394208Y-54303473D02*
X260535241Y-54317363D01*
X260761442Y-54385981D01*
X260761444Y-54385982D01*
X260761447Y-54385983D01*
X260969910Y-54497408D01*
X261152634Y-54647366D01*
X261302592Y-54830090D01*
X261414017Y-55038553D01*
X261414018Y-55038556D01*
X261414019Y-55038558D01*
X261482637Y-55264759D01*
X261505806Y-55500000D01*
X261482637Y-55735241D01*
X261414019Y-55961442D01*
X261414017Y-55961447D01*
X261302592Y-56169910D01*
X261152634Y-56352634D01*
X260969910Y-56502592D01*
X260761447Y-56614017D01*
X260761444Y-56614018D01*
X260761442Y-56614019D01*
X260535241Y-56682637D01*
X260395908Y-56696360D01*
X260358951Y-56700000D01*
X257641049Y-56700000D01*
X257604092Y-56696360D01*
X257464759Y-56682637D01*
X257238558Y-56614019D01*
X257238556Y-56614018D01*
X257238553Y-56614017D01*
X257030090Y-56502592D01*
X256847366Y-56352634D01*
X256697408Y-56169910D01*
X256585983Y-55961447D01*
X256585981Y-55961442D01*
X256517363Y-55735241D01*
X256494194Y-55500000D01*
X256517363Y-55264759D01*
X256585981Y-55038558D01*
X256585982Y-55038556D01*
X256585983Y-55038553D01*
X256697408Y-54830090D01*
X256847366Y-54647366D01*
X257030090Y-54497408D01*
X257238553Y-54385983D01*
X257238556Y-54385982D01*
X257238558Y-54385981D01*
X257464759Y-54317363D01*
X257605792Y-54303473D01*
X257641049Y-54300000D01*
X260358951Y-54300000D01*
X260394208Y-54303473D01*
X260394208Y-54303473D01*
G37*
G36*
X250466703Y-53461486D02*
X250757883Y-53582097D01*
X251019944Y-53757201D01*
X251242799Y-53980056D01*
X251417903Y-54242117D01*
X251538514Y-54533297D01*
X251600000Y-54842412D01*
X251600000Y-55157588D01*
X251538514Y-55466703D01*
X251417903Y-55757883D01*
X251242799Y-56019944D01*
X251019944Y-56242799D01*
X250757883Y-56417903D01*
X250466703Y-56538514D01*
X250157588Y-56600000D01*
X249842412Y-56600000D01*
X249533297Y-56538514D01*
X249242117Y-56417903D01*
X248980056Y-56242799D01*
X248757201Y-56019944D01*
X248582097Y-55757883D01*
X248461486Y-55466703D01*
X248400000Y-55157588D01*
X248400000Y-54842412D01*
X248461486Y-54533297D01*
X248582097Y-54242117D01*
X248757201Y-53980056D01*
X248980056Y-53757201D01*
X249242117Y-53582097D01*
X249533297Y-53461486D01*
X249842412Y-53400000D01*
X250157588Y-53400000D01*
X250466703Y-53461486D01*
X250466703Y-53461486D01*
G37*
G36*
X179466703Y-53461486D02*
X179757883Y-53582097D01*
X180019944Y-53757201D01*
X180242799Y-53980056D01*
X180417903Y-54242117D01*
X180538514Y-54533297D01*
X180600000Y-54842412D01*
X180600000Y-55157588D01*
X180538514Y-55466703D01*
X180417903Y-55757883D01*
X180242799Y-56019944D01*
X180019944Y-56242799D01*
X179757883Y-56417903D01*
X179466703Y-56538514D01*
X179157588Y-56600000D01*
X178842412Y-56600000D01*
X178533297Y-56538514D01*
X178242117Y-56417903D01*
X177980056Y-56242799D01*
X177757201Y-56019944D01*
X177582097Y-55757883D01*
X177461486Y-55466703D01*
X177400000Y-55157588D01*
X177400000Y-54842412D01*
X177461486Y-54533297D01*
X177582097Y-54242117D01*
X177757201Y-53980056D01*
X177980056Y-53757201D01*
X178242117Y-53582097D01*
X178533297Y-53461486D01*
X178842412Y-53400000D01*
X179157588Y-53400000D01*
X179466703Y-53461486D01*
X179466703Y-53461486D01*
G37*
G36*
X260394208Y-50803473D02*
X260535241Y-50817363D01*
X260761442Y-50885981D01*
X260761444Y-50885982D01*
X260761447Y-50885983D01*
X260969910Y-50997408D01*
X261152634Y-51147366D01*
X261302592Y-51330090D01*
X261414017Y-51538553D01*
X261414018Y-51538556D01*
X261414019Y-51538558D01*
X261482637Y-51764759D01*
X261505806Y-52000000D01*
X261482637Y-52235241D01*
X261414019Y-52461442D01*
X261414017Y-52461447D01*
X261302592Y-52669910D01*
X261152634Y-52852634D01*
X260969910Y-53002592D01*
X260761447Y-53114017D01*
X260761444Y-53114018D01*
X260761442Y-53114019D01*
X260535241Y-53182637D01*
X260394208Y-53196527D01*
X260358951Y-53200000D01*
X257641049Y-53200000D01*
X257605792Y-53196527D01*
X257464759Y-53182637D01*
X257238558Y-53114019D01*
X257238556Y-53114018D01*
X257238553Y-53114017D01*
X257030090Y-53002592D01*
X256847366Y-52852634D01*
X256697408Y-52669910D01*
X256585983Y-52461447D01*
X256585981Y-52461442D01*
X256517363Y-52235241D01*
X256494194Y-52000000D01*
X256517363Y-51764759D01*
X256585981Y-51538558D01*
X256585982Y-51538556D01*
X256585983Y-51538553D01*
X256697408Y-51330090D01*
X256847366Y-51147366D01*
X257030090Y-50997408D01*
X257238553Y-50885983D01*
X257238556Y-50885982D01*
X257238558Y-50885981D01*
X257464759Y-50817363D01*
X257605792Y-50803473D01*
X257641049Y-50800000D01*
X260358951Y-50800000D01*
X260394208Y-50803473D01*
X260394208Y-50803473D01*
G37*
G36*
X171394208Y-50803473D02*
X171535241Y-50817363D01*
X171761442Y-50885981D01*
X171761444Y-50885982D01*
X171761447Y-50885983D01*
X171969910Y-50997408D01*
X172152634Y-51147366D01*
X172302592Y-51330090D01*
X172414017Y-51538553D01*
X172414018Y-51538556D01*
X172414019Y-51538558D01*
X172482637Y-51764759D01*
X172505806Y-52000000D01*
X172482637Y-52235241D01*
X172414019Y-52461442D01*
X172414017Y-52461447D01*
X172302592Y-52669910D01*
X172152634Y-52852634D01*
X171969910Y-53002592D01*
X171761447Y-53114017D01*
X171761444Y-53114018D01*
X171761442Y-53114019D01*
X171535241Y-53182637D01*
X171394208Y-53196527D01*
X171358951Y-53200000D01*
X168641049Y-53200000D01*
X168605792Y-53196527D01*
X168464759Y-53182637D01*
X168238558Y-53114019D01*
X168238556Y-53114018D01*
X168238553Y-53114017D01*
X168030090Y-53002592D01*
X167847366Y-52852634D01*
X167697408Y-52669910D01*
X167585983Y-52461447D01*
X167585981Y-52461442D01*
X167517363Y-52235241D01*
X167494194Y-52000000D01*
X167517363Y-51764759D01*
X167585981Y-51538558D01*
X167585982Y-51538556D01*
X167585983Y-51538553D01*
X167697408Y-51330090D01*
X167847366Y-51147366D01*
X168030090Y-50997408D01*
X168238553Y-50885983D01*
X168238556Y-50885982D01*
X168238558Y-50885981D01*
X168464759Y-50817363D01*
X168605792Y-50803473D01*
X168641049Y-50800000D01*
X171358951Y-50800000D01*
X171394208Y-50803473D01*
X171394208Y-50803473D01*
G37*
G36*
X197714452Y-51032274D02*
X197730750Y-51037218D01*
X197745777Y-51045251D01*
X197758944Y-51056056D01*
X197769749Y-51069223D01*
X197777782Y-51084250D01*
X197782726Y-51100548D01*
X197785000Y-51123640D01*
X197785000Y-52886360D01*
X197782726Y-52909452D01*
X197777782Y-52925750D01*
X197769749Y-52940777D01*
X197758944Y-52953944D01*
X197745777Y-52964749D01*
X197730750Y-52972782D01*
X197714452Y-52977726D01*
X197691360Y-52980000D01*
X197278640Y-52980000D01*
X197255548Y-52977726D01*
X197239250Y-52972782D01*
X197224223Y-52964749D01*
X197211056Y-52953944D01*
X197200251Y-52940777D01*
X197192218Y-52925750D01*
X197187274Y-52909452D01*
X197185000Y-52886360D01*
X197185000Y-51123640D01*
X197187274Y-51100548D01*
X197192218Y-51084250D01*
X197200251Y-51069223D01*
X197211056Y-51056056D01*
X197224223Y-51045251D01*
X197239250Y-51037218D01*
X197255548Y-51032274D01*
X197278640Y-51030000D01*
X197691360Y-51030000D01*
X197714452Y-51032274D01*
X197714452Y-51032274D01*
G37*
G36*
X238989452Y-51032274D02*
X239005750Y-51037218D01*
X239020777Y-51045251D01*
X239033944Y-51056056D01*
X239044749Y-51069223D01*
X239052782Y-51084250D01*
X239057726Y-51100548D01*
X239060000Y-51123640D01*
X239060000Y-52886360D01*
X239057726Y-52909452D01*
X239052782Y-52925750D01*
X239044749Y-52940777D01*
X239033944Y-52953944D01*
X239020777Y-52964749D01*
X239005750Y-52972782D01*
X238989452Y-52977726D01*
X238966360Y-52980000D01*
X238553640Y-52980000D01*
X238530548Y-52977726D01*
X238514250Y-52972782D01*
X238499223Y-52964749D01*
X238486056Y-52953944D01*
X238475251Y-52940777D01*
X238467218Y-52925750D01*
X238462274Y-52909452D01*
X238460000Y-52886360D01*
X238460000Y-51123640D01*
X238462274Y-51100548D01*
X238467218Y-51084250D01*
X238475251Y-51069223D01*
X238486056Y-51056056D01*
X238499223Y-51045251D01*
X238514250Y-51037218D01*
X238530548Y-51032274D01*
X238553640Y-51030000D01*
X238966360Y-51030000D01*
X238989452Y-51032274D01*
X238989452Y-51032274D01*
G37*
G36*
X198984452Y-51032274D02*
X199000750Y-51037218D01*
X199015777Y-51045251D01*
X199028944Y-51056056D01*
X199039749Y-51069223D01*
X199047782Y-51084250D01*
X199052726Y-51100548D01*
X199055000Y-51123640D01*
X199055000Y-52886360D01*
X199052726Y-52909452D01*
X199047782Y-52925750D01*
X199039749Y-52940777D01*
X199028944Y-52953944D01*
X199015777Y-52964749D01*
X199000750Y-52972782D01*
X198984452Y-52977726D01*
X198961360Y-52980000D01*
X198548640Y-52980000D01*
X198525548Y-52977726D01*
X198509250Y-52972782D01*
X198494223Y-52964749D01*
X198481056Y-52953944D01*
X198470251Y-52940777D01*
X198462218Y-52925750D01*
X198457274Y-52909452D01*
X198455000Y-52886360D01*
X198455000Y-51123640D01*
X198457274Y-51100548D01*
X198462218Y-51084250D01*
X198470251Y-51069223D01*
X198481056Y-51056056D01*
X198494223Y-51045251D01*
X198509250Y-51037218D01*
X198525548Y-51032274D01*
X198548640Y-51030000D01*
X198961360Y-51030000D01*
X198984452Y-51032274D01*
X198984452Y-51032274D01*
G37*
G36*
X196444452Y-51032274D02*
X196460750Y-51037218D01*
X196475777Y-51045251D01*
X196488944Y-51056056D01*
X196499749Y-51069223D01*
X196507782Y-51084250D01*
X196512726Y-51100548D01*
X196515000Y-51123640D01*
X196515000Y-52886360D01*
X196512726Y-52909452D01*
X196507782Y-52925750D01*
X196499749Y-52940777D01*
X196488944Y-52953944D01*
X196475777Y-52964749D01*
X196460750Y-52972782D01*
X196444452Y-52977726D01*
X196421360Y-52980000D01*
X196008640Y-52980000D01*
X195985548Y-52977726D01*
X195969250Y-52972782D01*
X195954223Y-52964749D01*
X195941056Y-52953944D01*
X195930251Y-52940777D01*
X195922218Y-52925750D01*
X195917274Y-52909452D01*
X195915000Y-52886360D01*
X195915000Y-51123640D01*
X195917274Y-51100548D01*
X195922218Y-51084250D01*
X195930251Y-51069223D01*
X195941056Y-51056056D01*
X195954223Y-51045251D01*
X195969250Y-51037218D01*
X195985548Y-51032274D01*
X196008640Y-51030000D01*
X196421360Y-51030000D01*
X196444452Y-51032274D01*
X196444452Y-51032274D01*
G37*
G36*
X195174452Y-51032274D02*
X195190750Y-51037218D01*
X195205777Y-51045251D01*
X195218944Y-51056056D01*
X195229749Y-51069223D01*
X195237782Y-51084250D01*
X195242726Y-51100548D01*
X195245000Y-51123640D01*
X195245000Y-52886360D01*
X195242726Y-52909452D01*
X195237782Y-52925750D01*
X195229749Y-52940777D01*
X195218944Y-52953944D01*
X195205777Y-52964749D01*
X195190750Y-52972782D01*
X195174452Y-52977726D01*
X195151360Y-52980000D01*
X194738640Y-52980000D01*
X194715548Y-52977726D01*
X194699250Y-52972782D01*
X194684223Y-52964749D01*
X194671056Y-52953944D01*
X194660251Y-52940777D01*
X194652218Y-52925750D01*
X194647274Y-52909452D01*
X194645000Y-52886360D01*
X194645000Y-51123640D01*
X194647274Y-51100548D01*
X194652218Y-51084250D01*
X194660251Y-51069223D01*
X194671056Y-51056056D01*
X194684223Y-51045251D01*
X194699250Y-51037218D01*
X194715548Y-51032274D01*
X194738640Y-51030000D01*
X195151360Y-51030000D01*
X195174452Y-51032274D01*
X195174452Y-51032274D01*
G37*
G36*
X216764452Y-51032274D02*
X216780750Y-51037218D01*
X216795777Y-51045251D01*
X216808944Y-51056056D01*
X216819749Y-51069223D01*
X216827782Y-51084250D01*
X216832726Y-51100548D01*
X216835000Y-51123640D01*
X216835000Y-52886360D01*
X216832726Y-52909452D01*
X216827782Y-52925750D01*
X216819749Y-52940777D01*
X216808944Y-52953944D01*
X216795777Y-52964749D01*
X216780750Y-52972782D01*
X216764452Y-52977726D01*
X216741360Y-52980000D01*
X216328640Y-52980000D01*
X216305548Y-52977726D01*
X216289250Y-52972782D01*
X216274223Y-52964749D01*
X216261056Y-52953944D01*
X216250251Y-52940777D01*
X216242218Y-52925750D01*
X216237274Y-52909452D01*
X216235000Y-52886360D01*
X216235000Y-51123640D01*
X216237274Y-51100548D01*
X216242218Y-51084250D01*
X216250251Y-51069223D01*
X216261056Y-51056056D01*
X216274223Y-51045251D01*
X216289250Y-51037218D01*
X216305548Y-51032274D01*
X216328640Y-51030000D01*
X216741360Y-51030000D01*
X216764452Y-51032274D01*
X216764452Y-51032274D01*
G37*
G36*
X218034452Y-51032274D02*
X218050750Y-51037218D01*
X218065777Y-51045251D01*
X218078944Y-51056056D01*
X218089749Y-51069223D01*
X218097782Y-51084250D01*
X218102726Y-51100548D01*
X218105000Y-51123640D01*
X218105000Y-52886360D01*
X218102726Y-52909452D01*
X218097782Y-52925750D01*
X218089749Y-52940777D01*
X218078944Y-52953944D01*
X218065777Y-52964749D01*
X218050750Y-52972782D01*
X218034452Y-52977726D01*
X218011360Y-52980000D01*
X217598640Y-52980000D01*
X217575548Y-52977726D01*
X217559250Y-52972782D01*
X217544223Y-52964749D01*
X217531056Y-52953944D01*
X217520251Y-52940777D01*
X217512218Y-52925750D01*
X217507274Y-52909452D01*
X217505000Y-52886360D01*
X217505000Y-51123640D01*
X217507274Y-51100548D01*
X217512218Y-51084250D01*
X217520251Y-51069223D01*
X217531056Y-51056056D01*
X217544223Y-51045251D01*
X217559250Y-51037218D01*
X217575548Y-51032274D01*
X217598640Y-51030000D01*
X218011360Y-51030000D01*
X218034452Y-51032274D01*
X218034452Y-51032274D01*
G37*
G36*
X219304452Y-51032274D02*
X219320750Y-51037218D01*
X219335777Y-51045251D01*
X219348944Y-51056056D01*
X219359749Y-51069223D01*
X219367782Y-51084250D01*
X219372726Y-51100548D01*
X219375000Y-51123640D01*
X219375000Y-52886360D01*
X219372726Y-52909452D01*
X219367782Y-52925750D01*
X219359749Y-52940777D01*
X219348944Y-52953944D01*
X219335777Y-52964749D01*
X219320750Y-52972782D01*
X219304452Y-52977726D01*
X219281360Y-52980000D01*
X218868640Y-52980000D01*
X218845548Y-52977726D01*
X218829250Y-52972782D01*
X218814223Y-52964749D01*
X218801056Y-52953944D01*
X218790251Y-52940777D01*
X218782218Y-52925750D01*
X218777274Y-52909452D01*
X218775000Y-52886360D01*
X218775000Y-51123640D01*
X218777274Y-51100548D01*
X218782218Y-51084250D01*
X218790251Y-51069223D01*
X218801056Y-51056056D01*
X218814223Y-51045251D01*
X218829250Y-51037218D01*
X218845548Y-51032274D01*
X218868640Y-51030000D01*
X219281360Y-51030000D01*
X219304452Y-51032274D01*
X219304452Y-51032274D01*
G37*
G36*
X235179452Y-51032274D02*
X235195750Y-51037218D01*
X235210777Y-51045251D01*
X235223944Y-51056056D01*
X235234749Y-51069223D01*
X235242782Y-51084250D01*
X235247726Y-51100548D01*
X235250000Y-51123640D01*
X235250000Y-52886360D01*
X235247726Y-52909452D01*
X235242782Y-52925750D01*
X235234749Y-52940777D01*
X235223944Y-52953944D01*
X235210777Y-52964749D01*
X235195750Y-52972782D01*
X235179452Y-52977726D01*
X235156360Y-52980000D01*
X234743640Y-52980000D01*
X234720548Y-52977726D01*
X234704250Y-52972782D01*
X234689223Y-52964749D01*
X234676056Y-52953944D01*
X234665251Y-52940777D01*
X234657218Y-52925750D01*
X234652274Y-52909452D01*
X234650000Y-52886360D01*
X234650000Y-51123640D01*
X234652274Y-51100548D01*
X234657218Y-51084250D01*
X234665251Y-51069223D01*
X234676056Y-51056056D01*
X234689223Y-51045251D01*
X234704250Y-51037218D01*
X234720548Y-51032274D01*
X234743640Y-51030000D01*
X235156360Y-51030000D01*
X235179452Y-51032274D01*
X235179452Y-51032274D01*
G37*
G36*
X236449452Y-51032274D02*
X236465750Y-51037218D01*
X236480777Y-51045251D01*
X236493944Y-51056056D01*
X236504749Y-51069223D01*
X236512782Y-51084250D01*
X236517726Y-51100548D01*
X236520000Y-51123640D01*
X236520000Y-52886360D01*
X236517726Y-52909452D01*
X236512782Y-52925750D01*
X236504749Y-52940777D01*
X236493944Y-52953944D01*
X236480777Y-52964749D01*
X236465750Y-52972782D01*
X236449452Y-52977726D01*
X236426360Y-52980000D01*
X236013640Y-52980000D01*
X235990548Y-52977726D01*
X235974250Y-52972782D01*
X235959223Y-52964749D01*
X235946056Y-52953944D01*
X235935251Y-52940777D01*
X235927218Y-52925750D01*
X235922274Y-52909452D01*
X235920000Y-52886360D01*
X235920000Y-51123640D01*
X235922274Y-51100548D01*
X235927218Y-51084250D01*
X235935251Y-51069223D01*
X235946056Y-51056056D01*
X235959223Y-51045251D01*
X235974250Y-51037218D01*
X235990548Y-51032274D01*
X236013640Y-51030000D01*
X236426360Y-51030000D01*
X236449452Y-51032274D01*
X236449452Y-51032274D01*
G37*
G36*
X237719452Y-51032274D02*
X237735750Y-51037218D01*
X237750777Y-51045251D01*
X237763944Y-51056056D01*
X237774749Y-51069223D01*
X237782782Y-51084250D01*
X237787726Y-51100548D01*
X237790000Y-51123640D01*
X237790000Y-52886360D01*
X237787726Y-52909452D01*
X237782782Y-52925750D01*
X237774749Y-52940777D01*
X237763944Y-52953944D01*
X237750777Y-52964749D01*
X237735750Y-52972782D01*
X237719452Y-52977726D01*
X237696360Y-52980000D01*
X237283640Y-52980000D01*
X237260548Y-52977726D01*
X237244250Y-52972782D01*
X237229223Y-52964749D01*
X237216056Y-52953944D01*
X237205251Y-52940777D01*
X237197218Y-52925750D01*
X237192274Y-52909452D01*
X237190000Y-52886360D01*
X237190000Y-51123640D01*
X237192274Y-51100548D01*
X237197218Y-51084250D01*
X237205251Y-51069223D01*
X237216056Y-51056056D01*
X237229223Y-51045251D01*
X237244250Y-51037218D01*
X237260548Y-51032274D01*
X237283640Y-51030000D01*
X237696360Y-51030000D01*
X237719452Y-51032274D01*
X237719452Y-51032274D01*
G37*
G36*
X215494452Y-51032274D02*
X215510750Y-51037218D01*
X215525777Y-51045251D01*
X215538944Y-51056056D01*
X215549749Y-51069223D01*
X215557782Y-51084250D01*
X215562726Y-51100548D01*
X215565000Y-51123640D01*
X215565000Y-52886360D01*
X215562726Y-52909452D01*
X215557782Y-52925750D01*
X215549749Y-52940777D01*
X215538944Y-52953944D01*
X215525777Y-52964749D01*
X215510750Y-52972782D01*
X215494452Y-52977726D01*
X215471360Y-52980000D01*
X215058640Y-52980000D01*
X215035548Y-52977726D01*
X215019250Y-52972782D01*
X215004223Y-52964749D01*
X214991056Y-52953944D01*
X214980251Y-52940777D01*
X214972218Y-52925750D01*
X214967274Y-52909452D01*
X214965000Y-52886360D01*
X214965000Y-51123640D01*
X214967274Y-51100548D01*
X214972218Y-51084250D01*
X214980251Y-51069223D01*
X214991056Y-51056056D01*
X215004223Y-51045251D01*
X215019250Y-51037218D01*
X215035548Y-51032274D01*
X215058640Y-51030000D01*
X215471360Y-51030000D01*
X215494452Y-51032274D01*
X215494452Y-51032274D01*
G37*
G36*
X203429452Y-49892274D02*
X203445750Y-49897218D01*
X203460777Y-49905251D01*
X203473944Y-49916056D01*
X203484749Y-49929223D01*
X203492782Y-49944250D01*
X203497726Y-49960548D01*
X203500000Y-49983640D01*
X203500000Y-51746360D01*
X203497726Y-51769452D01*
X203492782Y-51785750D01*
X203484749Y-51800777D01*
X203473944Y-51813944D01*
X203460777Y-51824749D01*
X203445750Y-51832782D01*
X203429452Y-51837726D01*
X203406360Y-51840000D01*
X202993640Y-51840000D01*
X202970548Y-51837726D01*
X202954250Y-51832782D01*
X202939223Y-51824749D01*
X202926056Y-51813944D01*
X202915251Y-51800777D01*
X202907218Y-51785750D01*
X202902274Y-51769452D01*
X202900000Y-51746360D01*
X202900000Y-49983640D01*
X202902274Y-49960548D01*
X202907218Y-49944250D01*
X202915251Y-49929223D01*
X202926056Y-49916056D01*
X202939223Y-49905251D01*
X202954250Y-49897218D01*
X202970548Y-49892274D01*
X202993640Y-49890000D01*
X203406360Y-49890000D01*
X203429452Y-49892274D01*
X203429452Y-49892274D01*
G37*
G36*
X207239452Y-49892274D02*
X207255750Y-49897218D01*
X207270777Y-49905251D01*
X207283944Y-49916056D01*
X207294749Y-49929223D01*
X207302782Y-49944250D01*
X207307726Y-49960548D01*
X207310000Y-49983640D01*
X207310000Y-51746360D01*
X207307726Y-51769452D01*
X207302782Y-51785750D01*
X207294749Y-51800777D01*
X207283944Y-51813944D01*
X207270777Y-51824749D01*
X207255750Y-51832782D01*
X207239452Y-51837726D01*
X207216360Y-51840000D01*
X206803640Y-51840000D01*
X206780548Y-51837726D01*
X206764250Y-51832782D01*
X206749223Y-51824749D01*
X206736056Y-51813944D01*
X206725251Y-51800777D01*
X206717218Y-51785750D01*
X206712274Y-51769452D01*
X206710000Y-51746360D01*
X206710000Y-49983640D01*
X206712274Y-49960548D01*
X206717218Y-49944250D01*
X206725251Y-49929223D01*
X206736056Y-49916056D01*
X206749223Y-49905251D01*
X206764250Y-49897218D01*
X206780548Y-49892274D01*
X206803640Y-49890000D01*
X207216360Y-49890000D01*
X207239452Y-49892274D01*
X207239452Y-49892274D01*
G37*
G36*
X205969452Y-49892274D02*
X205985750Y-49897218D01*
X206000777Y-49905251D01*
X206013944Y-49916056D01*
X206024749Y-49929223D01*
X206032782Y-49944250D01*
X206037726Y-49960548D01*
X206040000Y-49983640D01*
X206040000Y-51746360D01*
X206037726Y-51769452D01*
X206032782Y-51785750D01*
X206024749Y-51800777D01*
X206013944Y-51813944D01*
X206000777Y-51824749D01*
X205985750Y-51832782D01*
X205969452Y-51837726D01*
X205946360Y-51840000D01*
X205533640Y-51840000D01*
X205510548Y-51837726D01*
X205494250Y-51832782D01*
X205479223Y-51824749D01*
X205466056Y-51813944D01*
X205455251Y-51800777D01*
X205447218Y-51785750D01*
X205442274Y-51769452D01*
X205440000Y-51746360D01*
X205440000Y-49983640D01*
X205442274Y-49960548D01*
X205447218Y-49944250D01*
X205455251Y-49929223D01*
X205466056Y-49916056D01*
X205479223Y-49905251D01*
X205494250Y-49897218D01*
X205510548Y-49892274D01*
X205533640Y-49890000D01*
X205946360Y-49890000D01*
X205969452Y-49892274D01*
X205969452Y-49892274D01*
G37*
G36*
X204699452Y-49892274D02*
X204715750Y-49897218D01*
X204730777Y-49905251D01*
X204743944Y-49916056D01*
X204754749Y-49929223D01*
X204762782Y-49944250D01*
X204767726Y-49960548D01*
X204770000Y-49983640D01*
X204770000Y-51746360D01*
X204767726Y-51769452D01*
X204762782Y-51785750D01*
X204754749Y-51800777D01*
X204743944Y-51813944D01*
X204730777Y-51824749D01*
X204715750Y-51832782D01*
X204699452Y-51837726D01*
X204676360Y-51840000D01*
X204263640Y-51840000D01*
X204240548Y-51837726D01*
X204224250Y-51832782D01*
X204209223Y-51824749D01*
X204196056Y-51813944D01*
X204185251Y-51800777D01*
X204177218Y-51785750D01*
X204172274Y-51769452D01*
X204170000Y-51746360D01*
X204170000Y-49983640D01*
X204172274Y-49960548D01*
X204177218Y-49944250D01*
X204185251Y-49929223D01*
X204196056Y-49916056D01*
X204209223Y-49905251D01*
X204224250Y-49897218D01*
X204240548Y-49892274D01*
X204263640Y-49890000D01*
X204676360Y-49890000D01*
X204699452Y-49892274D01*
X204699452Y-49892274D01*
G37*
G36*
X231051952Y-49892274D02*
X231068250Y-49897218D01*
X231083277Y-49905251D01*
X231096444Y-49916056D01*
X231107249Y-49929223D01*
X231115282Y-49944250D01*
X231120226Y-49960548D01*
X231122500Y-49983640D01*
X231122500Y-51746360D01*
X231120226Y-51769452D01*
X231115282Y-51785750D01*
X231107249Y-51800777D01*
X231096444Y-51813944D01*
X231083277Y-51824749D01*
X231068250Y-51832782D01*
X231051952Y-51837726D01*
X231028860Y-51840000D01*
X230616140Y-51840000D01*
X230593048Y-51837726D01*
X230576750Y-51832782D01*
X230561723Y-51824749D01*
X230548556Y-51813944D01*
X230537751Y-51800777D01*
X230529718Y-51785750D01*
X230524774Y-51769452D01*
X230522500Y-51746360D01*
X230522500Y-49983640D01*
X230524774Y-49960548D01*
X230529718Y-49944250D01*
X230537751Y-49929223D01*
X230548556Y-49916056D01*
X230561723Y-49905251D01*
X230576750Y-49897218D01*
X230593048Y-49892274D01*
X230616140Y-49890000D01*
X231028860Y-49890000D01*
X231051952Y-49892274D01*
X231051952Y-49892274D01*
G37*
G36*
X229781952Y-49892274D02*
X229798250Y-49897218D01*
X229813277Y-49905251D01*
X229826444Y-49916056D01*
X229837249Y-49929223D01*
X229845282Y-49944250D01*
X229850226Y-49960548D01*
X229852500Y-49983640D01*
X229852500Y-51746360D01*
X229850226Y-51769452D01*
X229845282Y-51785750D01*
X229837249Y-51800777D01*
X229826444Y-51813944D01*
X229813277Y-51824749D01*
X229798250Y-51832782D01*
X229781952Y-51837726D01*
X229758860Y-51840000D01*
X229346140Y-51840000D01*
X229323048Y-51837726D01*
X229306750Y-51832782D01*
X229291723Y-51824749D01*
X229278556Y-51813944D01*
X229267751Y-51800777D01*
X229259718Y-51785750D01*
X229254774Y-51769452D01*
X229252500Y-51746360D01*
X229252500Y-49983640D01*
X229254774Y-49960548D01*
X229259718Y-49944250D01*
X229267751Y-49929223D01*
X229278556Y-49916056D01*
X229291723Y-49905251D01*
X229306750Y-49897218D01*
X229323048Y-49892274D01*
X229346140Y-49890000D01*
X229758860Y-49890000D01*
X229781952Y-49892274D01*
X229781952Y-49892274D01*
G37*
G36*
X209779452Y-49892274D02*
X209795750Y-49897218D01*
X209810777Y-49905251D01*
X209823944Y-49916056D01*
X209834749Y-49929223D01*
X209842782Y-49944250D01*
X209847726Y-49960548D01*
X209850000Y-49983640D01*
X209850000Y-51746360D01*
X209847726Y-51769452D01*
X209842782Y-51785750D01*
X209834749Y-51800777D01*
X209823944Y-51813944D01*
X209810777Y-51824749D01*
X209795750Y-51832782D01*
X209779452Y-51837726D01*
X209756360Y-51840000D01*
X209343640Y-51840000D01*
X209320548Y-51837726D01*
X209304250Y-51832782D01*
X209289223Y-51824749D01*
X209276056Y-51813944D01*
X209265251Y-51800777D01*
X209257218Y-51785750D01*
X209252274Y-51769452D01*
X209250000Y-51746360D01*
X209250000Y-49983640D01*
X209252274Y-49960548D01*
X209257218Y-49944250D01*
X209265251Y-49929223D01*
X209276056Y-49916056D01*
X209289223Y-49905251D01*
X209304250Y-49897218D01*
X209320548Y-49892274D01*
X209343640Y-49890000D01*
X209756360Y-49890000D01*
X209779452Y-49892274D01*
X209779452Y-49892274D01*
G37*
G36*
X223431952Y-49892274D02*
X223448250Y-49897218D01*
X223463277Y-49905251D01*
X223476444Y-49916056D01*
X223487249Y-49929223D01*
X223495282Y-49944250D01*
X223500226Y-49960548D01*
X223502500Y-49983640D01*
X223502500Y-51746360D01*
X223500226Y-51769452D01*
X223495282Y-51785750D01*
X223487249Y-51800777D01*
X223476444Y-51813944D01*
X223463277Y-51824749D01*
X223448250Y-51832782D01*
X223431952Y-51837726D01*
X223408860Y-51840000D01*
X222996140Y-51840000D01*
X222973048Y-51837726D01*
X222956750Y-51832782D01*
X222941723Y-51824749D01*
X222928556Y-51813944D01*
X222917751Y-51800777D01*
X222909718Y-51785750D01*
X222904774Y-51769452D01*
X222902500Y-51746360D01*
X222902500Y-49983640D01*
X222904774Y-49960548D01*
X222909718Y-49944250D01*
X222917751Y-49929223D01*
X222928556Y-49916056D01*
X222941723Y-49905251D01*
X222956750Y-49897218D01*
X222973048Y-49892274D01*
X222996140Y-49890000D01*
X223408860Y-49890000D01*
X223431952Y-49892274D01*
X223431952Y-49892274D01*
G37*
G36*
X224701952Y-49892274D02*
X224718250Y-49897218D01*
X224733277Y-49905251D01*
X224746444Y-49916056D01*
X224757249Y-49929223D01*
X224765282Y-49944250D01*
X224770226Y-49960548D01*
X224772500Y-49983640D01*
X224772500Y-51746360D01*
X224770226Y-51769452D01*
X224765282Y-51785750D01*
X224757249Y-51800777D01*
X224746444Y-51813944D01*
X224733277Y-51824749D01*
X224718250Y-51832782D01*
X224701952Y-51837726D01*
X224678860Y-51840000D01*
X224266140Y-51840000D01*
X224243048Y-51837726D01*
X224226750Y-51832782D01*
X224211723Y-51824749D01*
X224198556Y-51813944D01*
X224187751Y-51800777D01*
X224179718Y-51785750D01*
X224174774Y-51769452D01*
X224172500Y-51746360D01*
X224172500Y-49983640D01*
X224174774Y-49960548D01*
X224179718Y-49944250D01*
X224187751Y-49929223D01*
X224198556Y-49916056D01*
X224211723Y-49905251D01*
X224226750Y-49897218D01*
X224243048Y-49892274D01*
X224266140Y-49890000D01*
X224678860Y-49890000D01*
X224701952Y-49892274D01*
X224701952Y-49892274D01*
G37*
G36*
X225971952Y-49892274D02*
X225988250Y-49897218D01*
X226003277Y-49905251D01*
X226016444Y-49916056D01*
X226027249Y-49929223D01*
X226035282Y-49944250D01*
X226040226Y-49960548D01*
X226042500Y-49983640D01*
X226042500Y-51746360D01*
X226040226Y-51769452D01*
X226035282Y-51785750D01*
X226027249Y-51800777D01*
X226016444Y-51813944D01*
X226003277Y-51824749D01*
X225988250Y-51832782D01*
X225971952Y-51837726D01*
X225948860Y-51840000D01*
X225536140Y-51840000D01*
X225513048Y-51837726D01*
X225496750Y-51832782D01*
X225481723Y-51824749D01*
X225468556Y-51813944D01*
X225457751Y-51800777D01*
X225449718Y-51785750D01*
X225444774Y-51769452D01*
X225442500Y-51746360D01*
X225442500Y-49983640D01*
X225444774Y-49960548D01*
X225449718Y-49944250D01*
X225457751Y-49929223D01*
X225468556Y-49916056D01*
X225481723Y-49905251D01*
X225496750Y-49897218D01*
X225513048Y-49892274D01*
X225536140Y-49890000D01*
X225948860Y-49890000D01*
X225971952Y-49892274D01*
X225971952Y-49892274D01*
G37*
G36*
X227241952Y-49892274D02*
X227258250Y-49897218D01*
X227273277Y-49905251D01*
X227286444Y-49916056D01*
X227297249Y-49929223D01*
X227305282Y-49944250D01*
X227310226Y-49960548D01*
X227312500Y-49983640D01*
X227312500Y-51746360D01*
X227310226Y-51769452D01*
X227305282Y-51785750D01*
X227297249Y-51800777D01*
X227286444Y-51813944D01*
X227273277Y-51824749D01*
X227258250Y-51832782D01*
X227241952Y-51837726D01*
X227218860Y-51840000D01*
X226806140Y-51840000D01*
X226783048Y-51837726D01*
X226766750Y-51832782D01*
X226751723Y-51824749D01*
X226738556Y-51813944D01*
X226727751Y-51800777D01*
X226719718Y-51785750D01*
X226714774Y-51769452D01*
X226712500Y-51746360D01*
X226712500Y-49983640D01*
X226714774Y-49960548D01*
X226719718Y-49944250D01*
X226727751Y-49929223D01*
X226738556Y-49916056D01*
X226751723Y-49905251D01*
X226766750Y-49897218D01*
X226783048Y-49892274D01*
X226806140Y-49890000D01*
X227218860Y-49890000D01*
X227241952Y-49892274D01*
X227241952Y-49892274D01*
G37*
G36*
X228511952Y-49892274D02*
X228528250Y-49897218D01*
X228543277Y-49905251D01*
X228556444Y-49916056D01*
X228567249Y-49929223D01*
X228575282Y-49944250D01*
X228580226Y-49960548D01*
X228582500Y-49983640D01*
X228582500Y-51746360D01*
X228580226Y-51769452D01*
X228575282Y-51785750D01*
X228567249Y-51800777D01*
X228556444Y-51813944D01*
X228543277Y-51824749D01*
X228528250Y-51832782D01*
X228511952Y-51837726D01*
X228488860Y-51840000D01*
X228076140Y-51840000D01*
X228053048Y-51837726D01*
X228036750Y-51832782D01*
X228021723Y-51824749D01*
X228008556Y-51813944D01*
X227997751Y-51800777D01*
X227989718Y-51785750D01*
X227984774Y-51769452D01*
X227982500Y-51746360D01*
X227982500Y-49983640D01*
X227984774Y-49960548D01*
X227989718Y-49944250D01*
X227997751Y-49929223D01*
X228008556Y-49916056D01*
X228021723Y-49905251D01*
X228036750Y-49897218D01*
X228053048Y-49892274D01*
X228076140Y-49890000D01*
X228488860Y-49890000D01*
X228511952Y-49892274D01*
X228511952Y-49892274D01*
G37*
G36*
X211049452Y-49892274D02*
X211065750Y-49897218D01*
X211080777Y-49905251D01*
X211093944Y-49916056D01*
X211104749Y-49929223D01*
X211112782Y-49944250D01*
X211117726Y-49960548D01*
X211120000Y-49983640D01*
X211120000Y-51746360D01*
X211117726Y-51769452D01*
X211112782Y-51785750D01*
X211104749Y-51800777D01*
X211093944Y-51813944D01*
X211080777Y-51824749D01*
X211065750Y-51832782D01*
X211049452Y-51837726D01*
X211026360Y-51840000D01*
X210613640Y-51840000D01*
X210590548Y-51837726D01*
X210574250Y-51832782D01*
X210559223Y-51824749D01*
X210546056Y-51813944D01*
X210535251Y-51800777D01*
X210527218Y-51785750D01*
X210522274Y-51769452D01*
X210520000Y-51746360D01*
X210520000Y-49983640D01*
X210522274Y-49960548D01*
X210527218Y-49944250D01*
X210535251Y-49929223D01*
X210546056Y-49916056D01*
X210559223Y-49905251D01*
X210574250Y-49897218D01*
X210590548Y-49892274D01*
X210613640Y-49890000D01*
X211026360Y-49890000D01*
X211049452Y-49892274D01*
X211049452Y-49892274D01*
G37*
G36*
X208509452Y-49892274D02*
X208525750Y-49897218D01*
X208540777Y-49905251D01*
X208553944Y-49916056D01*
X208564749Y-49929223D01*
X208572782Y-49944250D01*
X208577726Y-49960548D01*
X208580000Y-49983640D01*
X208580000Y-51746360D01*
X208577726Y-51769452D01*
X208572782Y-51785750D01*
X208564749Y-51800777D01*
X208553944Y-51813944D01*
X208540777Y-51824749D01*
X208525750Y-51832782D01*
X208509452Y-51837726D01*
X208486360Y-51840000D01*
X208073640Y-51840000D01*
X208050548Y-51837726D01*
X208034250Y-51832782D01*
X208019223Y-51824749D01*
X208006056Y-51813944D01*
X207995251Y-51800777D01*
X207987218Y-51785750D01*
X207982274Y-51769452D01*
X207980000Y-51746360D01*
X207980000Y-49983640D01*
X207982274Y-49960548D01*
X207987218Y-49944250D01*
X207995251Y-49929223D01*
X208006056Y-49916056D01*
X208019223Y-49905251D01*
X208034250Y-49897218D01*
X208050548Y-49892274D01*
X208073640Y-49890000D01*
X208486360Y-49890000D01*
X208509452Y-49892274D01*
X208509452Y-49892274D01*
G37*
G36*
X171394208Y-47303473D02*
X171535241Y-47317363D01*
X171761442Y-47385981D01*
X171761444Y-47385982D01*
X171761447Y-47385983D01*
X171969910Y-47497408D01*
X172152634Y-47647366D01*
X172302592Y-47830090D01*
X172414017Y-48038553D01*
X172414018Y-48038556D01*
X172414019Y-48038558D01*
X172482637Y-48264759D01*
X172505806Y-48500000D01*
X172482637Y-48735241D01*
X172414019Y-48961442D01*
X172414017Y-48961447D01*
X172302592Y-49169910D01*
X172152634Y-49352634D01*
X171969910Y-49502592D01*
X171761447Y-49614017D01*
X171761444Y-49614018D01*
X171761442Y-49614019D01*
X171535241Y-49682637D01*
X171394208Y-49696527D01*
X171358951Y-49700000D01*
X168641049Y-49700000D01*
X168605792Y-49696527D01*
X168464759Y-49682637D01*
X168238558Y-49614019D01*
X168238556Y-49614018D01*
X168238553Y-49614017D01*
X168030090Y-49502592D01*
X167847366Y-49352634D01*
X167697408Y-49169910D01*
X167585983Y-48961447D01*
X167585981Y-48961442D01*
X167517363Y-48735241D01*
X167494194Y-48500000D01*
X167517363Y-48264759D01*
X167585981Y-48038558D01*
X167585982Y-48038556D01*
X167585983Y-48038553D01*
X167697408Y-47830090D01*
X167847366Y-47647366D01*
X168030090Y-47497408D01*
X168238553Y-47385983D01*
X168238556Y-47385982D01*
X168238558Y-47385981D01*
X168464759Y-47317363D01*
X168605792Y-47303473D01*
X168641049Y-47300000D01*
X171358951Y-47300000D01*
X171394208Y-47303473D01*
X171394208Y-47303473D01*
G37*
G36*
X260394208Y-47303473D02*
X260535241Y-47317363D01*
X260761442Y-47385981D01*
X260761444Y-47385982D01*
X260761447Y-47385983D01*
X260969910Y-47497408D01*
X261152634Y-47647366D01*
X261302592Y-47830090D01*
X261414017Y-48038553D01*
X261414018Y-48038556D01*
X261414019Y-48038558D01*
X261482637Y-48264759D01*
X261505806Y-48500000D01*
X261482637Y-48735241D01*
X261414019Y-48961442D01*
X261414017Y-48961447D01*
X261302592Y-49169910D01*
X261152634Y-49352634D01*
X260969910Y-49502592D01*
X260761447Y-49614017D01*
X260761444Y-49614018D01*
X260761442Y-49614019D01*
X260535241Y-49682637D01*
X260394208Y-49696527D01*
X260358951Y-49700000D01*
X257641049Y-49700000D01*
X257605792Y-49696527D01*
X257464759Y-49682637D01*
X257238558Y-49614019D01*
X257238556Y-49614018D01*
X257238553Y-49614017D01*
X257030090Y-49502592D01*
X256847366Y-49352634D01*
X256697408Y-49169910D01*
X256585983Y-48961447D01*
X256585981Y-48961442D01*
X256517363Y-48735241D01*
X256494194Y-48500000D01*
X256517363Y-48264759D01*
X256585981Y-48038558D01*
X256585982Y-48038556D01*
X256585983Y-48038553D01*
X256697408Y-47830090D01*
X256847366Y-47647366D01*
X257030090Y-47497408D01*
X257238553Y-47385983D01*
X257238556Y-47385982D01*
X257238558Y-47385981D01*
X257464759Y-47317363D01*
X257605792Y-47303473D01*
X257641049Y-47300000D01*
X260358951Y-47300000D01*
X260394208Y-47303473D01*
X260394208Y-47303473D01*
G37*
G36*
X190420522Y-47444039D02*
X190454053Y-47454211D01*
X190484960Y-47470731D01*
X190512043Y-47492957D01*
X190534269Y-47520040D01*
X190550789Y-47550947D01*
X190560961Y-47584478D01*
X190565000Y-47625487D01*
X190565000Y-48404513D01*
X190560961Y-48445522D01*
X190550789Y-48479053D01*
X190534269Y-48509960D01*
X190512043Y-48537043D01*
X190484960Y-48559269D01*
X190454053Y-48575789D01*
X190420522Y-48585961D01*
X190379513Y-48590000D01*
X189350487Y-48590000D01*
X189309478Y-48585961D01*
X189275947Y-48575789D01*
X189245040Y-48559269D01*
X189217957Y-48537043D01*
X189195731Y-48509960D01*
X189179211Y-48479053D01*
X189169039Y-48445522D01*
X189165000Y-48404513D01*
X189165000Y-47625487D01*
X189169039Y-47584478D01*
X189179211Y-47550947D01*
X189195731Y-47520040D01*
X189217957Y-47492957D01*
X189245040Y-47470731D01*
X189275947Y-47454211D01*
X189309478Y-47444039D01*
X189350487Y-47440000D01*
X190379513Y-47440000D01*
X190420522Y-47444039D01*
X190420522Y-47444039D01*
G37*
G36*
X223758022Y-47444039D02*
X223791553Y-47454211D01*
X223822460Y-47470731D01*
X223849543Y-47492957D01*
X223871769Y-47520040D01*
X223888289Y-47550947D01*
X223898461Y-47584478D01*
X223902500Y-47625487D01*
X223902500Y-48404513D01*
X223898461Y-48445522D01*
X223888289Y-48479053D01*
X223871769Y-48509960D01*
X223849543Y-48537043D01*
X223822460Y-48559269D01*
X223791553Y-48575789D01*
X223758022Y-48585961D01*
X223717013Y-48590000D01*
X222687987Y-48590000D01*
X222646978Y-48585961D01*
X222613447Y-48575789D01*
X222582540Y-48559269D01*
X222555457Y-48537043D01*
X222533231Y-48509960D01*
X222516711Y-48479053D01*
X222506539Y-48445522D01*
X222502500Y-48404513D01*
X222502500Y-47625487D01*
X222506539Y-47584478D01*
X222516711Y-47550947D01*
X222533231Y-47520040D01*
X222555457Y-47492957D01*
X222582540Y-47470731D01*
X222613447Y-47454211D01*
X222646978Y-47444039D01*
X222687987Y-47440000D01*
X223717013Y-47440000D01*
X223758022Y-47444039D01*
X223758022Y-47444039D01*
G37*
G36*
X203755522Y-47444039D02*
X203789053Y-47454211D01*
X203819960Y-47470731D01*
X203847043Y-47492957D01*
X203869269Y-47520040D01*
X203885789Y-47550947D01*
X203895961Y-47584478D01*
X203900000Y-47625487D01*
X203900000Y-48404513D01*
X203895961Y-48445522D01*
X203885789Y-48479053D01*
X203869269Y-48509960D01*
X203847043Y-48537043D01*
X203819960Y-48559269D01*
X203789053Y-48575789D01*
X203755522Y-48585961D01*
X203714513Y-48590000D01*
X202685487Y-48590000D01*
X202644478Y-48585961D01*
X202610947Y-48575789D01*
X202580040Y-48559269D01*
X202552957Y-48537043D01*
X202530731Y-48509960D01*
X202514211Y-48479053D01*
X202504039Y-48445522D01*
X202500000Y-48404513D01*
X202500000Y-47625487D01*
X202504039Y-47584478D01*
X202514211Y-47550947D01*
X202530731Y-47520040D01*
X202552957Y-47492957D01*
X202580040Y-47470731D01*
X202610947Y-47454211D01*
X202644478Y-47444039D01*
X202685487Y-47440000D01*
X203714513Y-47440000D01*
X203755522Y-47444039D01*
X203755522Y-47444039D01*
G37*
G36*
X207565522Y-47371539D02*
X207599053Y-47381711D01*
X207629960Y-47398231D01*
X207657043Y-47420457D01*
X207679269Y-47447540D01*
X207695789Y-47478447D01*
X207705961Y-47511978D01*
X207710000Y-47552987D01*
X207710000Y-48332013D01*
X207705961Y-48373022D01*
X207695789Y-48406553D01*
X207679269Y-48437460D01*
X207657043Y-48464543D01*
X207629960Y-48486769D01*
X207599053Y-48503289D01*
X207565522Y-48513461D01*
X207524513Y-48517500D01*
X206495487Y-48517500D01*
X206454478Y-48513461D01*
X206420947Y-48503289D01*
X206390040Y-48486769D01*
X206362957Y-48464543D01*
X206340731Y-48437460D01*
X206324211Y-48406553D01*
X206314039Y-48373022D01*
X206310000Y-48332013D01*
X206310000Y-47552987D01*
X206314039Y-47511978D01*
X206324211Y-47478447D01*
X206340731Y-47447540D01*
X206362957Y-47420457D01*
X206390040Y-47398231D01*
X206420947Y-47381711D01*
X206454478Y-47371539D01*
X206495487Y-47367500D01*
X207524513Y-47367500D01*
X207565522Y-47371539D01*
X207565522Y-47371539D01*
G37*
G36*
X205660522Y-47371539D02*
X205694053Y-47381711D01*
X205724960Y-47398231D01*
X205752043Y-47420457D01*
X205774269Y-47447540D01*
X205790789Y-47478447D01*
X205800961Y-47511978D01*
X205805000Y-47552987D01*
X205805000Y-48332013D01*
X205800961Y-48373022D01*
X205790789Y-48406553D01*
X205774269Y-48437460D01*
X205752043Y-48464543D01*
X205724960Y-48486769D01*
X205694053Y-48503289D01*
X205660522Y-48513461D01*
X205619513Y-48517500D01*
X204590487Y-48517500D01*
X204549478Y-48513461D01*
X204515947Y-48503289D01*
X204485040Y-48486769D01*
X204457957Y-48464543D01*
X204435731Y-48437460D01*
X204419211Y-48406553D01*
X204409039Y-48373022D01*
X204405000Y-48332013D01*
X204405000Y-47552987D01*
X204409039Y-47511978D01*
X204419211Y-47478447D01*
X204435731Y-47447540D01*
X204457957Y-47420457D01*
X204485040Y-47398231D01*
X204515947Y-47381711D01*
X204549478Y-47371539D01*
X204590487Y-47367500D01*
X205619513Y-47367500D01*
X205660522Y-47371539D01*
X205660522Y-47371539D01*
G37*
G36*
X209470522Y-47371539D02*
X209504053Y-47381711D01*
X209534960Y-47398231D01*
X209562043Y-47420457D01*
X209584269Y-47447540D01*
X209600789Y-47478447D01*
X209610961Y-47511978D01*
X209615000Y-47552987D01*
X209615000Y-48332013D01*
X209610961Y-48373022D01*
X209600789Y-48406553D01*
X209584269Y-48437460D01*
X209562043Y-48464543D01*
X209534960Y-48486769D01*
X209504053Y-48503289D01*
X209470522Y-48513461D01*
X209429513Y-48517500D01*
X208400487Y-48517500D01*
X208359478Y-48513461D01*
X208325947Y-48503289D01*
X208295040Y-48486769D01*
X208267957Y-48464543D01*
X208245731Y-48437460D01*
X208229211Y-48406553D01*
X208219039Y-48373022D01*
X208215000Y-48332013D01*
X208215000Y-47552987D01*
X208219039Y-47511978D01*
X208229211Y-47478447D01*
X208245731Y-47447540D01*
X208267957Y-47420457D01*
X208295040Y-47398231D01*
X208325947Y-47381711D01*
X208359478Y-47371539D01*
X208400487Y-47367500D01*
X209429513Y-47367500D01*
X209470522Y-47371539D01*
X209470522Y-47371539D01*
G37*
G36*
X225663022Y-47371539D02*
X225696553Y-47381711D01*
X225727460Y-47398231D01*
X225754543Y-47420457D01*
X225776769Y-47447540D01*
X225793289Y-47478447D01*
X225803461Y-47511978D01*
X225807500Y-47552987D01*
X225807500Y-48332013D01*
X225803461Y-48373022D01*
X225793289Y-48406553D01*
X225776769Y-48437460D01*
X225754543Y-48464543D01*
X225727460Y-48486769D01*
X225696553Y-48503289D01*
X225663022Y-48513461D01*
X225622013Y-48517500D01*
X224592987Y-48517500D01*
X224551978Y-48513461D01*
X224518447Y-48503289D01*
X224487540Y-48486769D01*
X224460457Y-48464543D01*
X224438231Y-48437460D01*
X224421711Y-48406553D01*
X224411539Y-48373022D01*
X224407500Y-48332013D01*
X224407500Y-47552987D01*
X224411539Y-47511978D01*
X224421711Y-47478447D01*
X224438231Y-47447540D01*
X224460457Y-47420457D01*
X224487540Y-47398231D01*
X224518447Y-47381711D01*
X224551978Y-47371539D01*
X224592987Y-47367500D01*
X225622013Y-47367500D01*
X225663022Y-47371539D01*
X225663022Y-47371539D01*
G37*
G36*
X227568022Y-47371539D02*
X227601553Y-47381711D01*
X227632460Y-47398231D01*
X227659543Y-47420457D01*
X227681769Y-47447540D01*
X227698289Y-47478447D01*
X227708461Y-47511978D01*
X227712500Y-47552987D01*
X227712500Y-48332013D01*
X227708461Y-48373022D01*
X227698289Y-48406553D01*
X227681769Y-48437460D01*
X227659543Y-48464543D01*
X227632460Y-48486769D01*
X227601553Y-48503289D01*
X227568022Y-48513461D01*
X227527013Y-48517500D01*
X226497987Y-48517500D01*
X226456978Y-48513461D01*
X226423447Y-48503289D01*
X226392540Y-48486769D01*
X226365457Y-48464543D01*
X226343231Y-48437460D01*
X226326711Y-48406553D01*
X226316539Y-48373022D01*
X226312500Y-48332013D01*
X226312500Y-47552987D01*
X226316539Y-47511978D01*
X226326711Y-47478447D01*
X226343231Y-47447540D01*
X226365457Y-47420457D01*
X226392540Y-47398231D01*
X226423447Y-47381711D01*
X226456978Y-47371539D01*
X226497987Y-47367500D01*
X227527013Y-47367500D01*
X227568022Y-47371539D01*
X227568022Y-47371539D01*
G37*
G36*
X229473022Y-47371539D02*
X229506553Y-47381711D01*
X229537460Y-47398231D01*
X229564543Y-47420457D01*
X229586769Y-47447540D01*
X229603289Y-47478447D01*
X229613461Y-47511978D01*
X229617500Y-47552987D01*
X229617500Y-48332013D01*
X229613461Y-48373022D01*
X229603289Y-48406553D01*
X229586769Y-48437460D01*
X229564543Y-48464543D01*
X229537460Y-48486769D01*
X229506553Y-48503289D01*
X229473022Y-48513461D01*
X229432013Y-48517500D01*
X228402987Y-48517500D01*
X228361978Y-48513461D01*
X228328447Y-48503289D01*
X228297540Y-48486769D01*
X228270457Y-48464543D01*
X228248231Y-48437460D01*
X228231711Y-48406553D01*
X228221539Y-48373022D01*
X228217500Y-48332013D01*
X228217500Y-47552987D01*
X228221539Y-47511978D01*
X228231711Y-47478447D01*
X228248231Y-47447540D01*
X228270457Y-47420457D01*
X228297540Y-47398231D01*
X228328447Y-47381711D01*
X228361978Y-47371539D01*
X228402987Y-47367500D01*
X229432013Y-47367500D01*
X229473022Y-47371539D01*
X229473022Y-47371539D01*
G37*
G36*
X197714452Y-46082274D02*
X197730750Y-46087218D01*
X197745777Y-46095251D01*
X197758944Y-46106056D01*
X197769749Y-46119223D01*
X197777782Y-46134250D01*
X197782726Y-46150548D01*
X197785000Y-46173640D01*
X197785000Y-47936360D01*
X197782726Y-47959452D01*
X197777782Y-47975750D01*
X197769749Y-47990777D01*
X197758944Y-48003944D01*
X197745777Y-48014749D01*
X197730750Y-48022782D01*
X197714452Y-48027726D01*
X197691360Y-48030000D01*
X197278640Y-48030000D01*
X197255548Y-48027726D01*
X197239250Y-48022782D01*
X197224223Y-48014749D01*
X197211056Y-48003944D01*
X197200251Y-47990777D01*
X197192218Y-47975750D01*
X197187274Y-47959452D01*
X197185000Y-47936360D01*
X197185000Y-46173640D01*
X197187274Y-46150548D01*
X197192218Y-46134250D01*
X197200251Y-46119223D01*
X197211056Y-46106056D01*
X197224223Y-46095251D01*
X197239250Y-46087218D01*
X197255548Y-46082274D01*
X197278640Y-46080000D01*
X197691360Y-46080000D01*
X197714452Y-46082274D01*
X197714452Y-46082274D01*
G37*
G36*
X196444452Y-46082274D02*
X196460750Y-46087218D01*
X196475777Y-46095251D01*
X196488944Y-46106056D01*
X196499749Y-46119223D01*
X196507782Y-46134250D01*
X196512726Y-46150548D01*
X196515000Y-46173640D01*
X196515000Y-47936360D01*
X196512726Y-47959452D01*
X196507782Y-47975750D01*
X196499749Y-47990777D01*
X196488944Y-48003944D01*
X196475777Y-48014749D01*
X196460750Y-48022782D01*
X196444452Y-48027726D01*
X196421360Y-48030000D01*
X196008640Y-48030000D01*
X195985548Y-48027726D01*
X195969250Y-48022782D01*
X195954223Y-48014749D01*
X195941056Y-48003944D01*
X195930251Y-47990777D01*
X195922218Y-47975750D01*
X195917274Y-47959452D01*
X195915000Y-47936360D01*
X195915000Y-46173640D01*
X195917274Y-46150548D01*
X195922218Y-46134250D01*
X195930251Y-46119223D01*
X195941056Y-46106056D01*
X195954223Y-46095251D01*
X195969250Y-46087218D01*
X195985548Y-46082274D01*
X196008640Y-46080000D01*
X196421360Y-46080000D01*
X196444452Y-46082274D01*
X196444452Y-46082274D01*
G37*
G36*
X195174452Y-46082274D02*
X195190750Y-46087218D01*
X195205777Y-46095251D01*
X195218944Y-46106056D01*
X195229749Y-46119223D01*
X195237782Y-46134250D01*
X195242726Y-46150548D01*
X195245000Y-46173640D01*
X195245000Y-47936360D01*
X195242726Y-47959452D01*
X195237782Y-47975750D01*
X195229749Y-47990777D01*
X195218944Y-48003944D01*
X195205777Y-48014749D01*
X195190750Y-48022782D01*
X195174452Y-48027726D01*
X195151360Y-48030000D01*
X194738640Y-48030000D01*
X194715548Y-48027726D01*
X194699250Y-48022782D01*
X194684223Y-48014749D01*
X194671056Y-48003944D01*
X194660251Y-47990777D01*
X194652218Y-47975750D01*
X194647274Y-47959452D01*
X194645000Y-47936360D01*
X194645000Y-46173640D01*
X194647274Y-46150548D01*
X194652218Y-46134250D01*
X194660251Y-46119223D01*
X194671056Y-46106056D01*
X194684223Y-46095251D01*
X194699250Y-46087218D01*
X194715548Y-46082274D01*
X194738640Y-46080000D01*
X195151360Y-46080000D01*
X195174452Y-46082274D01*
X195174452Y-46082274D01*
G37*
G36*
X198984452Y-46082274D02*
X199000750Y-46087218D01*
X199015777Y-46095251D01*
X199028944Y-46106056D01*
X199039749Y-46119223D01*
X199047782Y-46134250D01*
X199052726Y-46150548D01*
X199055000Y-46173640D01*
X199055000Y-47936360D01*
X199052726Y-47959452D01*
X199047782Y-47975750D01*
X199039749Y-47990777D01*
X199028944Y-48003944D01*
X199015777Y-48014749D01*
X199000750Y-48022782D01*
X198984452Y-48027726D01*
X198961360Y-48030000D01*
X198548640Y-48030000D01*
X198525548Y-48027726D01*
X198509250Y-48022782D01*
X198494223Y-48014749D01*
X198481056Y-48003944D01*
X198470251Y-47990777D01*
X198462218Y-47975750D01*
X198457274Y-47959452D01*
X198455000Y-47936360D01*
X198455000Y-46173640D01*
X198457274Y-46150548D01*
X198462218Y-46134250D01*
X198470251Y-46119223D01*
X198481056Y-46106056D01*
X198494223Y-46095251D01*
X198509250Y-46087218D01*
X198525548Y-46082274D01*
X198548640Y-46080000D01*
X198961360Y-46080000D01*
X198984452Y-46082274D01*
X198984452Y-46082274D01*
G37*
G36*
X238989452Y-46082274D02*
X239005750Y-46087218D01*
X239020777Y-46095251D01*
X239033944Y-46106056D01*
X239044749Y-46119223D01*
X239052782Y-46134250D01*
X239057726Y-46150548D01*
X239060000Y-46173640D01*
X239060000Y-47936360D01*
X239057726Y-47959452D01*
X239052782Y-47975750D01*
X239044749Y-47990777D01*
X239033944Y-48003944D01*
X239020777Y-48014749D01*
X239005750Y-48022782D01*
X238989452Y-48027726D01*
X238966360Y-48030000D01*
X238553640Y-48030000D01*
X238530548Y-48027726D01*
X238514250Y-48022782D01*
X238499223Y-48014749D01*
X238486056Y-48003944D01*
X238475251Y-47990777D01*
X238467218Y-47975750D01*
X238462274Y-47959452D01*
X238460000Y-47936360D01*
X238460000Y-46173640D01*
X238462274Y-46150548D01*
X238467218Y-46134250D01*
X238475251Y-46119223D01*
X238486056Y-46106056D01*
X238499223Y-46095251D01*
X238514250Y-46087218D01*
X238530548Y-46082274D01*
X238553640Y-46080000D01*
X238966360Y-46080000D01*
X238989452Y-46082274D01*
X238989452Y-46082274D01*
G37*
G36*
X237719452Y-46082274D02*
X237735750Y-46087218D01*
X237750777Y-46095251D01*
X237763944Y-46106056D01*
X237774749Y-46119223D01*
X237782782Y-46134250D01*
X237787726Y-46150548D01*
X237790000Y-46173640D01*
X237790000Y-47936360D01*
X237787726Y-47959452D01*
X237782782Y-47975750D01*
X237774749Y-47990777D01*
X237763944Y-48003944D01*
X237750777Y-48014749D01*
X237735750Y-48022782D01*
X237719452Y-48027726D01*
X237696360Y-48030000D01*
X237283640Y-48030000D01*
X237260548Y-48027726D01*
X237244250Y-48022782D01*
X237229223Y-48014749D01*
X237216056Y-48003944D01*
X237205251Y-47990777D01*
X237197218Y-47975750D01*
X237192274Y-47959452D01*
X237190000Y-47936360D01*
X237190000Y-46173640D01*
X237192274Y-46150548D01*
X237197218Y-46134250D01*
X237205251Y-46119223D01*
X237216056Y-46106056D01*
X237229223Y-46095251D01*
X237244250Y-46087218D01*
X237260548Y-46082274D01*
X237283640Y-46080000D01*
X237696360Y-46080000D01*
X237719452Y-46082274D01*
X237719452Y-46082274D01*
G37*
G36*
X236449452Y-46082274D02*
X236465750Y-46087218D01*
X236480777Y-46095251D01*
X236493944Y-46106056D01*
X236504749Y-46119223D01*
X236512782Y-46134250D01*
X236517726Y-46150548D01*
X236520000Y-46173640D01*
X236520000Y-47936360D01*
X236517726Y-47959452D01*
X236512782Y-47975750D01*
X236504749Y-47990777D01*
X236493944Y-48003944D01*
X236480777Y-48014749D01*
X236465750Y-48022782D01*
X236449452Y-48027726D01*
X236426360Y-48030000D01*
X236013640Y-48030000D01*
X235990548Y-48027726D01*
X235974250Y-48022782D01*
X235959223Y-48014749D01*
X235946056Y-48003944D01*
X235935251Y-47990777D01*
X235927218Y-47975750D01*
X235922274Y-47959452D01*
X235920000Y-47936360D01*
X235920000Y-46173640D01*
X235922274Y-46150548D01*
X235927218Y-46134250D01*
X235935251Y-46119223D01*
X235946056Y-46106056D01*
X235959223Y-46095251D01*
X235974250Y-46087218D01*
X235990548Y-46082274D01*
X236013640Y-46080000D01*
X236426360Y-46080000D01*
X236449452Y-46082274D01*
X236449452Y-46082274D01*
G37*
G36*
X235179452Y-46082274D02*
X235195750Y-46087218D01*
X235210777Y-46095251D01*
X235223944Y-46106056D01*
X235234749Y-46119223D01*
X235242782Y-46134250D01*
X235247726Y-46150548D01*
X235250000Y-46173640D01*
X235250000Y-47936360D01*
X235247726Y-47959452D01*
X235242782Y-47975750D01*
X235234749Y-47990777D01*
X235223944Y-48003944D01*
X235210777Y-48014749D01*
X235195750Y-48022782D01*
X235179452Y-48027726D01*
X235156360Y-48030000D01*
X234743640Y-48030000D01*
X234720548Y-48027726D01*
X234704250Y-48022782D01*
X234689223Y-48014749D01*
X234676056Y-48003944D01*
X234665251Y-47990777D01*
X234657218Y-47975750D01*
X234652274Y-47959452D01*
X234650000Y-47936360D01*
X234650000Y-46173640D01*
X234652274Y-46150548D01*
X234657218Y-46134250D01*
X234665251Y-46119223D01*
X234676056Y-46106056D01*
X234689223Y-46095251D01*
X234704250Y-46087218D01*
X234720548Y-46082274D01*
X234743640Y-46080000D01*
X235156360Y-46080000D01*
X235179452Y-46082274D01*
X235179452Y-46082274D01*
G37*
G36*
X219304452Y-46082274D02*
X219320750Y-46087218D01*
X219335777Y-46095251D01*
X219348944Y-46106056D01*
X219359749Y-46119223D01*
X219367782Y-46134250D01*
X219372726Y-46150548D01*
X219375000Y-46173640D01*
X219375000Y-47936360D01*
X219372726Y-47959452D01*
X219367782Y-47975750D01*
X219359749Y-47990777D01*
X219348944Y-48003944D01*
X219335777Y-48014749D01*
X219320750Y-48022782D01*
X219304452Y-48027726D01*
X219281360Y-48030000D01*
X218868640Y-48030000D01*
X218845548Y-48027726D01*
X218829250Y-48022782D01*
X218814223Y-48014749D01*
X218801056Y-48003944D01*
X218790251Y-47990777D01*
X218782218Y-47975750D01*
X218777274Y-47959452D01*
X218775000Y-47936360D01*
X218775000Y-46173640D01*
X218777274Y-46150548D01*
X218782218Y-46134250D01*
X218790251Y-46119223D01*
X218801056Y-46106056D01*
X218814223Y-46095251D01*
X218829250Y-46087218D01*
X218845548Y-46082274D01*
X218868640Y-46080000D01*
X219281360Y-46080000D01*
X219304452Y-46082274D01*
X219304452Y-46082274D01*
G37*
G36*
X218034452Y-46082274D02*
X218050750Y-46087218D01*
X218065777Y-46095251D01*
X218078944Y-46106056D01*
X218089749Y-46119223D01*
X218097782Y-46134250D01*
X218102726Y-46150548D01*
X218105000Y-46173640D01*
X218105000Y-47936360D01*
X218102726Y-47959452D01*
X218097782Y-47975750D01*
X218089749Y-47990777D01*
X218078944Y-48003944D01*
X218065777Y-48014749D01*
X218050750Y-48022782D01*
X218034452Y-48027726D01*
X218011360Y-48030000D01*
X217598640Y-48030000D01*
X217575548Y-48027726D01*
X217559250Y-48022782D01*
X217544223Y-48014749D01*
X217531056Y-48003944D01*
X217520251Y-47990777D01*
X217512218Y-47975750D01*
X217507274Y-47959452D01*
X217505000Y-47936360D01*
X217505000Y-46173640D01*
X217507274Y-46150548D01*
X217512218Y-46134250D01*
X217520251Y-46119223D01*
X217531056Y-46106056D01*
X217544223Y-46095251D01*
X217559250Y-46087218D01*
X217575548Y-46082274D01*
X217598640Y-46080000D01*
X218011360Y-46080000D01*
X218034452Y-46082274D01*
X218034452Y-46082274D01*
G37*
G36*
X216764452Y-46082274D02*
X216780750Y-46087218D01*
X216795777Y-46095251D01*
X216808944Y-46106056D01*
X216819749Y-46119223D01*
X216827782Y-46134250D01*
X216832726Y-46150548D01*
X216835000Y-46173640D01*
X216835000Y-47936360D01*
X216832726Y-47959452D01*
X216827782Y-47975750D01*
X216819749Y-47990777D01*
X216808944Y-48003944D01*
X216795777Y-48014749D01*
X216780750Y-48022782D01*
X216764452Y-48027726D01*
X216741360Y-48030000D01*
X216328640Y-48030000D01*
X216305548Y-48027726D01*
X216289250Y-48022782D01*
X216274223Y-48014749D01*
X216261056Y-48003944D01*
X216250251Y-47990777D01*
X216242218Y-47975750D01*
X216237274Y-47959452D01*
X216235000Y-47936360D01*
X216235000Y-46173640D01*
X216237274Y-46150548D01*
X216242218Y-46134250D01*
X216250251Y-46119223D01*
X216261056Y-46106056D01*
X216274223Y-46095251D01*
X216289250Y-46087218D01*
X216305548Y-46082274D01*
X216328640Y-46080000D01*
X216741360Y-46080000D01*
X216764452Y-46082274D01*
X216764452Y-46082274D01*
G37*
G36*
X215494452Y-46082274D02*
X215510750Y-46087218D01*
X215525777Y-46095251D01*
X215538944Y-46106056D01*
X215549749Y-46119223D01*
X215557782Y-46134250D01*
X215562726Y-46150548D01*
X215565000Y-46173640D01*
X215565000Y-47936360D01*
X215562726Y-47959452D01*
X215557782Y-47975750D01*
X215549749Y-47990777D01*
X215538944Y-48003944D01*
X215525777Y-48014749D01*
X215510750Y-48022782D01*
X215494452Y-48027726D01*
X215471360Y-48030000D01*
X215058640Y-48030000D01*
X215035548Y-48027726D01*
X215019250Y-48022782D01*
X215004223Y-48014749D01*
X214991056Y-48003944D01*
X214980251Y-47990777D01*
X214972218Y-47975750D01*
X214967274Y-47959452D01*
X214965000Y-47936360D01*
X214965000Y-46173640D01*
X214967274Y-46150548D01*
X214972218Y-46134250D01*
X214980251Y-46119223D01*
X214991056Y-46106056D01*
X215004223Y-46095251D01*
X215019250Y-46087218D01*
X215035548Y-46082274D01*
X215058640Y-46080000D01*
X215471360Y-46080000D01*
X215494452Y-46082274D01*
X215494452Y-46082274D01*
G37*
G36*
X186130000Y-47890000D02*
X183630000Y-47890000D01*
X183630000Y-46090000D01*
X186130000Y-46090000D01*
X186130000Y-47890000D01*
X186130000Y-47890000D01*
G37*
G36*
X182130000Y-47890000D02*
X179630000Y-47890000D01*
X179630000Y-46090000D01*
X182130000Y-46090000D01*
X182130000Y-47890000D01*
X182130000Y-47890000D01*
G37*
G36*
X190420522Y-45394039D02*
X190454053Y-45404211D01*
X190484960Y-45420731D01*
X190512043Y-45442957D01*
X190534269Y-45470040D01*
X190550789Y-45500947D01*
X190560961Y-45534478D01*
X190565000Y-45575487D01*
X190565000Y-46354513D01*
X190560961Y-46395522D01*
X190550789Y-46429053D01*
X190534269Y-46459960D01*
X190512043Y-46487043D01*
X190484960Y-46509269D01*
X190454053Y-46525789D01*
X190420522Y-46535961D01*
X190379513Y-46540000D01*
X189350487Y-46540000D01*
X189309478Y-46535961D01*
X189275947Y-46525789D01*
X189245040Y-46509269D01*
X189217957Y-46487043D01*
X189195731Y-46459960D01*
X189179211Y-46429053D01*
X189169039Y-46395522D01*
X189165000Y-46354513D01*
X189165000Y-45575487D01*
X189169039Y-45534478D01*
X189179211Y-45500947D01*
X189195731Y-45470040D01*
X189217957Y-45442957D01*
X189245040Y-45420731D01*
X189275947Y-45404211D01*
X189309478Y-45394039D01*
X189350487Y-45390000D01*
X190379513Y-45390000D01*
X190420522Y-45394039D01*
X190420522Y-45394039D01*
G37*
G36*
X203755522Y-45394039D02*
X203789053Y-45404211D01*
X203819960Y-45420731D01*
X203847043Y-45442957D01*
X203869269Y-45470040D01*
X203885789Y-45500947D01*
X203895961Y-45534478D01*
X203900000Y-45575487D01*
X203900000Y-46354513D01*
X203895961Y-46395522D01*
X203885789Y-46429053D01*
X203869269Y-46459960D01*
X203847043Y-46487043D01*
X203819960Y-46509269D01*
X203789053Y-46525789D01*
X203755522Y-46535961D01*
X203714513Y-46540000D01*
X202685487Y-46540000D01*
X202644478Y-46535961D01*
X202610947Y-46525789D01*
X202580040Y-46509269D01*
X202552957Y-46487043D01*
X202530731Y-46459960D01*
X202514211Y-46429053D01*
X202504039Y-46395522D01*
X202500000Y-46354513D01*
X202500000Y-45575487D01*
X202504039Y-45534478D01*
X202514211Y-45500947D01*
X202530731Y-45470040D01*
X202552957Y-45442957D01*
X202580040Y-45420731D01*
X202610947Y-45404211D01*
X202644478Y-45394039D01*
X202685487Y-45390000D01*
X203714513Y-45390000D01*
X203755522Y-45394039D01*
X203755522Y-45394039D01*
G37*
G36*
X223758022Y-45394039D02*
X223791553Y-45404211D01*
X223822460Y-45420731D01*
X223849543Y-45442957D01*
X223871769Y-45470040D01*
X223888289Y-45500947D01*
X223898461Y-45534478D01*
X223902500Y-45575487D01*
X223902500Y-46354513D01*
X223898461Y-46395522D01*
X223888289Y-46429053D01*
X223871769Y-46459960D01*
X223849543Y-46487043D01*
X223822460Y-46509269D01*
X223791553Y-46525789D01*
X223758022Y-46535961D01*
X223717013Y-46540000D01*
X222687987Y-46540000D01*
X222646978Y-46535961D01*
X222613447Y-46525789D01*
X222582540Y-46509269D01*
X222555457Y-46487043D01*
X222533231Y-46459960D01*
X222516711Y-46429053D01*
X222506539Y-46395522D01*
X222502500Y-46354513D01*
X222502500Y-45575487D01*
X222506539Y-45534478D01*
X222516711Y-45500947D01*
X222533231Y-45470040D01*
X222555457Y-45442957D01*
X222582540Y-45420731D01*
X222613447Y-45404211D01*
X222646978Y-45394039D01*
X222687987Y-45390000D01*
X223717013Y-45390000D01*
X223758022Y-45394039D01*
X223758022Y-45394039D01*
G37*
G36*
X205660522Y-45321539D02*
X205694053Y-45331711D01*
X205724960Y-45348231D01*
X205752043Y-45370457D01*
X205774269Y-45397540D01*
X205790789Y-45428447D01*
X205800961Y-45461978D01*
X205805000Y-45502987D01*
X205805000Y-46282013D01*
X205800961Y-46323022D01*
X205790789Y-46356553D01*
X205774269Y-46387460D01*
X205752043Y-46414543D01*
X205724960Y-46436769D01*
X205694053Y-46453289D01*
X205660522Y-46463461D01*
X205619513Y-46467500D01*
X204590487Y-46467500D01*
X204549478Y-46463461D01*
X204515947Y-46453289D01*
X204485040Y-46436769D01*
X204457957Y-46414543D01*
X204435731Y-46387460D01*
X204419211Y-46356553D01*
X204409039Y-46323022D01*
X204405000Y-46282013D01*
X204405000Y-45502987D01*
X204409039Y-45461978D01*
X204419211Y-45428447D01*
X204435731Y-45397540D01*
X204457957Y-45370457D01*
X204485040Y-45348231D01*
X204515947Y-45331711D01*
X204549478Y-45321539D01*
X204590487Y-45317500D01*
X205619513Y-45317500D01*
X205660522Y-45321539D01*
X205660522Y-45321539D01*
G37*
G36*
X207565522Y-45321539D02*
X207599053Y-45331711D01*
X207629960Y-45348231D01*
X207657043Y-45370457D01*
X207679269Y-45397540D01*
X207695789Y-45428447D01*
X207705961Y-45461978D01*
X207710000Y-45502987D01*
X207710000Y-46282013D01*
X207705961Y-46323022D01*
X207695789Y-46356553D01*
X207679269Y-46387460D01*
X207657043Y-46414543D01*
X207629960Y-46436769D01*
X207599053Y-46453289D01*
X207565522Y-46463461D01*
X207524513Y-46467500D01*
X206495487Y-46467500D01*
X206454478Y-46463461D01*
X206420947Y-46453289D01*
X206390040Y-46436769D01*
X206362957Y-46414543D01*
X206340731Y-46387460D01*
X206324211Y-46356553D01*
X206314039Y-46323022D01*
X206310000Y-46282013D01*
X206310000Y-45502987D01*
X206314039Y-45461978D01*
X206324211Y-45428447D01*
X206340731Y-45397540D01*
X206362957Y-45370457D01*
X206390040Y-45348231D01*
X206420947Y-45331711D01*
X206454478Y-45321539D01*
X206495487Y-45317500D01*
X207524513Y-45317500D01*
X207565522Y-45321539D01*
X207565522Y-45321539D01*
G37*
G36*
X209470522Y-45321539D02*
X209504053Y-45331711D01*
X209534960Y-45348231D01*
X209562043Y-45370457D01*
X209584269Y-45397540D01*
X209600789Y-45428447D01*
X209610961Y-45461978D01*
X209615000Y-45502987D01*
X209615000Y-46282013D01*
X209610961Y-46323022D01*
X209600789Y-46356553D01*
X209584269Y-46387460D01*
X209562043Y-46414543D01*
X209534960Y-46436769D01*
X209504053Y-46453289D01*
X209470522Y-46463461D01*
X209429513Y-46467500D01*
X208400487Y-46467500D01*
X208359478Y-46463461D01*
X208325947Y-46453289D01*
X208295040Y-46436769D01*
X208267957Y-46414543D01*
X208245731Y-46387460D01*
X208229211Y-46356553D01*
X208219039Y-46323022D01*
X208215000Y-46282013D01*
X208215000Y-45502987D01*
X208219039Y-45461978D01*
X208229211Y-45428447D01*
X208245731Y-45397540D01*
X208267957Y-45370457D01*
X208295040Y-45348231D01*
X208325947Y-45331711D01*
X208359478Y-45321539D01*
X208400487Y-45317500D01*
X209429513Y-45317500D01*
X209470522Y-45321539D01*
X209470522Y-45321539D01*
G37*
G36*
X225663022Y-45321539D02*
X225696553Y-45331711D01*
X225727460Y-45348231D01*
X225754543Y-45370457D01*
X225776769Y-45397540D01*
X225793289Y-45428447D01*
X225803461Y-45461978D01*
X225807500Y-45502987D01*
X225807500Y-46282013D01*
X225803461Y-46323022D01*
X225793289Y-46356553D01*
X225776769Y-46387460D01*
X225754543Y-46414543D01*
X225727460Y-46436769D01*
X225696553Y-46453289D01*
X225663022Y-46463461D01*
X225622013Y-46467500D01*
X224592987Y-46467500D01*
X224551978Y-46463461D01*
X224518447Y-46453289D01*
X224487540Y-46436769D01*
X224460457Y-46414543D01*
X224438231Y-46387460D01*
X224421711Y-46356553D01*
X224411539Y-46323022D01*
X224407500Y-46282013D01*
X224407500Y-45502987D01*
X224411539Y-45461978D01*
X224421711Y-45428447D01*
X224438231Y-45397540D01*
X224460457Y-45370457D01*
X224487540Y-45348231D01*
X224518447Y-45331711D01*
X224551978Y-45321539D01*
X224592987Y-45317500D01*
X225622013Y-45317500D01*
X225663022Y-45321539D01*
X225663022Y-45321539D01*
G37*
G36*
X227568022Y-45321539D02*
X227601553Y-45331711D01*
X227632460Y-45348231D01*
X227659543Y-45370457D01*
X227681769Y-45397540D01*
X227698289Y-45428447D01*
X227708461Y-45461978D01*
X227712500Y-45502987D01*
X227712500Y-46282013D01*
X227708461Y-46323022D01*
X227698289Y-46356553D01*
X227681769Y-46387460D01*
X227659543Y-46414543D01*
X227632460Y-46436769D01*
X227601553Y-46453289D01*
X227568022Y-46463461D01*
X227527013Y-46467500D01*
X226497987Y-46467500D01*
X226456978Y-46463461D01*
X226423447Y-46453289D01*
X226392540Y-46436769D01*
X226365457Y-46414543D01*
X226343231Y-46387460D01*
X226326711Y-46356553D01*
X226316539Y-46323022D01*
X226312500Y-46282013D01*
X226312500Y-45502987D01*
X226316539Y-45461978D01*
X226326711Y-45428447D01*
X226343231Y-45397540D01*
X226365457Y-45370457D01*
X226392540Y-45348231D01*
X226423447Y-45331711D01*
X226456978Y-45321539D01*
X226497987Y-45317500D01*
X227527013Y-45317500D01*
X227568022Y-45321539D01*
X227568022Y-45321539D01*
G37*
G36*
X229473022Y-45321539D02*
X229506553Y-45331711D01*
X229537460Y-45348231D01*
X229564543Y-45370457D01*
X229586769Y-45397540D01*
X229603289Y-45428447D01*
X229613461Y-45461978D01*
X229617500Y-45502987D01*
X229617500Y-46282013D01*
X229613461Y-46323022D01*
X229603289Y-46356553D01*
X229586769Y-46387460D01*
X229564543Y-46414543D01*
X229537460Y-46436769D01*
X229506553Y-46453289D01*
X229473022Y-46463461D01*
X229432013Y-46467500D01*
X228402987Y-46467500D01*
X228361978Y-46463461D01*
X228328447Y-46453289D01*
X228297540Y-46436769D01*
X228270457Y-46414543D01*
X228248231Y-46387460D01*
X228231711Y-46356553D01*
X228221539Y-46323022D01*
X228217500Y-46282013D01*
X228217500Y-45502987D01*
X228221539Y-45461978D01*
X228231711Y-45428447D01*
X228248231Y-45397540D01*
X228270457Y-45370457D01*
X228297540Y-45348231D01*
X228328447Y-45331711D01*
X228361978Y-45321539D01*
X228402987Y-45317500D01*
X229432013Y-45317500D01*
X229473022Y-45321539D01*
X229473022Y-45321539D01*
G37*
G36*
X261067241Y-43810921D02*
X261167965Y-43841475D01*
X261260780Y-43891085D01*
X261342142Y-43957858D01*
X261408915Y-44039220D01*
X261458525Y-44132035D01*
X261489079Y-44232759D01*
X261500000Y-44343640D01*
X261500000Y-45656360D01*
X261489079Y-45767241D01*
X261458525Y-45867965D01*
X261408915Y-45960780D01*
X261342142Y-46042142D01*
X261260780Y-46108915D01*
X261167965Y-46158525D01*
X261067241Y-46189079D01*
X260956360Y-46200000D01*
X257043640Y-46200000D01*
X256932759Y-46189079D01*
X256832035Y-46158525D01*
X256739220Y-46108915D01*
X256657858Y-46042142D01*
X256591085Y-45960780D01*
X256541475Y-45867965D01*
X256510921Y-45767241D01*
X256500000Y-45656360D01*
X256500000Y-44343640D01*
X256510921Y-44232759D01*
X256541475Y-44132035D01*
X256591085Y-44039220D01*
X256657858Y-43957858D01*
X256739220Y-43891085D01*
X256832035Y-43841475D01*
X256932759Y-43810921D01*
X257043640Y-43800000D01*
X260956360Y-43800000D01*
X261067241Y-43810921D01*
X261067241Y-43810921D01*
G37*
G36*
X172067241Y-43810921D02*
X172167965Y-43841475D01*
X172260780Y-43891085D01*
X172342142Y-43957858D01*
X172408915Y-44039220D01*
X172458525Y-44132035D01*
X172489079Y-44232759D01*
X172500000Y-44343640D01*
X172500000Y-45656360D01*
X172489079Y-45767241D01*
X172458525Y-45867965D01*
X172408915Y-45960780D01*
X172342142Y-46042142D01*
X172260780Y-46108915D01*
X172167965Y-46158525D01*
X172067241Y-46189079D01*
X171956360Y-46200000D01*
X168043640Y-46200000D01*
X167932759Y-46189079D01*
X167832035Y-46158525D01*
X167739220Y-46108915D01*
X167657858Y-46042142D01*
X167591085Y-45960780D01*
X167541475Y-45867965D01*
X167510921Y-45767241D01*
X167500000Y-45656360D01*
X167500000Y-44343640D01*
X167510921Y-44232759D01*
X167541475Y-44132035D01*
X167591085Y-44039220D01*
X167657858Y-43957858D01*
X167739220Y-43891085D01*
X167832035Y-43841475D01*
X167932759Y-43810921D01*
X168043640Y-43800000D01*
X171956360Y-43800000D01*
X172067241Y-43810921D01*
X172067241Y-43810921D01*
G37*
G36*
X222374047Y-38021704D02*
X222374050Y-38021705D01*
X222656801Y-38107476D01*
X222656803Y-38107477D01*
X222917389Y-38246763D01*
X223145792Y-38434208D01*
X223333237Y-38662611D01*
X223472523Y-38923196D01*
X223558296Y-39205952D01*
X223580000Y-39426316D01*
X223580000Y-42573684D01*
X223558296Y-42794048D01*
X223472523Y-43076804D01*
X223333237Y-43337389D01*
X223145792Y-43565792D01*
X222917389Y-43753237D01*
X222673436Y-43883633D01*
X222656802Y-43892524D01*
X222490700Y-43942910D01*
X222374048Y-43978296D01*
X222080000Y-44007257D01*
X221785953Y-43978296D01*
X221669301Y-43942910D01*
X221503199Y-43892524D01*
X221486565Y-43883633D01*
X221242612Y-43753237D01*
X221014209Y-43565792D01*
X220826764Y-43337389D01*
X220687478Y-43076804D01*
X220601705Y-42794048D01*
X220580001Y-42573684D01*
X220580000Y-39426317D01*
X220601704Y-39205953D01*
X220687477Y-38923197D01*
X220826763Y-38662611D01*
X221014208Y-38434208D01*
X221242611Y-38246763D01*
X221503196Y-38107477D01*
X221503198Y-38107476D01*
X221785949Y-38021705D01*
X221785952Y-38021704D01*
X222080000Y-37992743D01*
X222374047Y-38021704D01*
X222374047Y-38021704D01*
G37*
G36*
X232374047Y-38021704D02*
X232374050Y-38021705D01*
X232656801Y-38107476D01*
X232656803Y-38107477D01*
X232917389Y-38246763D01*
X233145792Y-38434208D01*
X233333237Y-38662611D01*
X233472523Y-38923196D01*
X233558296Y-39205952D01*
X233580000Y-39426316D01*
X233580000Y-42573684D01*
X233558296Y-42794048D01*
X233472523Y-43076804D01*
X233333237Y-43337389D01*
X233145792Y-43565792D01*
X232917389Y-43753237D01*
X232673436Y-43883633D01*
X232656802Y-43892524D01*
X232490700Y-43942910D01*
X232374048Y-43978296D01*
X232080000Y-44007257D01*
X231785953Y-43978296D01*
X231669301Y-43942910D01*
X231503199Y-43892524D01*
X231486565Y-43883633D01*
X231242612Y-43753237D01*
X231014209Y-43565792D01*
X230826764Y-43337389D01*
X230687478Y-43076804D01*
X230601705Y-42794048D01*
X230580001Y-42573684D01*
X230580000Y-39426317D01*
X230601704Y-39205953D01*
X230687477Y-38923197D01*
X230826763Y-38662611D01*
X231014208Y-38434208D01*
X231242611Y-38246763D01*
X231503196Y-38107477D01*
X231503198Y-38107476D01*
X231785949Y-38021705D01*
X231785952Y-38021704D01*
X232080000Y-37992743D01*
X232374047Y-38021704D01*
X232374047Y-38021704D01*
G37*
G36*
X212374047Y-38021704D02*
X212374050Y-38021705D01*
X212656801Y-38107476D01*
X212656803Y-38107477D01*
X212917389Y-38246763D01*
X213145792Y-38434208D01*
X213333237Y-38662611D01*
X213472523Y-38923196D01*
X213558296Y-39205952D01*
X213580000Y-39426316D01*
X213580000Y-42573684D01*
X213558296Y-42794048D01*
X213472523Y-43076804D01*
X213333237Y-43337389D01*
X213145792Y-43565792D01*
X212917389Y-43753237D01*
X212673436Y-43883633D01*
X212656802Y-43892524D01*
X212490700Y-43942910D01*
X212374048Y-43978296D01*
X212080000Y-44007257D01*
X211785953Y-43978296D01*
X211669301Y-43942910D01*
X211503199Y-43892524D01*
X211486565Y-43883633D01*
X211242612Y-43753237D01*
X211014209Y-43565792D01*
X210826764Y-43337389D01*
X210687478Y-43076804D01*
X210601705Y-42794048D01*
X210580001Y-42573684D01*
X210580000Y-39426317D01*
X210601704Y-39205953D01*
X210687477Y-38923197D01*
X210826763Y-38662611D01*
X211014208Y-38434208D01*
X211242611Y-38246763D01*
X211503196Y-38107477D01*
X211503198Y-38107476D01*
X211785949Y-38021705D01*
X211785952Y-38021704D01*
X212080000Y-37992743D01*
X212374047Y-38021704D01*
X212374047Y-38021704D01*
G37*
G36*
X202374047Y-38021704D02*
X202374050Y-38021705D01*
X202656801Y-38107476D01*
X202656803Y-38107477D01*
X202917389Y-38246763D01*
X203145792Y-38434208D01*
X203333237Y-38662611D01*
X203472523Y-38923196D01*
X203558296Y-39205952D01*
X203580000Y-39426316D01*
X203580000Y-42573684D01*
X203558296Y-42794048D01*
X203472523Y-43076804D01*
X203333237Y-43337389D01*
X203145792Y-43565792D01*
X202917389Y-43753237D01*
X202673436Y-43883633D01*
X202656802Y-43892524D01*
X202490700Y-43942910D01*
X202374048Y-43978296D01*
X202080000Y-44007257D01*
X201785953Y-43978296D01*
X201669301Y-43942910D01*
X201503199Y-43892524D01*
X201486565Y-43883633D01*
X201242612Y-43753237D01*
X201014209Y-43565792D01*
X200826764Y-43337389D01*
X200687478Y-43076804D01*
X200601705Y-42794048D01*
X200580001Y-42573684D01*
X200580000Y-39426317D01*
X200601704Y-39205953D01*
X200687477Y-38923197D01*
X200826763Y-38662611D01*
X201014208Y-38434208D01*
X201242611Y-38246763D01*
X201503196Y-38107477D01*
X201503198Y-38107476D01*
X201785949Y-38021705D01*
X201785952Y-38021704D01*
X202080000Y-37992743D01*
X202374047Y-38021704D01*
X202374047Y-38021704D01*
G37*
G36*
X242374047Y-38021704D02*
X242374050Y-38021705D01*
X242656801Y-38107476D01*
X242656803Y-38107477D01*
X242917389Y-38246763D01*
X243145792Y-38434208D01*
X243333237Y-38662611D01*
X243472523Y-38923196D01*
X243558296Y-39205952D01*
X243580000Y-39426316D01*
X243580000Y-42573684D01*
X243558296Y-42794048D01*
X243472523Y-43076804D01*
X243333237Y-43337389D01*
X243145792Y-43565792D01*
X242917389Y-43753237D01*
X242673436Y-43883633D01*
X242656802Y-43892524D01*
X242490700Y-43942910D01*
X242374048Y-43978296D01*
X242080000Y-44007257D01*
X241785953Y-43978296D01*
X241669301Y-43942910D01*
X241503199Y-43892524D01*
X241486565Y-43883633D01*
X241242612Y-43753237D01*
X241014209Y-43565792D01*
X240826764Y-43337389D01*
X240687478Y-43076804D01*
X240601705Y-42794048D01*
X240580001Y-42573684D01*
X240580000Y-39426317D01*
X240601704Y-39205953D01*
X240687477Y-38923197D01*
X240826763Y-38662611D01*
X241014208Y-38434208D01*
X241242611Y-38246763D01*
X241503196Y-38107477D01*
X241503198Y-38107476D01*
X241785949Y-38021705D01*
X241785952Y-38021704D01*
X242080000Y-37992743D01*
X242374047Y-38021704D01*
X242374047Y-38021704D01*
G37*
G36*
X181374047Y-38021704D02*
X181374050Y-38021705D01*
X181656801Y-38107476D01*
X181656803Y-38107477D01*
X181917389Y-38246763D01*
X182145792Y-38434208D01*
X182333237Y-38662611D01*
X182472523Y-38923196D01*
X182558296Y-39205952D01*
X182580000Y-39426316D01*
X182580000Y-42573684D01*
X182558296Y-42794048D01*
X182472523Y-43076804D01*
X182333237Y-43337389D01*
X182145792Y-43565792D01*
X181917389Y-43753237D01*
X181673436Y-43883633D01*
X181656802Y-43892524D01*
X181490700Y-43942910D01*
X181374048Y-43978296D01*
X181080000Y-44007257D01*
X180785953Y-43978296D01*
X180669301Y-43942910D01*
X180503199Y-43892524D01*
X180486565Y-43883633D01*
X180242612Y-43753237D01*
X180014209Y-43565792D01*
X179826764Y-43337389D01*
X179687478Y-43076804D01*
X179601705Y-42794048D01*
X179580001Y-42573684D01*
X179580000Y-39426317D01*
X179601704Y-39205953D01*
X179687477Y-38923197D01*
X179826763Y-38662611D01*
X180014208Y-38434208D01*
X180242611Y-38246763D01*
X180503196Y-38107477D01*
X180503198Y-38107476D01*
X180785949Y-38021705D01*
X180785952Y-38021704D01*
X181080000Y-37992743D01*
X181374047Y-38021704D01*
X181374047Y-38021704D01*
G37*
G36*
X253374047Y-38021704D02*
X253374050Y-38021705D01*
X253656801Y-38107476D01*
X253656803Y-38107477D01*
X253917389Y-38246763D01*
X254145792Y-38434208D01*
X254333237Y-38662611D01*
X254472523Y-38923196D01*
X254558296Y-39205952D01*
X254580000Y-39426316D01*
X254580000Y-42573684D01*
X254558296Y-42794048D01*
X254472523Y-43076804D01*
X254333237Y-43337389D01*
X254145792Y-43565792D01*
X253917389Y-43753237D01*
X253673436Y-43883633D01*
X253656802Y-43892524D01*
X253490700Y-43942910D01*
X253374048Y-43978296D01*
X253080000Y-44007257D01*
X252785953Y-43978296D01*
X252669301Y-43942910D01*
X252503199Y-43892524D01*
X252486565Y-43883633D01*
X252242612Y-43753237D01*
X252014209Y-43565792D01*
X251826764Y-43337389D01*
X251687478Y-43076804D01*
X251601705Y-42794048D01*
X251580001Y-42573684D01*
X251580000Y-39426317D01*
X251601704Y-39205953D01*
X251687477Y-38923197D01*
X251826763Y-38662611D01*
X252014208Y-38434208D01*
X252242611Y-38246763D01*
X252503196Y-38107477D01*
X252503198Y-38107476D01*
X252785949Y-38021705D01*
X252785952Y-38021704D01*
X253080000Y-37992743D01*
X253374047Y-38021704D01*
X253374047Y-38021704D01*
G37*
G36*
X192374047Y-38021704D02*
X192374050Y-38021705D01*
X192656801Y-38107476D01*
X192656803Y-38107477D01*
X192917389Y-38246763D01*
X193145792Y-38434208D01*
X193333237Y-38662611D01*
X193472523Y-38923196D01*
X193558296Y-39205952D01*
X193580000Y-39426316D01*
X193580000Y-42573684D01*
X193558296Y-42794048D01*
X193472523Y-43076804D01*
X193333237Y-43337389D01*
X193145792Y-43565792D01*
X192917389Y-43753237D01*
X192673436Y-43883633D01*
X192656802Y-43892524D01*
X192490700Y-43942910D01*
X192374048Y-43978296D01*
X192080000Y-44007257D01*
X191785953Y-43978296D01*
X191669301Y-43942910D01*
X191503199Y-43892524D01*
X191486565Y-43883633D01*
X191242612Y-43753237D01*
X191014209Y-43565792D01*
X190826764Y-43337389D01*
X190687478Y-43076804D01*
X190601705Y-42794048D01*
X190580001Y-42573684D01*
X190580000Y-39426317D01*
X190601704Y-39205953D01*
X190687477Y-38923197D01*
X190826763Y-38662611D01*
X191014208Y-38434208D01*
X191242611Y-38246763D01*
X191503196Y-38107477D01*
X191503198Y-38107476D01*
X191785949Y-38021705D01*
X191785952Y-38021704D01*
X192080000Y-37992743D01*
X192374047Y-38021704D01*
X192374047Y-38021704D01*
G37*
G36*
X176946508Y-38013803D02*
X177075363Y-38052891D01*
X177194119Y-38116367D01*
X177298208Y-38201792D01*
X177383633Y-38305881D01*
X177447109Y-38424637D01*
X177486197Y-38553492D01*
X177500000Y-38693640D01*
X177500000Y-43306360D01*
X177486197Y-43446508D01*
X177447109Y-43575363D01*
X177383633Y-43694119D01*
X177298208Y-43798208D01*
X177194119Y-43883633D01*
X177075363Y-43947109D01*
X176946508Y-43986197D01*
X176806360Y-44000000D01*
X175193640Y-44000000D01*
X175053492Y-43986197D01*
X174924637Y-43947109D01*
X174805881Y-43883633D01*
X174701792Y-43798208D01*
X174616367Y-43694119D01*
X174552891Y-43575363D01*
X174513803Y-43446508D01*
X174500000Y-43306360D01*
X174500000Y-38693640D01*
X174513803Y-38553492D01*
X174552891Y-38424637D01*
X174616367Y-38305881D01*
X174701792Y-38201792D01*
X174805881Y-38116367D01*
X174924637Y-38052891D01*
X175053492Y-38013803D01*
X175193640Y-38000000D01*
X176806360Y-38000000D01*
X176946508Y-38013803D01*
X176946508Y-38013803D01*
G37*
G36*
X187946508Y-38013803D02*
X188075363Y-38052891D01*
X188194119Y-38116367D01*
X188298208Y-38201792D01*
X188383633Y-38305881D01*
X188447109Y-38424637D01*
X188486197Y-38553492D01*
X188500000Y-38693640D01*
X188500000Y-43306360D01*
X188486197Y-43446508D01*
X188447109Y-43575363D01*
X188383633Y-43694119D01*
X188298208Y-43798208D01*
X188194119Y-43883633D01*
X188075363Y-43947109D01*
X187946508Y-43986197D01*
X187806360Y-44000000D01*
X186193640Y-44000000D01*
X186053492Y-43986197D01*
X185924637Y-43947109D01*
X185805881Y-43883633D01*
X185701792Y-43798208D01*
X185616367Y-43694119D01*
X185552891Y-43575363D01*
X185513803Y-43446508D01*
X185500000Y-43306360D01*
X185500000Y-38693640D01*
X185513803Y-38553492D01*
X185552891Y-38424637D01*
X185616367Y-38305881D01*
X185701792Y-38201792D01*
X185805881Y-38116367D01*
X185924637Y-38052891D01*
X186053492Y-38013803D01*
X186193640Y-38000000D01*
X187806360Y-38000000D01*
X187946508Y-38013803D01*
X187946508Y-38013803D01*
G37*
G36*
X217946508Y-38013803D02*
X218075363Y-38052891D01*
X218194119Y-38116367D01*
X218298208Y-38201792D01*
X218383633Y-38305881D01*
X218447109Y-38424637D01*
X218486197Y-38553492D01*
X218500000Y-38693640D01*
X218500000Y-43306360D01*
X218486197Y-43446508D01*
X218447109Y-43575363D01*
X218383633Y-43694119D01*
X218298208Y-43798208D01*
X218194119Y-43883633D01*
X218075363Y-43947109D01*
X217946508Y-43986197D01*
X217806360Y-44000000D01*
X216193640Y-44000000D01*
X216053492Y-43986197D01*
X215924637Y-43947109D01*
X215805881Y-43883633D01*
X215701792Y-43798208D01*
X215616367Y-43694119D01*
X215552891Y-43575363D01*
X215513803Y-43446508D01*
X215500000Y-43306360D01*
X215500000Y-38693640D01*
X215513803Y-38553492D01*
X215552891Y-38424637D01*
X215616367Y-38305881D01*
X215701792Y-38201792D01*
X215805881Y-38116367D01*
X215924637Y-38052891D01*
X216053492Y-38013803D01*
X216193640Y-38000000D01*
X217806360Y-38000000D01*
X217946508Y-38013803D01*
X217946508Y-38013803D01*
G37*
G36*
X227946508Y-38013803D02*
X228075363Y-38052891D01*
X228194119Y-38116367D01*
X228298208Y-38201792D01*
X228383633Y-38305881D01*
X228447109Y-38424637D01*
X228486197Y-38553492D01*
X228500000Y-38693640D01*
X228500000Y-43306360D01*
X228486197Y-43446508D01*
X228447109Y-43575363D01*
X228383633Y-43694119D01*
X228298208Y-43798208D01*
X228194119Y-43883633D01*
X228075363Y-43947109D01*
X227946508Y-43986197D01*
X227806360Y-44000000D01*
X226193640Y-44000000D01*
X226053492Y-43986197D01*
X225924637Y-43947109D01*
X225805881Y-43883633D01*
X225701792Y-43798208D01*
X225616367Y-43694119D01*
X225552891Y-43575363D01*
X225513803Y-43446508D01*
X225500000Y-43306360D01*
X225500000Y-38693640D01*
X225513803Y-38553492D01*
X225552891Y-38424637D01*
X225616367Y-38305881D01*
X225701792Y-38201792D01*
X225805881Y-38116367D01*
X225924637Y-38052891D01*
X226053492Y-38013803D01*
X226193640Y-38000000D01*
X227806360Y-38000000D01*
X227946508Y-38013803D01*
X227946508Y-38013803D01*
G37*
G36*
X237946508Y-38013803D02*
X238075363Y-38052891D01*
X238194119Y-38116367D01*
X238298208Y-38201792D01*
X238383633Y-38305881D01*
X238447109Y-38424637D01*
X238486197Y-38553492D01*
X238500000Y-38693640D01*
X238500000Y-43306360D01*
X238486197Y-43446508D01*
X238447109Y-43575363D01*
X238383633Y-43694119D01*
X238298208Y-43798208D01*
X238194119Y-43883633D01*
X238075363Y-43947109D01*
X237946508Y-43986197D01*
X237806360Y-44000000D01*
X236193640Y-44000000D01*
X236053492Y-43986197D01*
X235924637Y-43947109D01*
X235805881Y-43883633D01*
X235701792Y-43798208D01*
X235616367Y-43694119D01*
X235552891Y-43575363D01*
X235513803Y-43446508D01*
X235500000Y-43306360D01*
X235500000Y-38693640D01*
X235513803Y-38553492D01*
X235552891Y-38424637D01*
X235616367Y-38305881D01*
X235701792Y-38201792D01*
X235805881Y-38116367D01*
X235924637Y-38052891D01*
X236053492Y-38013803D01*
X236193640Y-38000000D01*
X237806360Y-38000000D01*
X237946508Y-38013803D01*
X237946508Y-38013803D01*
G37*
G36*
X248946508Y-38013803D02*
X249075363Y-38052891D01*
X249194119Y-38116367D01*
X249298208Y-38201792D01*
X249383633Y-38305881D01*
X249447109Y-38424637D01*
X249486197Y-38553492D01*
X249500000Y-38693640D01*
X249500000Y-43306360D01*
X249486197Y-43446508D01*
X249447109Y-43575363D01*
X249383633Y-43694119D01*
X249298208Y-43798208D01*
X249194119Y-43883633D01*
X249075363Y-43947109D01*
X248946508Y-43986197D01*
X248806360Y-44000000D01*
X247193640Y-44000000D01*
X247053492Y-43986197D01*
X246924637Y-43947109D01*
X246805881Y-43883633D01*
X246701792Y-43798208D01*
X246616367Y-43694119D01*
X246552891Y-43575363D01*
X246513803Y-43446508D01*
X246500000Y-43306360D01*
X246500000Y-38693640D01*
X246513803Y-38553492D01*
X246552891Y-38424637D01*
X246616367Y-38305881D01*
X246701792Y-38201792D01*
X246805881Y-38116367D01*
X246924637Y-38052891D01*
X247053492Y-38013803D01*
X247193640Y-38000000D01*
X248806360Y-38000000D01*
X248946508Y-38013803D01*
X248946508Y-38013803D01*
G37*
G36*
X207946508Y-38013803D02*
X208075363Y-38052891D01*
X208194119Y-38116367D01*
X208298208Y-38201792D01*
X208383633Y-38305881D01*
X208447109Y-38424637D01*
X208486197Y-38553492D01*
X208500000Y-38693640D01*
X208500000Y-43306360D01*
X208486197Y-43446508D01*
X208447109Y-43575363D01*
X208383633Y-43694119D01*
X208298208Y-43798208D01*
X208194119Y-43883633D01*
X208075363Y-43947109D01*
X207946508Y-43986197D01*
X207806360Y-44000000D01*
X206193640Y-44000000D01*
X206053492Y-43986197D01*
X205924637Y-43947109D01*
X205805881Y-43883633D01*
X205701792Y-43798208D01*
X205616367Y-43694119D01*
X205552891Y-43575363D01*
X205513803Y-43446508D01*
X205500000Y-43306360D01*
X205500000Y-38693640D01*
X205513803Y-38553492D01*
X205552891Y-38424637D01*
X205616367Y-38305881D01*
X205701792Y-38201792D01*
X205805881Y-38116367D01*
X205924637Y-38052891D01*
X206053492Y-38013803D01*
X206193640Y-38000000D01*
X207806360Y-38000000D01*
X207946508Y-38013803D01*
X207946508Y-38013803D01*
G37*
G36*
X197946508Y-38013803D02*
X198075363Y-38052891D01*
X198194119Y-38116367D01*
X198298208Y-38201792D01*
X198383633Y-38305881D01*
X198447109Y-38424637D01*
X198486197Y-38553492D01*
X198500000Y-38693640D01*
X198500000Y-43306360D01*
X198486197Y-43446508D01*
X198447109Y-43575363D01*
X198383633Y-43694119D01*
X198298208Y-43798208D01*
X198194119Y-43883633D01*
X198075363Y-43947109D01*
X197946508Y-43986197D01*
X197806360Y-44000000D01*
X196193640Y-44000000D01*
X196053492Y-43986197D01*
X195924637Y-43947109D01*
X195805881Y-43883633D01*
X195701792Y-43798208D01*
X195616367Y-43694119D01*
X195552891Y-43575363D01*
X195513803Y-43446508D01*
X195500000Y-43306360D01*
X195500000Y-38693640D01*
X195513803Y-38553492D01*
X195552891Y-38424637D01*
X195616367Y-38305881D01*
X195701792Y-38201792D01*
X195805881Y-38116367D01*
X195924637Y-38052891D01*
X196053492Y-38013803D01*
X196193640Y-38000000D01*
X197806360Y-38000000D01*
X197946508Y-38013803D01*
X197946508Y-38013803D01*
G37*
G36*
X169466703Y-37461486D02*
X169757883Y-37582097D01*
X170019944Y-37757201D01*
X170242799Y-37980056D01*
X170417903Y-38242117D01*
X170538514Y-38533297D01*
X170600000Y-38842412D01*
X170600000Y-39157588D01*
X170538514Y-39466703D01*
X170417903Y-39757883D01*
X170242799Y-40019944D01*
X170019944Y-40242799D01*
X169757883Y-40417903D01*
X169466703Y-40538514D01*
X169157588Y-40600000D01*
X168842412Y-40600000D01*
X168533297Y-40538514D01*
X168242117Y-40417903D01*
X167980056Y-40242799D01*
X167757201Y-40019944D01*
X167582097Y-39757883D01*
X167461486Y-39466703D01*
X167400000Y-39157588D01*
X167400000Y-38842412D01*
X167461486Y-38533297D01*
X167582097Y-38242117D01*
X167757201Y-37980056D01*
X167980056Y-37757201D01*
X168242117Y-37582097D01*
X168533297Y-37461486D01*
X168842412Y-37400000D01*
X169157588Y-37400000D01*
X169466703Y-37461486D01*
X169466703Y-37461486D01*
G37*
G36*
X260466703Y-37461486D02*
X260757883Y-37582097D01*
X261019944Y-37757201D01*
X261242799Y-37980056D01*
X261417903Y-38242117D01*
X261538514Y-38533297D01*
X261600000Y-38842412D01*
X261600000Y-39157588D01*
X261538514Y-39466703D01*
X261417903Y-39757883D01*
X261242799Y-40019944D01*
X261019944Y-40242799D01*
X260757883Y-40417903D01*
X260466703Y-40538514D01*
X260157588Y-40600000D01*
X259842412Y-40600000D01*
X259533297Y-40538514D01*
X259242117Y-40417903D01*
X258980056Y-40242799D01*
X258757201Y-40019944D01*
X258582097Y-39757883D01*
X258461486Y-39466703D01*
X258400000Y-39157588D01*
X258400000Y-38842412D01*
X258461486Y-38533297D01*
X258582097Y-38242117D01*
X258757201Y-37980056D01*
X258980056Y-37757201D01*
X259242117Y-37582097D01*
X259533297Y-37461486D01*
X259842412Y-37400000D01*
X260157588Y-37400000D01*
X260466703Y-37461486D01*
X260466703Y-37461486D01*
G37*
M02*
