G04 #@! TF.GenerationSoftware,KiCad,Pcbnew,(5.0.1-3-g963ef8bb5)*
G04 #@! TF.CreationDate,2020-01-09T21:08:13+01:00*
G04 #@! TF.ProjectId,WS2801_ledmodule_rev2,5753323830315F6C65646D6F64756C65,rev?*
G04 #@! TF.SameCoordinates,Original*
G04 #@! TF.FileFunction,Soldermask,Bot*
G04 #@! TF.FilePolarity,Negative*
%FSLAX46Y46*%
G04 Gerber Fmt 4.6, Leading zero omitted, Abs format (unit mm)*
G04 Created by KiCad (PCBNEW (5.0.1-3-g963ef8bb5)) date Thursday, 09 January 2020 at 21:08:13*
%MOMM*%
%LPD*%
G01*
G04 APERTURE LIST*
%ADD10C,0.100000*%
G04 APERTURE END LIST*
D10*
G36*
X260394208Y-54303473D02*
X260535241Y-54317363D01*
X260761442Y-54385981D01*
X260761444Y-54385982D01*
X260761447Y-54385983D01*
X260969910Y-54497408D01*
X261152634Y-54647366D01*
X261302592Y-54830090D01*
X261414017Y-55038553D01*
X261414018Y-55038556D01*
X261414019Y-55038558D01*
X261482637Y-55264759D01*
X261505806Y-55500000D01*
X261482637Y-55735241D01*
X261414019Y-55961442D01*
X261414017Y-55961447D01*
X261302592Y-56169910D01*
X261152634Y-56352634D01*
X260969910Y-56502592D01*
X260761447Y-56614017D01*
X260761444Y-56614018D01*
X260761442Y-56614019D01*
X260535241Y-56682637D01*
X260394208Y-56696527D01*
X260358951Y-56700000D01*
X257641049Y-56700000D01*
X257605792Y-56696527D01*
X257464759Y-56682637D01*
X257238558Y-56614019D01*
X257238556Y-56614018D01*
X257238553Y-56614017D01*
X257030090Y-56502592D01*
X256847366Y-56352634D01*
X256697408Y-56169910D01*
X256585983Y-55961447D01*
X256585981Y-55961442D01*
X256517363Y-55735241D01*
X256494194Y-55500000D01*
X256517363Y-55264759D01*
X256585981Y-55038558D01*
X256585982Y-55038556D01*
X256585983Y-55038553D01*
X256697408Y-54830090D01*
X256847366Y-54647366D01*
X257030090Y-54497408D01*
X257238553Y-54385983D01*
X257238556Y-54385982D01*
X257238558Y-54385981D01*
X257464759Y-54317363D01*
X257605792Y-54303473D01*
X257641049Y-54300000D01*
X260358951Y-54300000D01*
X260394208Y-54303473D01*
X260394208Y-54303473D01*
G37*
G36*
X171394208Y-54303473D02*
X171535241Y-54317363D01*
X171761442Y-54385981D01*
X171761444Y-54385982D01*
X171761447Y-54385983D01*
X171969910Y-54497408D01*
X172152634Y-54647366D01*
X172302592Y-54830090D01*
X172414017Y-55038553D01*
X172414018Y-55038556D01*
X172414019Y-55038558D01*
X172482637Y-55264759D01*
X172505806Y-55500000D01*
X172482637Y-55735241D01*
X172414019Y-55961442D01*
X172414017Y-55961447D01*
X172302592Y-56169910D01*
X172152634Y-56352634D01*
X171969910Y-56502592D01*
X171761447Y-56614017D01*
X171761444Y-56614018D01*
X171761442Y-56614019D01*
X171535241Y-56682637D01*
X171394208Y-56696527D01*
X171358951Y-56700000D01*
X168641049Y-56700000D01*
X168605792Y-56696527D01*
X168464759Y-56682637D01*
X168238558Y-56614019D01*
X168238556Y-56614018D01*
X168238553Y-56614017D01*
X168030090Y-56502592D01*
X167847366Y-56352634D01*
X167697408Y-56169910D01*
X167585983Y-55961447D01*
X167585981Y-55961442D01*
X167517363Y-55735241D01*
X167494194Y-55500000D01*
X167517363Y-55264759D01*
X167585981Y-55038558D01*
X167585982Y-55038556D01*
X167585983Y-55038553D01*
X167697408Y-54830090D01*
X167847366Y-54647366D01*
X168030090Y-54497408D01*
X168238553Y-54385983D01*
X168238556Y-54385982D01*
X168238558Y-54385981D01*
X168464759Y-54317363D01*
X168605792Y-54303473D01*
X168641049Y-54300000D01*
X171358951Y-54300000D01*
X171394208Y-54303473D01*
X171394208Y-54303473D01*
G37*
G36*
X179466703Y-53461486D02*
X179757883Y-53582097D01*
X180019944Y-53757201D01*
X180242799Y-53980056D01*
X180417903Y-54242117D01*
X180538514Y-54533297D01*
X180600000Y-54842412D01*
X180600000Y-55157588D01*
X180538514Y-55466703D01*
X180417903Y-55757883D01*
X180242799Y-56019944D01*
X180019944Y-56242799D01*
X179757883Y-56417903D01*
X179466703Y-56538514D01*
X179157588Y-56600000D01*
X178842412Y-56600000D01*
X178533297Y-56538514D01*
X178242117Y-56417903D01*
X177980056Y-56242799D01*
X177757201Y-56019944D01*
X177582097Y-55757883D01*
X177461486Y-55466703D01*
X177400000Y-55157588D01*
X177400000Y-54842412D01*
X177461486Y-54533297D01*
X177582097Y-54242117D01*
X177757201Y-53980056D01*
X177980056Y-53757201D01*
X178242117Y-53582097D01*
X178533297Y-53461486D01*
X178842412Y-53400000D01*
X179157588Y-53400000D01*
X179466703Y-53461486D01*
X179466703Y-53461486D01*
G37*
G36*
X250466703Y-53461486D02*
X250757883Y-53582097D01*
X251019944Y-53757201D01*
X251242799Y-53980056D01*
X251417903Y-54242117D01*
X251538514Y-54533297D01*
X251600000Y-54842412D01*
X251600000Y-55157588D01*
X251538514Y-55466703D01*
X251417903Y-55757883D01*
X251242799Y-56019944D01*
X251019944Y-56242799D01*
X250757883Y-56417903D01*
X250466703Y-56538514D01*
X250157588Y-56600000D01*
X249842412Y-56600000D01*
X249533297Y-56538514D01*
X249242117Y-56417903D01*
X248980056Y-56242799D01*
X248757201Y-56019944D01*
X248582097Y-55757883D01*
X248461486Y-55466703D01*
X248400000Y-55157588D01*
X248400000Y-54842412D01*
X248461486Y-54533297D01*
X248582097Y-54242117D01*
X248757201Y-53980056D01*
X248980056Y-53757201D01*
X249242117Y-53582097D01*
X249533297Y-53461486D01*
X249842412Y-53400000D01*
X250157588Y-53400000D01*
X250466703Y-53461486D01*
X250466703Y-53461486D01*
G37*
G36*
X260394208Y-50803473D02*
X260535241Y-50817363D01*
X260761442Y-50885981D01*
X260761444Y-50885982D01*
X260761447Y-50885983D01*
X260969910Y-50997408D01*
X261152634Y-51147366D01*
X261302592Y-51330090D01*
X261414017Y-51538553D01*
X261414018Y-51538556D01*
X261414019Y-51538558D01*
X261482637Y-51764759D01*
X261505806Y-52000000D01*
X261482637Y-52235241D01*
X261414019Y-52461442D01*
X261414017Y-52461447D01*
X261302592Y-52669910D01*
X261152634Y-52852634D01*
X260969910Y-53002592D01*
X260761447Y-53114017D01*
X260761444Y-53114018D01*
X260761442Y-53114019D01*
X260535241Y-53182637D01*
X260394208Y-53196527D01*
X260358951Y-53200000D01*
X257641049Y-53200000D01*
X257605792Y-53196527D01*
X257464759Y-53182637D01*
X257238558Y-53114019D01*
X257238556Y-53114018D01*
X257238553Y-53114017D01*
X257030090Y-53002592D01*
X256847366Y-52852634D01*
X256697408Y-52669910D01*
X256585983Y-52461447D01*
X256585981Y-52461442D01*
X256517363Y-52235241D01*
X256494194Y-52000000D01*
X256517363Y-51764759D01*
X256585981Y-51538558D01*
X256585982Y-51538556D01*
X256585983Y-51538553D01*
X256697408Y-51330090D01*
X256847366Y-51147366D01*
X257030090Y-50997408D01*
X257238553Y-50885983D01*
X257238556Y-50885982D01*
X257238558Y-50885981D01*
X257464759Y-50817363D01*
X257605792Y-50803473D01*
X257641049Y-50800000D01*
X260358951Y-50800000D01*
X260394208Y-50803473D01*
X260394208Y-50803473D01*
G37*
G36*
X171394208Y-50803473D02*
X171535241Y-50817363D01*
X171761442Y-50885981D01*
X171761444Y-50885982D01*
X171761447Y-50885983D01*
X171969910Y-50997408D01*
X172152634Y-51147366D01*
X172302592Y-51330090D01*
X172414017Y-51538553D01*
X172414018Y-51538556D01*
X172414019Y-51538558D01*
X172482637Y-51764759D01*
X172505806Y-52000000D01*
X172482637Y-52235241D01*
X172414019Y-52461442D01*
X172414017Y-52461447D01*
X172302592Y-52669910D01*
X172152634Y-52852634D01*
X171969910Y-53002592D01*
X171761447Y-53114017D01*
X171761444Y-53114018D01*
X171761442Y-53114019D01*
X171535241Y-53182637D01*
X171394208Y-53196527D01*
X171358951Y-53200000D01*
X168641049Y-53200000D01*
X168605792Y-53196527D01*
X168464759Y-53182637D01*
X168238558Y-53114019D01*
X168238556Y-53114018D01*
X168238553Y-53114017D01*
X168030090Y-53002592D01*
X167847366Y-52852634D01*
X167697408Y-52669910D01*
X167585983Y-52461447D01*
X167585981Y-52461442D01*
X167517363Y-52235241D01*
X167494194Y-52000000D01*
X167517363Y-51764759D01*
X167585981Y-51538558D01*
X167585982Y-51538556D01*
X167585983Y-51538553D01*
X167697408Y-51330090D01*
X167847366Y-51147366D01*
X168030090Y-50997408D01*
X168238553Y-50885983D01*
X168238556Y-50885982D01*
X168238558Y-50885981D01*
X168464759Y-50817363D01*
X168605792Y-50803473D01*
X168641049Y-50800000D01*
X171358951Y-50800000D01*
X171394208Y-50803473D01*
X171394208Y-50803473D01*
G37*
G36*
X171394208Y-47303473D02*
X171535241Y-47317363D01*
X171761442Y-47385981D01*
X171761444Y-47385982D01*
X171761447Y-47385983D01*
X171969910Y-47497408D01*
X172152634Y-47647366D01*
X172302592Y-47830090D01*
X172414017Y-48038553D01*
X172414018Y-48038556D01*
X172414019Y-48038558D01*
X172482637Y-48264759D01*
X172505806Y-48500000D01*
X172482637Y-48735241D01*
X172414019Y-48961442D01*
X172414017Y-48961447D01*
X172302592Y-49169910D01*
X172152634Y-49352634D01*
X171969910Y-49502592D01*
X171761447Y-49614017D01*
X171761444Y-49614018D01*
X171761442Y-49614019D01*
X171535241Y-49682637D01*
X171394208Y-49696527D01*
X171358951Y-49700000D01*
X168641049Y-49700000D01*
X168605792Y-49696527D01*
X168464759Y-49682637D01*
X168238558Y-49614019D01*
X168238556Y-49614018D01*
X168238553Y-49614017D01*
X168030090Y-49502592D01*
X167847366Y-49352634D01*
X167697408Y-49169910D01*
X167585983Y-48961447D01*
X167585981Y-48961442D01*
X167517363Y-48735241D01*
X167494194Y-48500000D01*
X167517363Y-48264759D01*
X167585981Y-48038558D01*
X167585982Y-48038556D01*
X167585983Y-48038553D01*
X167697408Y-47830090D01*
X167847366Y-47647366D01*
X168030090Y-47497408D01*
X168238553Y-47385983D01*
X168238556Y-47385982D01*
X168238558Y-47385981D01*
X168464759Y-47317363D01*
X168605792Y-47303473D01*
X168641049Y-47300000D01*
X171358951Y-47300000D01*
X171394208Y-47303473D01*
X171394208Y-47303473D01*
G37*
G36*
X260394208Y-47303473D02*
X260535241Y-47317363D01*
X260761442Y-47385981D01*
X260761444Y-47385982D01*
X260761447Y-47385983D01*
X260969910Y-47497408D01*
X261152634Y-47647366D01*
X261302592Y-47830090D01*
X261414017Y-48038553D01*
X261414018Y-48038556D01*
X261414019Y-48038558D01*
X261482637Y-48264759D01*
X261505806Y-48500000D01*
X261482637Y-48735241D01*
X261414019Y-48961442D01*
X261414017Y-48961447D01*
X261302592Y-49169910D01*
X261152634Y-49352634D01*
X260969910Y-49502592D01*
X260761447Y-49614017D01*
X260761444Y-49614018D01*
X260761442Y-49614019D01*
X260535241Y-49682637D01*
X260394208Y-49696527D01*
X260358951Y-49700000D01*
X257641049Y-49700000D01*
X257605792Y-49696527D01*
X257464759Y-49682637D01*
X257238558Y-49614019D01*
X257238556Y-49614018D01*
X257238553Y-49614017D01*
X257030090Y-49502592D01*
X256847366Y-49352634D01*
X256697408Y-49169910D01*
X256585983Y-48961447D01*
X256585981Y-48961442D01*
X256517363Y-48735241D01*
X256494194Y-48500000D01*
X256517363Y-48264759D01*
X256585981Y-48038558D01*
X256585982Y-48038556D01*
X256585983Y-48038553D01*
X256697408Y-47830090D01*
X256847366Y-47647366D01*
X257030090Y-47497408D01*
X257238553Y-47385983D01*
X257238556Y-47385982D01*
X257238558Y-47385981D01*
X257464759Y-47317363D01*
X257605792Y-47303473D01*
X257641049Y-47300000D01*
X260358951Y-47300000D01*
X260394208Y-47303473D01*
X260394208Y-47303473D01*
G37*
G36*
X261067241Y-43810921D02*
X261167965Y-43841475D01*
X261260780Y-43891085D01*
X261342142Y-43957858D01*
X261408915Y-44039220D01*
X261458525Y-44132035D01*
X261489079Y-44232759D01*
X261500000Y-44343640D01*
X261500000Y-45656360D01*
X261489079Y-45767241D01*
X261458525Y-45867965D01*
X261408915Y-45960780D01*
X261342142Y-46042142D01*
X261260780Y-46108915D01*
X261167965Y-46158525D01*
X261067241Y-46189079D01*
X260956360Y-46200000D01*
X257043640Y-46200000D01*
X256932759Y-46189079D01*
X256832035Y-46158525D01*
X256739220Y-46108915D01*
X256657858Y-46042142D01*
X256591085Y-45960780D01*
X256541475Y-45867965D01*
X256510921Y-45767241D01*
X256500000Y-45656360D01*
X256500000Y-44343640D01*
X256510921Y-44232759D01*
X256541475Y-44132035D01*
X256591085Y-44039220D01*
X256657858Y-43957858D01*
X256739220Y-43891085D01*
X256832035Y-43841475D01*
X256932759Y-43810921D01*
X257043640Y-43800000D01*
X260956360Y-43800000D01*
X261067241Y-43810921D01*
X261067241Y-43810921D01*
G37*
G36*
X172067241Y-43810921D02*
X172167965Y-43841475D01*
X172260780Y-43891085D01*
X172342142Y-43957858D01*
X172408915Y-44039220D01*
X172458525Y-44132035D01*
X172489079Y-44232759D01*
X172500000Y-44343640D01*
X172500000Y-45656360D01*
X172489079Y-45767241D01*
X172458525Y-45867965D01*
X172408915Y-45960780D01*
X172342142Y-46042142D01*
X172260780Y-46108915D01*
X172167965Y-46158525D01*
X172067241Y-46189079D01*
X171956360Y-46200000D01*
X168043640Y-46200000D01*
X167932759Y-46189079D01*
X167832035Y-46158525D01*
X167739220Y-46108915D01*
X167657858Y-46042142D01*
X167591085Y-45960780D01*
X167541475Y-45867965D01*
X167510921Y-45767241D01*
X167500000Y-45656360D01*
X167500000Y-44343640D01*
X167510921Y-44232759D01*
X167541475Y-44132035D01*
X167591085Y-44039220D01*
X167657858Y-43957858D01*
X167739220Y-43891085D01*
X167832035Y-43841475D01*
X167932759Y-43810921D01*
X168043640Y-43800000D01*
X171956360Y-43800000D01*
X172067241Y-43810921D01*
X172067241Y-43810921D01*
G37*
G36*
X212374047Y-38021704D02*
X212374050Y-38021705D01*
X212656801Y-38107476D01*
X212656803Y-38107477D01*
X212917389Y-38246763D01*
X213145792Y-38434208D01*
X213333237Y-38662611D01*
X213472523Y-38923196D01*
X213558296Y-39205952D01*
X213580000Y-39426316D01*
X213580000Y-42573684D01*
X213558296Y-42794048D01*
X213472523Y-43076804D01*
X213333237Y-43337389D01*
X213145792Y-43565792D01*
X212917389Y-43753237D01*
X212673436Y-43883633D01*
X212656802Y-43892524D01*
X212490700Y-43942910D01*
X212374048Y-43978296D01*
X212080000Y-44007257D01*
X211785953Y-43978296D01*
X211669301Y-43942910D01*
X211503199Y-43892524D01*
X211486565Y-43883633D01*
X211242612Y-43753237D01*
X211014209Y-43565792D01*
X210826764Y-43337389D01*
X210687478Y-43076804D01*
X210601705Y-42794048D01*
X210580001Y-42573684D01*
X210580000Y-39426317D01*
X210601704Y-39205953D01*
X210687477Y-38923197D01*
X210826763Y-38662611D01*
X211014208Y-38434208D01*
X211242611Y-38246763D01*
X211503196Y-38107477D01*
X211503198Y-38107476D01*
X211785949Y-38021705D01*
X211785952Y-38021704D01*
X212080000Y-37992743D01*
X212374047Y-38021704D01*
X212374047Y-38021704D01*
G37*
G36*
X253374047Y-38021704D02*
X253374050Y-38021705D01*
X253656801Y-38107476D01*
X253656803Y-38107477D01*
X253917389Y-38246763D01*
X254145792Y-38434208D01*
X254333237Y-38662611D01*
X254472523Y-38923196D01*
X254558296Y-39205952D01*
X254580000Y-39426316D01*
X254580000Y-42573684D01*
X254558296Y-42794048D01*
X254472523Y-43076804D01*
X254333237Y-43337389D01*
X254145792Y-43565792D01*
X253917389Y-43753237D01*
X253673436Y-43883633D01*
X253656802Y-43892524D01*
X253490700Y-43942910D01*
X253374048Y-43978296D01*
X253080000Y-44007257D01*
X252785953Y-43978296D01*
X252669301Y-43942910D01*
X252503199Y-43892524D01*
X252486565Y-43883633D01*
X252242612Y-43753237D01*
X252014209Y-43565792D01*
X251826764Y-43337389D01*
X251687478Y-43076804D01*
X251601705Y-42794048D01*
X251580001Y-42573684D01*
X251580000Y-39426317D01*
X251601704Y-39205953D01*
X251687477Y-38923197D01*
X251826763Y-38662611D01*
X252014208Y-38434208D01*
X252242611Y-38246763D01*
X252503196Y-38107477D01*
X252503198Y-38107476D01*
X252785949Y-38021705D01*
X252785952Y-38021704D01*
X253080000Y-37992743D01*
X253374047Y-38021704D01*
X253374047Y-38021704D01*
G37*
G36*
X242374047Y-38021704D02*
X242374050Y-38021705D01*
X242656801Y-38107476D01*
X242656803Y-38107477D01*
X242917389Y-38246763D01*
X243145792Y-38434208D01*
X243333237Y-38662611D01*
X243472523Y-38923196D01*
X243558296Y-39205952D01*
X243580000Y-39426316D01*
X243580000Y-42573684D01*
X243558296Y-42794048D01*
X243472523Y-43076804D01*
X243333237Y-43337389D01*
X243145792Y-43565792D01*
X242917389Y-43753237D01*
X242673436Y-43883633D01*
X242656802Y-43892524D01*
X242490700Y-43942910D01*
X242374048Y-43978296D01*
X242080000Y-44007257D01*
X241785953Y-43978296D01*
X241669301Y-43942910D01*
X241503199Y-43892524D01*
X241486565Y-43883633D01*
X241242612Y-43753237D01*
X241014209Y-43565792D01*
X240826764Y-43337389D01*
X240687478Y-43076804D01*
X240601705Y-42794048D01*
X240580001Y-42573684D01*
X240580000Y-39426317D01*
X240601704Y-39205953D01*
X240687477Y-38923197D01*
X240826763Y-38662611D01*
X241014208Y-38434208D01*
X241242611Y-38246763D01*
X241503196Y-38107477D01*
X241503198Y-38107476D01*
X241785949Y-38021705D01*
X241785952Y-38021704D01*
X242080000Y-37992743D01*
X242374047Y-38021704D01*
X242374047Y-38021704D01*
G37*
G36*
X232374047Y-38021704D02*
X232374050Y-38021705D01*
X232656801Y-38107476D01*
X232656803Y-38107477D01*
X232917389Y-38246763D01*
X233145792Y-38434208D01*
X233333237Y-38662611D01*
X233472523Y-38923196D01*
X233558296Y-39205952D01*
X233580000Y-39426316D01*
X233580000Y-42573684D01*
X233558296Y-42794048D01*
X233472523Y-43076804D01*
X233333237Y-43337389D01*
X233145792Y-43565792D01*
X232917389Y-43753237D01*
X232673436Y-43883633D01*
X232656802Y-43892524D01*
X232490700Y-43942910D01*
X232374048Y-43978296D01*
X232080000Y-44007257D01*
X231785953Y-43978296D01*
X231669301Y-43942910D01*
X231503199Y-43892524D01*
X231486565Y-43883633D01*
X231242612Y-43753237D01*
X231014209Y-43565792D01*
X230826764Y-43337389D01*
X230687478Y-43076804D01*
X230601705Y-42794048D01*
X230580001Y-42573684D01*
X230580000Y-39426317D01*
X230601704Y-39205953D01*
X230687477Y-38923197D01*
X230826763Y-38662611D01*
X231014208Y-38434208D01*
X231242611Y-38246763D01*
X231503196Y-38107477D01*
X231503198Y-38107476D01*
X231785949Y-38021705D01*
X231785952Y-38021704D01*
X232080000Y-37992743D01*
X232374047Y-38021704D01*
X232374047Y-38021704D01*
G37*
G36*
X222374047Y-38021704D02*
X222374050Y-38021705D01*
X222656801Y-38107476D01*
X222656803Y-38107477D01*
X222917389Y-38246763D01*
X223145792Y-38434208D01*
X223333237Y-38662611D01*
X223472523Y-38923196D01*
X223558296Y-39205952D01*
X223580000Y-39426316D01*
X223580000Y-42573684D01*
X223558296Y-42794048D01*
X223472523Y-43076804D01*
X223333237Y-43337389D01*
X223145792Y-43565792D01*
X222917389Y-43753237D01*
X222673436Y-43883633D01*
X222656802Y-43892524D01*
X222490700Y-43942910D01*
X222374048Y-43978296D01*
X222080000Y-44007257D01*
X221785953Y-43978296D01*
X221669301Y-43942910D01*
X221503199Y-43892524D01*
X221486565Y-43883633D01*
X221242612Y-43753237D01*
X221014209Y-43565792D01*
X220826764Y-43337389D01*
X220687478Y-43076804D01*
X220601705Y-42794048D01*
X220580001Y-42573684D01*
X220580000Y-39426317D01*
X220601704Y-39205953D01*
X220687477Y-38923197D01*
X220826763Y-38662611D01*
X221014208Y-38434208D01*
X221242611Y-38246763D01*
X221503196Y-38107477D01*
X221503198Y-38107476D01*
X221785949Y-38021705D01*
X221785952Y-38021704D01*
X222080000Y-37992743D01*
X222374047Y-38021704D01*
X222374047Y-38021704D01*
G37*
G36*
X192374047Y-38021704D02*
X192374050Y-38021705D01*
X192656801Y-38107476D01*
X192656803Y-38107477D01*
X192917389Y-38246763D01*
X193145792Y-38434208D01*
X193333237Y-38662611D01*
X193472523Y-38923196D01*
X193558296Y-39205952D01*
X193580000Y-39426316D01*
X193580000Y-42573684D01*
X193558296Y-42794048D01*
X193472523Y-43076804D01*
X193333237Y-43337389D01*
X193145792Y-43565792D01*
X192917389Y-43753237D01*
X192673436Y-43883633D01*
X192656802Y-43892524D01*
X192490700Y-43942910D01*
X192374048Y-43978296D01*
X192080000Y-44007257D01*
X191785953Y-43978296D01*
X191669301Y-43942910D01*
X191503199Y-43892524D01*
X191486565Y-43883633D01*
X191242612Y-43753237D01*
X191014209Y-43565792D01*
X190826764Y-43337389D01*
X190687478Y-43076804D01*
X190601705Y-42794048D01*
X190580001Y-42573684D01*
X190580000Y-39426317D01*
X190601704Y-39205953D01*
X190687477Y-38923197D01*
X190826763Y-38662611D01*
X191014208Y-38434208D01*
X191242611Y-38246763D01*
X191503196Y-38107477D01*
X191503198Y-38107476D01*
X191785949Y-38021705D01*
X191785952Y-38021704D01*
X192080000Y-37992743D01*
X192374047Y-38021704D01*
X192374047Y-38021704D01*
G37*
G36*
X181374047Y-38021704D02*
X181374050Y-38021705D01*
X181656801Y-38107476D01*
X181656803Y-38107477D01*
X181917389Y-38246763D01*
X182145792Y-38434208D01*
X182333237Y-38662611D01*
X182472523Y-38923196D01*
X182558296Y-39205952D01*
X182580000Y-39426316D01*
X182580000Y-42573684D01*
X182558296Y-42794048D01*
X182472523Y-43076804D01*
X182333237Y-43337389D01*
X182145792Y-43565792D01*
X181917389Y-43753237D01*
X181673436Y-43883633D01*
X181656802Y-43892524D01*
X181490700Y-43942910D01*
X181374048Y-43978296D01*
X181080000Y-44007257D01*
X180785953Y-43978296D01*
X180669301Y-43942910D01*
X180503199Y-43892524D01*
X180486565Y-43883633D01*
X180242612Y-43753237D01*
X180014209Y-43565792D01*
X179826764Y-43337389D01*
X179687478Y-43076804D01*
X179601705Y-42794048D01*
X179580001Y-42573684D01*
X179580000Y-39426317D01*
X179601704Y-39205953D01*
X179687477Y-38923197D01*
X179826763Y-38662611D01*
X180014208Y-38434208D01*
X180242611Y-38246763D01*
X180503196Y-38107477D01*
X180503198Y-38107476D01*
X180785949Y-38021705D01*
X180785952Y-38021704D01*
X181080000Y-37992743D01*
X181374047Y-38021704D01*
X181374047Y-38021704D01*
G37*
G36*
X202374047Y-38021704D02*
X202374050Y-38021705D01*
X202656801Y-38107476D01*
X202656803Y-38107477D01*
X202917389Y-38246763D01*
X203145792Y-38434208D01*
X203333237Y-38662611D01*
X203472523Y-38923196D01*
X203558296Y-39205952D01*
X203580000Y-39426316D01*
X203580000Y-42573684D01*
X203558296Y-42794048D01*
X203472523Y-43076804D01*
X203333237Y-43337389D01*
X203145792Y-43565792D01*
X202917389Y-43753237D01*
X202673436Y-43883633D01*
X202656802Y-43892524D01*
X202490700Y-43942910D01*
X202374048Y-43978296D01*
X202080000Y-44007257D01*
X201785953Y-43978296D01*
X201669301Y-43942910D01*
X201503199Y-43892524D01*
X201486565Y-43883633D01*
X201242612Y-43753237D01*
X201014209Y-43565792D01*
X200826764Y-43337389D01*
X200687478Y-43076804D01*
X200601705Y-42794048D01*
X200580001Y-42573684D01*
X200580000Y-39426317D01*
X200601704Y-39205953D01*
X200687477Y-38923197D01*
X200826763Y-38662611D01*
X201014208Y-38434208D01*
X201242611Y-38246763D01*
X201503196Y-38107477D01*
X201503198Y-38107476D01*
X201785949Y-38021705D01*
X201785952Y-38021704D01*
X202080000Y-37992743D01*
X202374047Y-38021704D01*
X202374047Y-38021704D01*
G37*
G36*
X227946508Y-38013803D02*
X228075363Y-38052891D01*
X228194119Y-38116367D01*
X228298208Y-38201792D01*
X228383633Y-38305881D01*
X228447109Y-38424637D01*
X228486197Y-38553492D01*
X228500000Y-38693640D01*
X228500000Y-43306360D01*
X228486197Y-43446508D01*
X228447109Y-43575363D01*
X228383633Y-43694119D01*
X228298208Y-43798208D01*
X228194119Y-43883633D01*
X228075363Y-43947109D01*
X227946508Y-43986197D01*
X227806360Y-44000000D01*
X226193640Y-44000000D01*
X226053492Y-43986197D01*
X225924637Y-43947109D01*
X225805881Y-43883633D01*
X225701792Y-43798208D01*
X225616367Y-43694119D01*
X225552891Y-43575363D01*
X225513803Y-43446508D01*
X225500000Y-43306360D01*
X225500000Y-38693640D01*
X225513803Y-38553492D01*
X225552891Y-38424637D01*
X225616367Y-38305881D01*
X225701792Y-38201792D01*
X225805881Y-38116367D01*
X225924637Y-38052891D01*
X226053492Y-38013803D01*
X226193640Y-38000000D01*
X227806360Y-38000000D01*
X227946508Y-38013803D01*
X227946508Y-38013803D01*
G37*
G36*
X248946508Y-38013803D02*
X249075363Y-38052891D01*
X249194119Y-38116367D01*
X249298208Y-38201792D01*
X249383633Y-38305881D01*
X249447109Y-38424637D01*
X249486197Y-38553492D01*
X249500000Y-38693640D01*
X249500000Y-43306360D01*
X249486197Y-43446508D01*
X249447109Y-43575363D01*
X249383633Y-43694119D01*
X249298208Y-43798208D01*
X249194119Y-43883633D01*
X249075363Y-43947109D01*
X248946508Y-43986197D01*
X248806360Y-44000000D01*
X247193640Y-44000000D01*
X247053492Y-43986197D01*
X246924637Y-43947109D01*
X246805881Y-43883633D01*
X246701792Y-43798208D01*
X246616367Y-43694119D01*
X246552891Y-43575363D01*
X246513803Y-43446508D01*
X246500000Y-43306360D01*
X246500000Y-38693640D01*
X246513803Y-38553492D01*
X246552891Y-38424637D01*
X246616367Y-38305881D01*
X246701792Y-38201792D01*
X246805881Y-38116367D01*
X246924637Y-38052891D01*
X247053492Y-38013803D01*
X247193640Y-38000000D01*
X248806360Y-38000000D01*
X248946508Y-38013803D01*
X248946508Y-38013803D01*
G37*
G36*
X207946508Y-38013803D02*
X208075363Y-38052891D01*
X208194119Y-38116367D01*
X208298208Y-38201792D01*
X208383633Y-38305881D01*
X208447109Y-38424637D01*
X208486197Y-38553492D01*
X208500000Y-38693640D01*
X208500000Y-43306360D01*
X208486197Y-43446508D01*
X208447109Y-43575363D01*
X208383633Y-43694119D01*
X208298208Y-43798208D01*
X208194119Y-43883633D01*
X208075363Y-43947109D01*
X207946508Y-43986197D01*
X207806360Y-44000000D01*
X206193640Y-44000000D01*
X206053492Y-43986197D01*
X205924637Y-43947109D01*
X205805881Y-43883633D01*
X205701792Y-43798208D01*
X205616367Y-43694119D01*
X205552891Y-43575363D01*
X205513803Y-43446508D01*
X205500000Y-43306360D01*
X205500000Y-38693640D01*
X205513803Y-38553492D01*
X205552891Y-38424637D01*
X205616367Y-38305881D01*
X205701792Y-38201792D01*
X205805881Y-38116367D01*
X205924637Y-38052891D01*
X206053492Y-38013803D01*
X206193640Y-38000000D01*
X207806360Y-38000000D01*
X207946508Y-38013803D01*
X207946508Y-38013803D01*
G37*
G36*
X197946508Y-38013803D02*
X198075363Y-38052891D01*
X198194119Y-38116367D01*
X198298208Y-38201792D01*
X198383633Y-38305881D01*
X198447109Y-38424637D01*
X198486197Y-38553492D01*
X198500000Y-38693640D01*
X198500000Y-43306360D01*
X198486197Y-43446508D01*
X198447109Y-43575363D01*
X198383633Y-43694119D01*
X198298208Y-43798208D01*
X198194119Y-43883633D01*
X198075363Y-43947109D01*
X197946508Y-43986197D01*
X197806360Y-44000000D01*
X196193640Y-44000000D01*
X196053492Y-43986197D01*
X195924637Y-43947109D01*
X195805881Y-43883633D01*
X195701792Y-43798208D01*
X195616367Y-43694119D01*
X195552891Y-43575363D01*
X195513803Y-43446508D01*
X195500000Y-43306360D01*
X195500000Y-38693640D01*
X195513803Y-38553492D01*
X195552891Y-38424637D01*
X195616367Y-38305881D01*
X195701792Y-38201792D01*
X195805881Y-38116367D01*
X195924637Y-38052891D01*
X196053492Y-38013803D01*
X196193640Y-38000000D01*
X197806360Y-38000000D01*
X197946508Y-38013803D01*
X197946508Y-38013803D01*
G37*
G36*
X237946508Y-38013803D02*
X238075363Y-38052891D01*
X238194119Y-38116367D01*
X238298208Y-38201792D01*
X238383633Y-38305881D01*
X238447109Y-38424637D01*
X238486197Y-38553492D01*
X238500000Y-38693640D01*
X238500000Y-43306360D01*
X238486197Y-43446508D01*
X238447109Y-43575363D01*
X238383633Y-43694119D01*
X238298208Y-43798208D01*
X238194119Y-43883633D01*
X238075363Y-43947109D01*
X237946508Y-43986197D01*
X237806360Y-44000000D01*
X236193640Y-44000000D01*
X236053492Y-43986197D01*
X235924637Y-43947109D01*
X235805881Y-43883633D01*
X235701792Y-43798208D01*
X235616367Y-43694119D01*
X235552891Y-43575363D01*
X235513803Y-43446508D01*
X235500000Y-43306360D01*
X235500000Y-38693640D01*
X235513803Y-38553492D01*
X235552891Y-38424637D01*
X235616367Y-38305881D01*
X235701792Y-38201792D01*
X235805881Y-38116367D01*
X235924637Y-38052891D01*
X236053492Y-38013803D01*
X236193640Y-38000000D01*
X237806360Y-38000000D01*
X237946508Y-38013803D01*
X237946508Y-38013803D01*
G37*
G36*
X176946508Y-38013803D02*
X177075363Y-38052891D01*
X177194119Y-38116367D01*
X177298208Y-38201792D01*
X177383633Y-38305881D01*
X177447109Y-38424637D01*
X177486197Y-38553492D01*
X177500000Y-38693640D01*
X177500000Y-43306360D01*
X177486197Y-43446508D01*
X177447109Y-43575363D01*
X177383633Y-43694119D01*
X177298208Y-43798208D01*
X177194119Y-43883633D01*
X177075363Y-43947109D01*
X176946508Y-43986197D01*
X176806360Y-44000000D01*
X175193640Y-44000000D01*
X175053492Y-43986197D01*
X174924637Y-43947109D01*
X174805881Y-43883633D01*
X174701792Y-43798208D01*
X174616367Y-43694119D01*
X174552891Y-43575363D01*
X174513803Y-43446508D01*
X174500000Y-43306360D01*
X174500000Y-38693640D01*
X174513803Y-38553492D01*
X174552891Y-38424637D01*
X174616367Y-38305881D01*
X174701792Y-38201792D01*
X174805881Y-38116367D01*
X174924637Y-38052891D01*
X175053492Y-38013803D01*
X175193640Y-38000000D01*
X176806360Y-38000000D01*
X176946508Y-38013803D01*
X176946508Y-38013803D01*
G37*
G36*
X187946508Y-38013803D02*
X188075363Y-38052891D01*
X188194119Y-38116367D01*
X188298208Y-38201792D01*
X188383633Y-38305881D01*
X188447109Y-38424637D01*
X188486197Y-38553492D01*
X188500000Y-38693640D01*
X188500000Y-43306360D01*
X188486197Y-43446508D01*
X188447109Y-43575363D01*
X188383633Y-43694119D01*
X188298208Y-43798208D01*
X188194119Y-43883633D01*
X188075363Y-43947109D01*
X187946508Y-43986197D01*
X187806360Y-44000000D01*
X186193640Y-44000000D01*
X186053492Y-43986197D01*
X185924637Y-43947109D01*
X185805881Y-43883633D01*
X185701792Y-43798208D01*
X185616367Y-43694119D01*
X185552891Y-43575363D01*
X185513803Y-43446508D01*
X185500000Y-43306360D01*
X185500000Y-38693640D01*
X185513803Y-38553492D01*
X185552891Y-38424637D01*
X185616367Y-38305881D01*
X185701792Y-38201792D01*
X185805881Y-38116367D01*
X185924637Y-38052891D01*
X186053492Y-38013803D01*
X186193640Y-38000000D01*
X187806360Y-38000000D01*
X187946508Y-38013803D01*
X187946508Y-38013803D01*
G37*
G36*
X217946508Y-38013803D02*
X218075363Y-38052891D01*
X218194119Y-38116367D01*
X218298208Y-38201792D01*
X218383633Y-38305881D01*
X218447109Y-38424637D01*
X218486197Y-38553492D01*
X218500000Y-38693640D01*
X218500000Y-43306360D01*
X218486197Y-43446508D01*
X218447109Y-43575363D01*
X218383633Y-43694119D01*
X218298208Y-43798208D01*
X218194119Y-43883633D01*
X218075363Y-43947109D01*
X217946508Y-43986197D01*
X217806360Y-44000000D01*
X216193640Y-44000000D01*
X216053492Y-43986197D01*
X215924637Y-43947109D01*
X215805881Y-43883633D01*
X215701792Y-43798208D01*
X215616367Y-43694119D01*
X215552891Y-43575363D01*
X215513803Y-43446508D01*
X215500000Y-43306360D01*
X215500000Y-38693640D01*
X215513803Y-38553492D01*
X215552891Y-38424637D01*
X215616367Y-38305881D01*
X215701792Y-38201792D01*
X215805881Y-38116367D01*
X215924637Y-38052891D01*
X216053492Y-38013803D01*
X216193640Y-38000000D01*
X217806360Y-38000000D01*
X217946508Y-38013803D01*
X217946508Y-38013803D01*
G37*
G36*
X260466703Y-37461486D02*
X260757883Y-37582097D01*
X261019944Y-37757201D01*
X261242799Y-37980056D01*
X261417903Y-38242117D01*
X261538514Y-38533297D01*
X261600000Y-38842412D01*
X261600000Y-39157588D01*
X261538514Y-39466703D01*
X261417903Y-39757883D01*
X261242799Y-40019944D01*
X261019944Y-40242799D01*
X260757883Y-40417903D01*
X260466703Y-40538514D01*
X260157588Y-40600000D01*
X259842412Y-40600000D01*
X259533297Y-40538514D01*
X259242117Y-40417903D01*
X258980056Y-40242799D01*
X258757201Y-40019944D01*
X258582097Y-39757883D01*
X258461486Y-39466703D01*
X258400000Y-39157588D01*
X258400000Y-38842412D01*
X258461486Y-38533297D01*
X258582097Y-38242117D01*
X258757201Y-37980056D01*
X258980056Y-37757201D01*
X259242117Y-37582097D01*
X259533297Y-37461486D01*
X259842412Y-37400000D01*
X260157588Y-37400000D01*
X260466703Y-37461486D01*
X260466703Y-37461486D01*
G37*
G36*
X169466703Y-37461486D02*
X169757883Y-37582097D01*
X170019944Y-37757201D01*
X170242799Y-37980056D01*
X170417903Y-38242117D01*
X170538514Y-38533297D01*
X170600000Y-38842412D01*
X170600000Y-39157588D01*
X170538514Y-39466703D01*
X170417903Y-39757883D01*
X170242799Y-40019944D01*
X170019944Y-40242799D01*
X169757883Y-40417903D01*
X169466703Y-40538514D01*
X169157588Y-40600000D01*
X168842412Y-40600000D01*
X168533297Y-40538514D01*
X168242117Y-40417903D01*
X167980056Y-40242799D01*
X167757201Y-40019944D01*
X167582097Y-39757883D01*
X167461486Y-39466703D01*
X167400000Y-39157588D01*
X167400000Y-38842412D01*
X167461486Y-38533297D01*
X167582097Y-38242117D01*
X167757201Y-37980056D01*
X167980056Y-37757201D01*
X168242117Y-37582097D01*
X168533297Y-37461486D01*
X168842412Y-37400000D01*
X169157588Y-37400000D01*
X169466703Y-37461486D01*
X169466703Y-37461486D01*
G37*
M02*
